<svg width="20" height="20" viewBox="0 0 20 21" fill="none" xmlns="http://www.w3.org/2000/svg">
<path fill-rule="evenodd" clip-rule="evenodd" d="M2.53991 0.670776H5.91991C7.32991 0.670776 8.45991 1.82078 8.45991 3.23178V6.64078C8.45991 8.06078 7.32991 9.20078 5.91991 9.20078H2.53991C1.13991 9.20078 -9.15527e-05 8.06078 -9.15527e-05 6.64078V3.23178C-9.15527e-05 1.82078 1.13991 0.670776 2.53991 0.670776ZM2.53991 12.1405H5.91991C7.32991 12.1405 8.45991 13.2815 8.45991 14.7015V18.1105C8.45991 19.5205 7.32991 20.6705 5.91991 20.6705H2.53991C1.13991 20.6705 -9.15527e-05 19.5205 -9.15527e-05 18.1105V14.7015C-9.15527e-05 13.2815 1.13991 12.1405 2.53991 12.1405ZM17.46 0.670776H14.08C12.67 0.670776 11.54 1.82078 11.54 3.23178V6.64078C11.54 8.06078 12.67 9.20078 14.08 9.20078H17.46C18.86 9.20078 20 8.06078 20 6.64078V3.23178C20 1.82078 18.86 0.670776 17.46 0.670776ZM14.08 12.1405H17.46C18.86 12.1405 20 13.2815 20 14.7015V18.1105C20 19.5205 18.86 20.6705 17.46 20.6705H14.08C12.67 20.6705 11.54 19.5205 11.54 18.1105V14.7015C11.54 13.2815 12.67 12.1405 14.08 12.1405Z" fill="url(#paint0_linear_1830_3088)"/>
<defs>
<linearGradient id="paint0_linear_1830_3088" x1="20" y1="20.6705" x2="-3.79824" y2="13.7703" gradientUnits="userSpaceOnUse">
<stop stop-color="#6949FF"/>
<stop offset="1" stop-color="#876DFF"/>
</linearGradient>
</defs>
</svg>
