<svg width="20" height="21" viewBox="0 0 20 21" fill="none" xmlns="http://www.w3.org/2000/svg">
<g clip-path="url(#clip0_1268_30850)">
<path fill-rule="evenodd" clip-rule="evenodd" d="M10.8337 0.868164C5.77105 0.868164 1.66699 4.97222 1.66699 10.0348C1.66699 15.0974 5.77105 19.2015 10.8337 19.2015C15.8963 19.2015 20.0003 15.0974 20.0003 10.0348C20.0003 4.97222 15.8963 0.868164 10.8337 0.868164ZM15.1729 8.12409C15.4984 7.79865 15.4984 7.27101 15.1729 6.94557C14.8475 6.62014 14.3198 6.62014 13.9944 6.94557L9.58366 11.3563L7.67291 9.44557C7.34748 9.12014 6.81984 9.12014 6.4944 9.44557C6.16897 9.77101 6.16897 10.2986 6.4944 10.6241L8.9944 13.1241C9.31984 13.4495 9.84748 13.4495 10.1729 13.1241L15.1729 8.12409Z" fill="url(#paint0_linear_1268_30850)"/>
</g>
<defs>
<linearGradient id="paint0_linear_1268_30850" x1="20.0003" y1="19.2015" x2="-1.81469" y2="12.8764" gradientUnits="userSpaceOnUse">
<stop stop-color="#00F5A0"/>
<stop offset="1" stop-color="#00D9F5"/>
</linearGradient>
<clipPath id="clip0_1268_30850">
<rect width="20" height="20" fill="white" transform="translate(0 0.034668)"/>
</clipPath>
</defs>
</svg>
