<svg width="17" height="21" viewBox="0 0 17 21" fill="none" xmlns="http://www.w3.org/2000/svg">
<path d="M7.34 9.185C8.72312 7.49075 10 4 10 4C10 4 11.4384 7.47317 12.87 9.185C14.2476 10.8322 17 12.5 17 12.5C17 12.5 14.2159 14.1679 12.87 15.7111C11.3292 17.4778 10 21 10 21C10 21 8.72829 17.4714 7.2 15.7111C5.84321 14.1483 3 12.5 3 12.5C3 12.5 5.93035 10.9117 7.34 9.185Z" fill="url(#paint0_linear_220_1498)"/>
<path d="M16.5282 12.4984C16.4911 12.5219 16.4513 12.5472 16.4092 12.5741C16.1248 12.7562 15.7315 13.015 15.2956 13.3226C14.4284 13.9345 13.3752 14.7514 12.6816 15.5468C11.8875 16.4573 11.158 17.8058 10.6315 18.9105C10.3692 19.461 10.1546 19.9566 10.0049 20.3166C9.86073 19.9562 9.65402 19.4608 9.40008 18.9109C8.88951 17.8052 8.17745 16.4556 7.38878 15.5472C6.6886 14.7407 5.61659 13.9232 4.73318 13.3137C4.28899 13.0073 3.88775 12.7502 3.59748 12.5697C3.56153 12.5473 3.52727 12.5261 3.49484 12.5062C3.53026 12.4855 3.56782 12.4634 3.60736 12.4399C3.90727 12.2622 4.32187 12.0071 4.78117 11.6973C5.69463 11.0812 6.80482 10.2359 7.53366 9.3431C8.24721 8.46904 8.92323 7.14712 9.41633 6.06046C9.66433 5.51394 9.86867 5.02101 10.011 4.66465C10.0118 4.66275 10.0126 4.66085 10.0133 4.65896C10.0151 4.66305 10.017 4.66716 10.0188 4.6713C10.1771 5.02603 10.4031 5.51695 10.6743 6.06194C11.2139 7.1463 11.9422 8.46532 12.6782 9.34538C13.3876 10.1937 14.4409 11.0371 15.305 11.6627C15.7392 11.9771 16.1298 12.2394 16.412 12.4232C16.4531 12.4499 16.4919 12.475 16.5282 12.4984Z" stroke="#757575" stroke-opacity="0.45" stroke-width="0.5"/>
<path d="M4.14 8.865C3.54723 9.56263 3 11 3 11C3 11 2.38355 9.56987 1.77 8.865C1.17961 8.18673 0 7.5 0 7.5C0 7.5 1.18777 6.75893 1.77 6.1C2.4008 5.38611 3 4 3 4C3 4 3.5263 5.39382 4.14 6.1C4.73475 6.78438 6 7.5 6 7.5C6 7.5 4.74413 8.15399 4.14 8.865Z" fill="url(#paint1_linear_220_1498)"/>
<path d="M2.98751 10.3807C2.94228 10.2883 2.89181 10.1875 2.83707 10.0819C2.60508 9.63393 2.28626 9.07733 1.95857 8.70086C1.64227 8.33748 1.1787 7.98191 0.80636 7.72292C0.68133 7.63595 0.564669 7.55856 0.464555 7.49395C0.566286 7.4249 0.68547 7.34211 0.813256 7.24961C1.18552 6.98013 1.64695 6.61681 1.95734 6.26554C2.29374 5.88483 2.61264 5.33733 2.84293 4.89845C2.89518 4.79885 2.94338 4.70387 2.98672 4.61643C3.02508 4.70239 3.06777 4.79543 3.11421 4.8928C3.32417 5.33303 3.62102 5.88394 3.9513 6.26399C4.27127 6.63217 4.75926 6.9972 5.15289 7.26367C5.28054 7.35008 5.40035 7.4275 5.50427 7.49285C5.40224 7.55348 5.28523 7.62531 5.1606 7.70607C4.76669 7.96131 4.27615 8.31867 3.94949 8.70312C3.63027 9.07881 3.33371 9.63838 3.12166 10.0873C3.07277 10.1909 3.02781 10.2897 2.98751 10.3807Z" stroke="#757575" stroke-opacity="0.45" stroke-width="0.5"/>
<path d="M6.93 1.22C7.22638 0.821354 7.5 0 7.5 0C7.5 0 7.80823 0.817216 8.115 1.22C8.4102 1.60759 9 2 9 2C9 2 8.40612 2.42347 8.115 2.8C7.7996 3.20794 7.5 4 7.5 4C7.5 4 7.23685 3.20353 6.93 2.8C6.63262 2.40893 6 2 6 2C6 2 6.62793 1.62629 6.93 1.22Z" fill="url(#paint2_linear_220_1498)"/>
<path d="M6.44168 2.00619C6.46083 1.99242 6.48047 1.9781 6.50051 1.96327C6.70043 1.81521 6.95708 1.60259 7.13063 1.36916C7.27604 1.17358 7.40956 0.900262 7.51165 0.663825C7.62292 0.900708 7.76632 1.1748 7.91612 1.37148C8.08305 1.59066 8.32415 1.80121 8.51263 1.95104C8.5364 1.96994 8.55957 1.98805 8.58193 2.0053C8.55793 2.02462 8.53296 2.04495 8.50731 2.06618C8.31952 2.22153 8.08047 2.43594 7.91722 2.64708C7.76518 2.84374 7.62262 3.1105 7.51221 3.3415C7.41095 3.11071 7.27784 2.84441 7.129 2.64868C6.95958 2.42587 6.70536 2.2095 6.50646 2.05561C6.48435 2.03851 6.4627 2.02201 6.44168 2.00619Z" stroke="#757575" stroke-opacity="0.45" stroke-width="0.5"/>
<defs>
<linearGradient id="paint0_linear_220_1498" x1="17.9333" y1="4" x2="2.80229" y2="20.8222" gradientUnits="userSpaceOnUse">
<stop stop-color="#2845DC"/>
<stop offset="1" stop-color="#B046C2"/>
</linearGradient>
<linearGradient id="paint1_linear_220_1498" x1="3" y1="11" x2="3" y2="4" gradientUnits="userSpaceOnUse">
<stop stop-color="#2845DC"/>
<stop offset="1" stop-color="#B046C2"/>
</linearGradient>
<linearGradient id="paint2_linear_220_1498" x1="7.5" y1="0" x2="7.5" y2="4" gradientUnits="userSpaceOnUse">
<stop stop-color="#2845DC"/>
<stop offset="1" stop-color="#B046C2"/>
</linearGradient>
</defs>
</svg>
