<svg width="16" height="17" viewBox="0 0 16 17" fill="none" xmlns="http://www.w3.org/2000/svg">
<path d="M14.0007 7.83325C13.8238 7.83325 13.6543 7.90349 13.5292 8.02851C13.4042 8.15354 13.334 8.32311 13.334 8.49992C13.3419 9.7486 12.9142 10.961 12.1244 11.9282C11.3347 12.8955 10.2323 13.557 9.00729 13.799C7.78225 14.0409 6.51117 13.8481 5.41299 13.2538C4.3148 12.6594 3.45826 11.7007 2.99087 10.5428C2.52348 9.38481 2.47451 8.10013 2.8524 6.90997C3.23028 5.71981 4.01137 4.69867 5.06112 4.02244C6.11087 3.3462 7.36358 3.05719 8.60349 3.20519C9.8434 3.35319 10.9929 3.92893 11.854 4.83325H10.254C10.0772 4.83325 9.90761 4.90349 9.78258 5.02851C9.65756 5.15354 9.58732 5.32311 9.58732 5.49992C9.58732 5.67673 9.65756 5.8463 9.78258 5.97132C9.90761 6.09635 10.0772 6.16658 10.254 6.16658H13.274C13.4508 6.16658 13.6204 6.09635 13.7454 5.97132C13.8704 5.8463 13.9407 5.67673 13.9407 5.49992V2.49992C13.9407 2.32311 13.8704 2.15354 13.7454 2.02851C13.6204 1.90349 13.4508 1.83325 13.274 1.83325C13.0972 1.83325 12.9276 1.90349 12.8026 2.02851C12.6776 2.15354 12.6073 2.32311 12.6073 2.49992V3.67992C11.4971 2.61862 10.0545 1.97322 8.52333 1.8528C6.99218 1.73239 5.46641 2.14435 4.20393 3.01905C2.94146 3.89374 2.01973 5.17752 1.59454 6.65338C1.16935 8.12923 1.26679 9.70663 1.87039 11.1189C2.47399 12.5312 3.54672 13.6918 4.90725 14.4045C6.26778 15.1171 7.83265 15.3382 9.33735 15.0302C10.842 14.7223 12.1943 13.9042 13.1654 12.7144C14.1366 11.5245 14.6671 10.0358 14.6673 8.49992C14.6673 8.32311 14.5971 8.15354 14.4721 8.02851C14.347 7.90349 14.1775 7.83325 14.0007 7.83325Z" fill="url(#paint0_linear_228_20127)"/>
<defs>
<linearGradient id="paint0_linear_228_20127" x1="14.6673" y1="15.1656" x2="-1.19816" y2="10.5656" gradientUnits="userSpaceOnUse">
<stop stop-color="#00F5A0"/>
<stop offset="1" stop-color="#00D9F5"/>
</linearGradient>
</defs>
</svg>
