<svg width="56" height="56" viewBox="0 0 56 56" fill="none" xmlns="http://www.w3.org/2000/svg">
<rect width="56" height="56" rx="10" fill="#6772E5"/>
<path d="M25.2811 21.0865C25.2811 19.6253 26.4998 19.0618 28.4524 19.0618C31.2961 19.0618 34.9065 19.9332 37.7502 21.4665V12.6667C34.6509 11.4283 31.5582 10.9565 28.459 10.9565C20.8779 10.9565 15.826 14.9142 15.826 21.532C15.826 31.8782 30.0315 30.2008 30.0315 34.6629C30.0315 36.3927 28.531 36.9497 26.4474 36.9497C23.3547 36.9497 19.3578 35.672 16.2192 33.9684V42.3881C19.4474 43.7808 22.925 44.5031 26.4408 44.5111C34.2119 44.5111 39.5652 41.1694 39.5652 34.4467C39.5652 23.2946 25.2811 25.2931 25.2811 21.0865Z" fill="white"/>
</svg>
