<svg width="100%" height="100%" viewBox="0 0 2499 999" fill="none" xmlns="http://www.w3.org/2000/svg">
<path d="M323.054 217.814C146.839 217.814 0 292.372 0 517.309C0 695.509 98.7388 807.728 327.604 807.728C596.989 807.728 614.257 630.754 614.257 630.754H483.727C483.727 630.754 455.741 726.048 319.641 726.048C208.792 726.048 129.065 651.367 129.065 546.692H627.907V481.007C627.907 377.45 561.99 217.814 323.054 217.814ZM318.504 301.764C424.021 301.764 495.956 366.232 495.956 462.855H131.952C131.952 360.277 225.845 301.764 318.504 301.764Z" fill="white"/>
<path d="M627.814 0V694.765C627.814 734.202 624.992 789.577 624.992 789.577H749.49C749.49 789.577 753.959 749.806 753.959 713.46C753.959 713.46 815.469 809.429 982.719 809.429C1158.84 809.429 1278.47 687.484 1278.47 512.771C1278.47 350.238 1168.59 219.516 983.003 219.516C809.218 219.516 755.216 313.108 755.216 313.108V0H627.814ZM950.868 305.45C1070.47 305.45 1146.52 393.975 1146.52 512.771C1146.52 640.158 1058.68 723.495 951.721 723.495C824.073 723.495 755.216 624.096 755.216 513.905C755.216 411.23 817.003 305.45 950.868 305.45Z" fill="white"/>
<path d="M1587.88 217.814C1322.77 217.814 1305.77 362.58 1305.77 385.713H1437.72C1437.72 385.713 1444.64 301.196 1578.78 301.196C1665.94 301.196 1733.48 340.984 1733.48 417.477V444.704H1578.78C1373.4 444.704 1264.82 504.624 1264.82 626.216C1264.82 745.881 1365.14 810.99 1500.71 810.99C1685.48 810.99 1744.99 709.173 1744.99 709.173C1744.99 749.67 1748.13 789.577 1748.13 789.577H1865.43C1865.43 789.577 1860.88 740.111 1860.88 708.464V434.92C1860.88 255.561 1715.82 217.814 1587.88 217.814ZM1733.48 526.385V562.687C1733.48 610.035 1704.18 727.749 1531.71 727.749C1437.27 727.749 1396.77 680.742 1396.77 626.216C1396.77 527.023 1533.14 526.385 1733.48 526.385Z" fill="white"/>
<path d="M1789.82 240.525H1938.27L2151.31 666.187L2363.86 240.525H2498.33L2111.17 998.337H1970.12L2081.84 787.087L1789.82 240.525Z" fill="white"/>
</svg>
