<svg width="100%" height="100%" viewBox="0 0 3192 1000" fill="none" xmlns="http://www.w3.org/2000/svg">
<g clip-path="url(#clip0_13999_4544)">
<path d="M399.221 356.818V463.636H657.004C650.161 522.727 629.629 568.182 597.691 597.727C561.191 634.091 501.878 675 399.221 675C241.814 675 118.626 547.727 118.626 390.909C118.626 234.091 239.533 106.818 399.221 106.818C483.628 106.818 547.504 140.909 593.129 184.091L668.411 109.091C604.535 47.7273 517.847 0 399.221 0C182.501 0 0 175 0 390.909C0 606.818 182.501 781.818 399.221 781.818C515.566 781.818 604.535 743.182 672.973 672.727C743.692 602.273 766.505 502.273 766.505 422.727C766.505 397.727 764.224 375 761.943 356.818H399.221Z" fill="white"/>
<path d="M1085.88 268.182C946.725 268.182 830.38 375 830.38 520.454C830.38 665.909 944.444 772.727 1085.88 772.727C1227.32 772.727 1341.38 668.182 1341.38 522.727C1341.38 375 1227.32 268.182 1085.88 268.182ZM1085.88 675C1008.32 675 942.162 611.363 942.162 522.727C942.162 431.818 1008.32 370.454 1085.88 370.454C1163.44 370.454 1229.6 431.818 1229.6 522.727C1229.6 611.363 1163.44 675 1085.88 675Z" fill="white"/>
<path d="M2333.73 325H2329.17C2304.08 295.454 2256.17 268.182 2194.58 268.182C2066.83 268.182 1957.33 377.273 1957.33 520.454C1957.33 661.363 2066.83 772.727 2194.58 772.727C2256.17 772.727 2304.08 745.454 2329.17 715.909H2333.73V752.273C2333.73 847.727 2281.26 900 2199.14 900C2130.7 900 2089.64 852.273 2071.39 809.091L1975.58 850C2002.95 915.909 2078.23 1000 2201.42 1000C2331.45 1000 2443.23 922.727 2443.23 736.363V281.818H2338.3V325H2333.73ZM2205.98 675C2128.42 675 2071.39 609.091 2071.39 522.727C2071.39 434.091 2130.7 370.454 2205.98 370.454C2281.26 370.454 2340.58 436.363 2340.58 525C2342.86 611.363 2283.55 675 2205.98 675Z" fill="white"/>
<path d="M1653.92 268.182C1514.76 268.182 1398.42 375 1398.42 520.454C1398.42 665.909 1512.48 772.727 1653.92 772.727C1795.36 772.727 1909.42 668.182 1909.42 522.727C1909.42 375 1795.36 268.182 1653.92 268.182ZM1653.92 675C1576.35 675 1510.2 611.363 1510.2 522.727C1510.2 431.818 1576.35 370.454 1653.92 370.454C1731.48 370.454 1797.64 431.818 1797.64 522.727C1797.64 611.363 1731.48 675 1653.92 675Z" fill="white"/>
<path d="M2527.64 11.3633H2637.14V775H2527.64V11.3633Z" fill="white"/>
<path d="M2974.77 675C2917.74 675 2878.96 650 2851.58 597.727L3191.49 459.091L3180.08 429.545C3159.55 372.727 3093.39 268.182 2963.36 268.182C2833.33 268.182 2723.83 370.454 2723.83 520.454C2723.83 661.363 2831.05 772.727 2974.77 772.727C3091.11 772.727 3157.27 702.273 3186.93 661.363L3100.24 604.545C3070.58 647.727 3031.8 675 2974.77 675ZM2967.93 363.636C3013.55 363.636 3052.33 386.363 3063.74 418.182L2835.61 513.636C2833.33 409.091 2910.89 363.636 2967.93 363.636Z" fill="white"/>
</g>
<defs>
<clipPath id="clip0_13999_4544">
<rect width="3191.49" height="1000" fill="white"/>
</clipPath>
</defs>
</svg>
