<svg width="100%" height="100%" viewBox="0 0 4688 1000" fill="none" xmlns="http://www.w3.org/2000/svg">
<g clip-path="url(#clip0_13999_4552)">
<path d="M1654.59 575.97L1626.66 655.039H1624.33C1619.67 637.21 1611.13 610.078 1597.16 577.52L1447.38 201.551H1300.7V800.776H1397.71V431.008C1397.71 407.752 1397.71 381.396 1396.94 348.838C1396.16 332.559 1394.61 320.156 1393.83 310.853H1396.16C1400.82 334.109 1406.25 351.163 1410.13 362.016L1590.18 799.225H1658.47L1836.97 358.14C1840.85 348.063 1844.73 327.907 1848.61 310.853H1850.94C1848.61 355.039 1847.06 394.574 1846.29 418.605V798.45H1949.5V200H1808.26L1654.59 575.97ZM2047.29 368.993H2148.18V798.45H2047.29V368.993ZM2098.51 187.597C2081.44 187.597 2067.47 193.799 2055.83 204.652C2044.18 215.504 2037.98 229.458 2037.98 246.512C2037.98 262.791 2044.18 276.745 2055.83 287.597C2067.47 298.45 2081.44 303.876 2098.51 303.876C2115.58 303.876 2130.33 297.675 2141.19 287.597C2152.84 276.745 2159.04 262.791 2159.04 246.512C2159.04 230.233 2152.84 216.28 2141.19 204.652C2131.11 193.799 2116.36 187.597 2098.51 187.597ZM2505.95 365.117C2487.32 361.241 2467.92 358.915 2449.3 358.915C2403.51 358.915 2361.6 368.993 2326.68 389.148C2291.75 409.303 2263.81 437.21 2245.96 472.094C2227.34 507.752 2218.03 548.838 2218.03 596.125C2218.03 637.21 2227.34 673.644 2245.19 706.977C2263.04 739.535 2287.87 765.892 2321.24 783.721C2353.06 801.551 2390.31 810.853 2432.22 810.853C2480.34 810.853 2521.47 800.776 2554.07 782.171L2554.84 781.396V688.373L2550.96 691.473C2536.22 702.326 2519.14 711.628 2502.07 717.055C2484.22 723.256 2467.92 726.357 2453.95 726.357C2413.6 726.357 2381.78 714.729 2359.27 689.148C2335.99 664.342 2324.35 630.233 2324.35 587.597C2324.35 543.411 2335.99 508.528 2360.05 482.946C2384.11 457.365 2415.92 444.187 2454.73 444.187C2487.32 444.187 2520.7 455.039 2550.96 476.745L2554.84 479.845V381.396L2554.07 380.621C2540.87 375.194 2526.13 368.993 2505.95 365.117ZM2838.89 362.016C2814.05 362.016 2790.77 369.768 2770.59 386.047C2753.52 400 2741.88 420.156 2731.79 444.187H2731.01V368.993H2630.12V798.45H2731.01V579.07C2731.01 541.861 2738.77 510.853 2755.85 488.373C2772.92 465.117 2794.65 453.489 2821.04 453.489C2830.35 453.489 2839.66 455.814 2851.3 457.365C2862.17 460.466 2869.93 463.566 2875.36 467.442L2879.24 470.543V369.768L2876.91 368.993C2869.93 364.342 2855.96 362.016 2838.89 362.016ZM3113.62 359.69C3042.99 359.69 2986.34 380.621 2946.76 421.706C2906.41 462.791 2887 519.38 2887 590.698C2887 657.365 2907.18 711.628 2945.99 751.163C2984.79 789.923 3037.56 810.078 3103.53 810.078C3172.6 810.078 3227.7 789.148 3267.28 747.287C3307.64 705.427 3327.04 649.613 3327.04 580.621C3327.04 512.404 3308.41 458.14 3270.38 418.605C3233.91 379.07 3180.36 359.69 3113.62 359.69ZM3194.33 689.923C3175.7 713.954 3146.21 725.582 3109.74 725.582C3073.26 725.582 3043.77 713.954 3022.82 688.373C3001.86 664.342 2991.77 629.458 2991.77 585.272C2991.77 539.535 3002.64 504.652 3022.82 479.845C3043.77 455.039 3072.49 442.636 3108.96 442.636C3144.66 442.636 3172.6 454.264 3192.78 478.295C3212.96 502.326 3223.82 537.21 3223.82 582.946C3222.27 629.458 3213.73 665.892 3194.33 689.923ZM3552.1 547.287C3520.28 534.109 3500.1 524.032 3490.79 515.504C3483.03 507.752 3479.15 496.9 3479.15 482.946C3479.15 471.318 3483.81 459.69 3495.45 451.938C3507.09 444.187 3520.28 440.311 3539.68 440.311C3556.76 440.311 3574.61 443.411 3591.68 448.062C3608.75 452.714 3624.28 459.69 3636.69 468.993L3640.57 472.094V377.52L3638.24 376.745C3626.6 372.094 3611.08 367.442 3592.46 363.566C3573.83 360.466 3556.76 358.915 3542.79 358.915C3494.67 358.915 3455.09 370.543 3424.05 396.125C3393.01 420.156 3378.26 452.714 3378.26 490.698C3378.26 510.853 3381.36 528.683 3388.35 543.411C3395.33 558.14 3405.42 572.094 3419.39 583.721C3433.36 594.574 3453.54 606.977 3481.48 618.605C3504.76 628.683 3522.61 636.435 3533.47 642.636C3544.34 648.838 3551.32 655.814 3556.76 661.241C3560.64 667.442 3562.97 675.194 3562.97 685.272C3562.97 713.954 3541.24 727.907 3497 727.907C3479.93 727.907 3462.08 724.807 3441.12 717.83C3420.17 710.853 3400.77 700.776 3384.47 689.148L3380.59 686.047V784.497L3382.92 785.272C3397.66 792.249 3415.51 796.9 3437.24 802.326C3458.97 806.202 3478.37 809.303 3495.45 809.303C3547.44 809.303 3590.13 797.675 3620.4 772.094C3651.44 747.287 3667.74 715.504 3667.74 674.419C3667.74 645.737 3659.98 620.156 3642.9 600.776C3620.4 582.171 3592.46 562.791 3552.1 547.287ZM3933.93 359.69C3863.31 359.69 3806.65 380.621 3767.07 421.706C3727.49 462.791 3707.32 519.38 3707.32 590.698C3707.32 657.365 3727.49 711.628 3766.3 751.163C3805.1 789.923 3857.87 810.078 3923.84 810.078C3992.91 810.078 4048.01 789.148 4087.59 747.287C4127.95 705.427 4147.35 649.613 4147.35 580.621C4147.35 512.404 4128.72 458.14 4090.7 418.605C4054.22 379.07 4000.67 359.69 3933.93 359.69ZM4013.87 689.923C3995.24 713.954 3965.75 725.582 3929.27 725.582C3892.02 725.582 3863.31 713.954 3842.35 688.373C3821.4 664.342 3811.31 629.458 3811.31 585.272C3811.31 539.535 3822.18 504.652 3842.35 479.845C3863.31 455.039 3892.02 442.636 3928.5 442.636C3963.42 442.636 3992.14 454.264 4012.31 478.295C4032.49 502.326 4043.36 537.21 4043.36 582.946C4043.36 629.458 4033.27 665.892 4013.87 689.923ZM4686.72 451.938V368.993H4585.06V241.861L4581.95 242.636L4485.72 271.318L4483.39 272.094V368.993H4331.28V314.729C4331.28 289.923 4337.49 270.543 4348.35 258.14C4359.22 245.737 4375.52 239.535 4395.7 239.535C4409.66 239.535 4424.41 242.636 4440.71 249.613L4444.59 251.938V164.342L4442.26 163.566C4428.29 158.915 4409.66 155.814 4385.61 155.814C4355.34 155.814 4328.95 162.791 4304.89 174.419C4280.84 187.597 4262.99 205.427 4249.79 229.458C4236.6 252.714 4229.62 279.07 4229.62 309.303V368.993H4158.99V451.163H4229.62V798.45H4331.28V451.938H4483.39V672.869C4483.39 763.566 4526.08 809.303 4611.44 809.303C4625.41 809.303 4640.16 806.977 4654.13 804.652C4668.87 801.551 4679.74 797.675 4685.95 794.574L4686.72 793.799V710.853L4682.84 713.954C4676.64 717.83 4671.2 720.931 4661.89 723.256C4654.13 725.582 4647.14 726.357 4641.71 726.357C4621.53 726.357 4607.56 721.706 4597.48 710.078C4588.16 699.225 4583.51 681.396 4583.51 655.039V451.938H4686.72Z" fill="white"/>
<path d="M0 0H475.735V475.194H0V0Z" fill="white"/>
<path d="M525.403 0H1001.14V475.194H525.403V0Z" fill="white"/>
<path d="M0 524.807H475.735V1000H0V524.807Z" fill="white"/>
<path d="M525.403 524.807H1001.14V1000H525.403V524.807Z" fill="white"/>
</g>
<defs>
<clipPath id="clip0_13999_4552">
<rect width="4687.5" height="1000" fill="white"/>
</clipPath>
</defs>
</svg>
