<svg width="100%" height="100%" viewBox="0 0 2436 650" fill="none" xmlns="http://www.w3.org/2000/svg">
<path d="M2310.89 12.0232L2228.81 526.452C2228.5 528.341 2228.61 530.274 2229.13 532.116C2229.65 533.958 2230.57 535.664 2231.82 537.114C2233.07 538.565 2234.63 539.725 2236.38 540.513C2238.12 541.301 2240.02 541.698 2241.94 541.676H2339.08C2342.51 541.705 2345.83 540.509 2348.45 538.304C2351.07 536.099 2352.81 533.031 2353.36 529.656L2435.44 15.2272C2435.74 13.3382 2435.63 11.405 2435.11 9.56312C2434.59 7.7212 2433.67 6.01518 2432.42 4.56464C2431.17 3.1141 2429.62 1.95415 2427.87 1.16611C2426.12 0.378071 2424.22 -0.0189909 2422.3 0.00276549H2325.17C2321.73 -0.0650777 2318.38 1.11733 2315.76 3.32926C2313.13 5.54119 2311.4 8.63145 2310.89 12.0232ZM2207.16 162.146H2115C2111.57 162.112 2108.25 163.305 2105.64 165.507C2103.02 167.709 2101.28 170.774 2100.74 174.146L2097.69 193.084C2097.69 193.084 2026.11 115.656 1899.37 167.982C1826.66 197.942 1791.76 259.84 1776.9 305.186C1776.9 305.186 1729.77 443.003 1836.38 518.86C1836.38 518.86 1935.23 591.819 2046.54 514.37L2044.62 526.452C2044.18 529.29 2044.68 532.195 2046.04 534.724C2047.41 537.252 2049.57 539.264 2052.19 540.452C2053.93 541.268 2055.83 541.676 2057.76 541.676H2149.98C2153.42 541.744 2156.76 540.562 2159.39 538.35C2162.02 536.138 2163.75 533.048 2164.26 529.656L2220.36 177.37C2220.67 175.483 2220.56 173.55 2220.03 171.711C2219.51 169.872 2218.58 168.173 2217.31 166.737C2216.06 165.274 2214.5 164.103 2212.75 163.306C2211 162.509 2209.09 162.126 2207.16 162.146ZM2071.54 356.839C2067.95 381.453 2055.47 403.912 2036.46 420.003C2017.36 436.152 1993.06 444.871 1968.03 444.554C1958.21 444.668 1948.43 443.249 1939.06 440.35C1899.27 427.697 1876.56 389.86 1883.08 348.84C1886.71 324.238 1899.2 301.797 1918.21 285.717C1937.29 269.559 1961.58 260.812 1986.6 261.084C1996.42 260.983 2006.2 262.415 2015.57 265.329C2055.61 277.901 2078.21 315.799 2071.65 356.86H2071.54V356.839ZM1579.4 366.574C1629.38 366.574 1677.72 348.86 1715.69 316.656C1753.59 284.56 1778.67 239.967 1786.4 190.982C1802.54 89.0844 1722.16 0.145622 1608.21 0.145622H1424.63C1421.21 0.112839 1417.88 1.30829 1415.27 3.51441C1412.65 5.72052 1410.91 8.79064 1410.37 12.166L1328.28 526.595C1327.83 529.433 1328.33 532.338 1329.7 534.867C1331.06 537.395 1333.22 539.407 1335.85 540.595C1337.6 541.411 1339.49 541.819 1341.41 541.819H1438.61C1442.03 541.852 1445.36 540.656 1447.97 538.45C1450.59 536.244 1452.33 533.174 1452.87 529.799L1476.97 378.737C1477.47 375.342 1479.2 372.247 1481.83 370.031C1484.46 367.815 1487.81 366.629 1491.25 366.697L1579.4 366.574ZM1660.7 186.35C1654.71 224.023 1625.29 251.758 1569.01 251.758H1497.06L1518.91 114.758H1589.57C1647.75 114.86 1666.7 148.839 1660.7 186.452V186.35Z" fill="#FEFEFE"/>
<path d="M1217.53 170.881L1106.36 356.697L1049.94 172.248C1049.06 169.305 1047.24 166.728 1044.76 164.905C1042.28 163.083 1039.27 162.115 1036.19 162.146H935.866C933.27 162.111 930.75 163.013 928.768 164.686C926.787 166.359 925.479 168.689 925.084 171.248C924.84 172.945 925.015 174.676 925.595 176.289L1026.7 486.983L935.252 633.391C934.475 634.597 933.954 635.947 933.719 637.361C933.484 638.774 933.541 640.22 933.885 641.611C934.23 643.002 934.856 644.308 935.724 645.449C936.592 646.59 937.684 647.543 938.934 648.248C940.607 649.207 942.508 649.701 944.438 649.677H1052.5C1055.58 649.688 1058.62 648.904 1061.31 647.403C1064 645.901 1066.26 643.732 1067.86 641.105L1350.27 178.514C1351.29 176.903 1351.85 175.043 1351.89 173.137C1351.93 171.23 1351.45 169.349 1350.49 167.697C1349.54 166.04 1348.16 164.668 1346.49 163.724C1344.83 162.78 1342.94 162.299 1341.02 162.33H1233C1229.9 162.302 1226.85 163.074 1224.14 164.573C1221.43 166.071 1219.15 168.245 1217.53 170.881ZM878.992 162.146H786.745C783.314 162.114 779.984 163.311 777.364 165.521C774.743 167.731 773.004 170.806 772.465 174.187L769.479 193.106C769.479 193.106 697.834 115.677 571.095 168.003C498.407 197.963 463.484 259.861 448.693 305.208C448.693 305.208 401.516 443.024 508.104 518.881C508.104 518.881 606.979 591.84 718.292 514.391L716.369 526.473C715.916 529.312 716.412 532.22 717.78 534.75C719.148 537.28 721.312 539.291 723.938 540.473C725.677 541.289 727.58 541.697 729.503 541.697H821.729C825.153 541.722 828.472 540.523 831.088 538.319C833.703 536.114 835.441 533.049 835.988 529.677L892.105 177.391C892.563 174.549 892.069 171.636 890.701 169.102C889.333 166.568 887.166 164.554 884.536 163.371C882.79 162.569 880.913 162.152 878.992 162.146ZM743.353 356.881C739.723 381.465 727.243 403.888 708.247 419.963C689.162 436.11 664.879 444.849 639.855 444.575C630.052 444.684 620.292 443.265 610.927 440.371C571.156 427.718 548.468 389.881 554.994 348.84C558.629 324.185 571.164 301.702 590.244 285.616C609.397 269.459 633.76 260.754 658.84 261.105C668.66 261.003 678.46 262.432 687.83 265.35C727.457 277.922 750.023 315.799 743.476 356.881H743.353ZM251.23 366.595C301.125 366.569 349.387 348.856 387.4 316.616C425.257 284.521 450.315 239.943 458.022 190.983C474.184 89.1055 393.783 0.166733 279.871 0.166733H96.2789C92.8533 0.132499 89.529 1.32437 86.909 3.52606C84.289 5.72775 82.547 8.7934 81.9991 12.1667L0.166001 526.452C-0.291254 529.294 0.202289 532.207 1.57045 534.741C2.9386 537.276 5.10521 539.29 7.73554 540.473C9.47449 541.269 11.3771 541.697 13.3002 541.697H110.436C113.868 541.73 117.197 540.532 119.818 538.323C122.439 536.113 124.177 533.037 124.716 529.657L148.775 378.595C149.286 375.204 151.017 372.113 153.645 369.901C156.272 367.689 159.617 366.507 163.055 366.575L251.23 366.595ZM332.531 186.35C326.537 224.024 297.138 251.759 240.857 251.759H168.906L190.714 114.759H261.377C319.581 114.861 338.505 148.861 332.531 186.452V186.35Z" fill="white"/>
</svg>
