<svg width="21" height="21" viewBox="0 0 21 21" fill="none" xmlns="http://www.w3.org/2000/svg">
<path d="M3.5 10.5H2.625V7.25C2.625 6.14543 3.52043 5.25 4.625 5.25H7.875M3.5 10.5V15.5C3.5 16.6046 4.39543 17.5 5.5 17.5H15.5C16.6046 17.5 17.5 16.6046 17.5 15.5V10.5M3.5 10.5H8.75M17.5 10.5H18.375V7.25C18.375 6.14543 17.4796 5.25 16.375 5.25H13.125M17.5 10.5H12.25M12.25 10.5V8.75H8.75V10.5M12.25 10.5V12.25H8.75V10.5M7.875 5.25V4.625C7.875 3.52043 8.77043 2.625 9.875 2.625H11.125C12.2296 2.625 13.125 3.52043 13.125 4.625V5.25M7.875 5.25H13.125" stroke="white" stroke-width="2" stroke-linecap="round" stroke-linejoin="round"/>
</svg>
