<svg width="24" height="24" viewBox="0 0 22 22" fill="none" xmlns="http://www.w3.org/2000/svg">
<path fill-rule="evenodd" clip-rule="evenodd" d="M18.2344 18.0699C15.1783 21.1263 10.6529 21.7867 6.9495 20.074C6.40279 19.8539 5.95457 19.676 5.52846 19.676C4.34157 19.683 2.86425 20.8339 2.09645 20.067C1.32864 19.2991 2.48035 17.8206 2.48035 16.6266C2.48035 16.2004 2.3095 15.7602 2.08941 15.2124C0.375917 11.5096 1.03719 6.98269 4.09334 3.92721C7.99468 0.0244319 14.3331 0.0244322 18.2344 3.9262C22.1428 7.83501 22.1358 14.1681 18.2344 18.0699Z" stroke="#9E94A5" stroke-width="1.5" stroke-linecap="round" stroke-linejoin="round"/>
<path d="M15.1025 11.4131H15.1115" stroke="#9E94A5" stroke-width="2" stroke-linecap="round" stroke-linejoin="round"/>
<path d="M11.0935 11.4131H11.1025" stroke="#9E94A5" stroke-width="2" stroke-linecap="round" stroke-linejoin="round"/>
<path d="M7.08449 11.4131H7.09349" stroke="#9E94A5" stroke-width="2" stroke-linecap="round" stroke-linejoin="round"/>
</svg>
