<svg width="75" height="75" viewBox="0 0 75 75" fill="none" xmlns="http://www.w3.org/2000/svg">
<circle cx="37.5" cy="37.5" r="37.5" fill="#D9D9D9"/>
<rect x="17.8569" y="17.8571" width="39.2855" height="39.2855" fill="#D9D9D9"/>
<path fill-rule="evenodd" clip-rule="evenodd" d="M37.5134 4.70622C55.6322 4.70622 70.3261 19.4002 70.3261 37.5189C70.3261 55.6377 55.6322 70.3316 37.5134 70.3316C19.3946 70.3316 4.70068 55.6377 4.70068 37.5189C4.70068 19.4002 19.3946 4.70622 37.5134 4.70622ZM30.6994 48.1767L22.6661 40.1367C21.2975 38.7673 21.2972 36.5342 22.6661 35.165C24.0352 33.7962 26.2783 33.8047 27.6375 35.165L33.301 40.8329L47.3898 26.7442C48.7589 25.375 50.9923 25.375 52.3612 26.7442C53.7304 28.113 53.7284 30.3484 52.3612 31.7156L35.7827 48.2941C34.4155 49.6613 32.1801 49.6633 30.8112 48.2941C30.7728 48.2557 30.7357 48.2166 30.6994 48.1767Z" fill="#8065FF"/>
</svg>
