<svg width="26" height="24" viewBox="0 0 26 24" fill="none" xmlns="http://www.w3.org/2000/svg">
<path fill-rule="evenodd" clip-rule="evenodd" d="M20.643 1.0621L20.25 0L19.857 1.0621C19.2493 2.70441 17.9544 3.99928 16.3121 4.60699L15.25 5L16.3121 5.39301C17.9544 6.00072 19.2493 7.29559 19.857 8.9379L20.25 10L20.643 8.9379C21.2507 7.29559 22.5456 6.00072 24.1879 5.39301L25.25 5L24.1879 4.60699C22.5456 3.99928 21.2507 2.70441 20.643 1.0621ZM11.3584 9.34669L9.75 5L8.14158 9.34669C7.53387 10.989 6.23901 12.2839 4.59669 12.8916L0.25 14.5L4.59669 16.1084C6.239 16.7161 7.53387 18.011 8.14158 19.6533L9.75 24L11.3584 19.6533C11.9661 18.011 13.261 16.7161 14.9033 16.1084L19.25 14.5L14.9033 12.8916C13.261 12.2839 11.9661 10.989 11.3584 9.34669Z" fill="url(#paint0_linear_1_24000)"/>
<defs>
<linearGradient id="paint0_linear_1_24000" x1="20.25" y1="0" x2="20.25" y2="10" gradientUnits="userSpaceOnUse">
<stop stop-color="#CBB5FF"/>
<stop offset="1" stop-color="#9D74FF"/>
</linearGradient>
</defs>
</svg>
