<svg width="25" height="24" viewBox="0 0 25 24" fill="none" xmlns="http://www.w3.org/2000/svg">
<path d="M17.1631 15V19M19.1631 17H15.1631M16.1631 10H18.1631C19.2677 10 20.1631 9.10457 20.1631 8V6C20.1631 4.89543 19.2677 4 18.1631 4H16.1631C15.0585 4 14.1631 4.89543 14.1631 6V8C14.1631 9.10457 15.0585 10 16.1631 10ZM6.16309 20H8.16309C9.26766 20 10.1631 19.1046 10.1631 18V16C10.1631 14.8954 9.26766 14 8.16309 14H6.16309C5.05852 14 4.16309 14.8954 4.16309 16V18C4.16309 19.1046 5.05852 20 6.16309 20ZM6.16309 10H8.16309C9.26766 10 10.1631 9.10457 10.1631 8V6C10.1631 4.89543 9.26766 4 8.16309 4H6.16309C5.05852 4 4.16309 4.89543 4.16309 6V8C4.16309 9.10457 5.05852 10 6.16309 10Z" stroke="#9E94A5" stroke-width="2" stroke-linecap="round" stroke-linejoin="round"/>
</svg>
