<svg width="247.57" height="159.73" viewBox="0 0 248 160" fill="none" xmlns="http://www.w3.org/2000/svg">
<g clip-path="url(#clip0_1_1169)">
<path d="M2.86498 67.4901C2.64498 67.4901 2.45498 67.3201 2.44498 67.1001L0.214976 40.4001C0.194976 40.1701 0.364976 39.9601 0.604976 39.9401C0.824976 39.9201 1.04498 40.0901 1.06498 40.3301L3.28498 67.0301C3.30498 67.2601 3.13498 67.4701 2.89498 67.4901C2.88498 67.4901 2.87498 67.4901 2.86498 67.4901Z" fill="#6F50FF"/>
<path d="M4.18486 83.3503C3.96486 83.3503 3.77486 83.1803 3.76486 82.9603L3.09486 74.8803C3.07486 74.6503 3.24486 74.4403 3.48486 74.4203C3.70486 74.3903 3.92486 74.5703 3.94486 74.8103L4.61486 82.8903C4.63486 83.1203 4.46486 83.3303 4.22486 83.3503C4.20486 83.3503 4.19486 83.3503 4.18486 83.3503Z" fill="#6F50FF"/>
<path d="M229.155 159.33H22.6751C17.4051 159.33 12.7351 155.02 12.2951 149.75L0.675074 9.98039C0.235074 4.71039 4.18507 0.400391 9.45507 0.400391H215.925C221.195 0.400391 225.865 4.71039 226.305 9.98039L237.935 149.75C238.375 155.02 234.415 159.33 229.155 159.33Z" fill="white"/>
<path d="M229.155 159.73H22.6751C17.1951 159.73 12.3551 155.27 11.9051 149.79L0.275137 10.01C0.0551374 7.34 0.895138 4.83 2.64514 2.93C4.38514 1.04 6.80514 0 9.45514 0H215.925C221.405 0 226.245 4.46 226.695 9.95L238.325 149.72C238.545 152.39 237.705 154.9 235.955 156.8C234.225 158.69 231.805 159.73 229.155 159.73ZM9.45514 0.8C7.02514 0.8 4.81514 1.75 3.22514 3.47C1.63514 5.2 0.865137 7.5 1.07514 9.95L12.7051 149.72C13.1251 154.8 17.6051 158.93 22.6851 158.93H229.155C231.585 158.93 233.795 157.98 235.385 156.26C236.975 154.53 237.745 152.23 237.545 149.79L225.905 10.01C225.485 4.93 221.005 0.8 215.925 0.8H9.45514Z" fill="#6F50FF"/>
<path d="M215.925 0.400391H9.45507C4.18507 0.400391 0.235074 4.71039 0.675074 9.98039H226.305C225.865 4.71039 221.195 0.400391 215.925 0.400391Z" fill="#6F50FF"/>
<path d="M14.285 5.19012C14.375 6.33012 13.535 7.26012 12.395 7.26012C11.255 7.26012 10.255 6.34012 10.155 5.19012C10.065 4.05012 10.905 3.12012 12.045 3.12012C13.195 3.12012 14.195 4.05012 14.285 5.19012Z" fill="white"/>
<path d="M22.6849 5.19012C22.7749 6.33012 21.9349 7.26012 20.7949 7.26012C19.6549 7.26012 18.6549 6.34012 18.5549 5.19012C18.4549 4.04012 19.3049 3.12012 20.4449 3.12012C21.5849 3.12012 22.5949 4.05012 22.6849 5.19012Z" fill="white"/>
<path d="M31.0848 5.19012C31.1748 6.33012 30.3348 7.26012 29.1948 7.26012C28.0548 7.26012 27.0548 6.34012 26.9548 5.19012C26.8648 4.05012 27.7048 3.12012 28.8448 3.12012C29.9948 3.12012 30.9948 4.05012 31.0848 5.19012Z" fill="white"/>
<path d="M211.235 141.01H37.5448C33.3548 141.01 29.6448 137.58 29.2948 133.4L21.1848 35.9098C20.8348 31.7198 23.9748 28.2998 28.1648 28.2998H201.845C206.035 28.2998 209.745 31.7298 210.095 35.9098L218.215 133.4C218.565 137.59 215.425 141.01 211.235 141.01Z" fill="#F0F0F0"/>
<path opacity="0.1" d="M157.515 45.3703L103.705 110.15C96.3249 119.04 100.995 132.58 112.295 135.03L199.565 153.91C211.615 156.52 221.685 144.6 217.105 133.15L183.645 49.4903C179.315 38.6503 164.975 36.3903 157.515 45.3703Z" fill="#263238"/>
<path opacity="0.1" d="M37.755 54.4504L19.015 104.92C16.515 111.65 21.925 118.68 29.075 117.98L83.805 112.61C91.475 111.86 95.265 102.9 90.455 96.8704L54.465 51.7704C49.755 45.8604 40.385 47.3604 37.755 54.4504Z" fill="#263238"/>
<path d="M176.085 29.0498L125.785 102.09C118.935 112.04 125.005 125.71 136.975 127.31L229.435 139.62C242.265 141.33 251.815 128.02 246.075 116.41L203.915 31.0698C198.445 19.9898 183.085 18.8798 176.085 29.0498Z" fill="#6F50FF"/>
<path d="M139.165 120.759C135.805 120.309 132.875 118.189 131.345 115.089C129.815 111.989 129.985 108.549 131.815 105.889L182.245 32.6694C184.075 30.0094 187.175 28.6994 190.535 29.1394C193.895 29.5894 196.825 31.7094 198.355 34.8094L240.625 120.369C242.155 123.469 241.985 126.909 240.155 129.569C238.325 132.229 235.225 133.539 231.865 133.099L139.165 120.759Z" fill="white"/>
<path d="M186.245 55.03L192.135 55.8101C195.925 56.3101 198.835 59.7601 198.645 63.5001L198.255 71.18C198.245 71.4601 198.205 71.74 198.155 72.02L193.965 95.17C193.365 98.51 190.315 100.66 186.855 100.2C183.385 99.74 180.595 96.79 180.355 93.34L178.655 69.42C178.635 69.14 178.635 68.87 178.645 68.59L179.045 60.9001C179.235 57.1501 182.455 54.52 186.245 55.03ZM185.775 106.59L187.385 106.8C190.775 107.25 193.375 110.33 193.205 113.68C193.035 117.03 190.145 119.38 186.755 118.93L185.145 118.72C181.755 118.27 179.155 115.19 179.325 111.84C179.505 108.49 182.385 106.14 185.775 106.59Z" fill="#6F50FF"/>
<path d="M57.105 40.2201L43.285 92.5901C41.455 99.5201 47.505 105.98 54.545 104.61L108.115 94.1601C115.645 92.6901 118.585 83.4901 113.305 77.9301L73.555 36.0101C68.315 30.4801 59.045 32.8501 57.105 40.2201Z" fill="#6F50FF"/>
<path d="M54.4549 100.37C52.5049 100.75 50.4849 100.07 49.0349 98.5403C47.5849 97.0103 47.0249 94.9703 47.5249 93.0603L61.3749 40.5503C61.8749 38.6503 63.3449 37.2803 65.2849 36.9003C67.2349 36.5203 69.2549 37.2003 70.7049 38.7303L110.565 80.7603C112.015 82.2903 112.575 84.3303 112.075 86.2403C111.575 88.1403 110.105 89.5103 108.165 89.8903L54.4549 100.37Z" fill="white"/>
<path d="M67.8848 52.8906L71.2948 52.2206C73.4848 51.7906 75.7648 53.2506 76.3748 55.4806L77.6348 60.0506C77.6848 60.2206 77.7148 60.3906 77.7448 60.5606L79.8748 74.9206C80.1848 76.9906 78.9048 78.8306 76.9048 79.2306C74.8948 79.6206 72.7848 78.4306 71.9848 76.4506L66.4448 62.7706C66.3848 62.6106 66.3248 62.4506 66.2848 62.2906L65.0148 57.7006C64.4048 55.4706 65.6848 53.3206 67.8848 52.8906ZM77.5348 83.1706L78.4648 82.9906C80.4248 82.6106 82.4648 83.9106 83.0148 85.9106C83.5648 87.9006 82.4148 89.8306 80.4548 90.2106L79.5248 90.3906C77.5648 90.7706 75.5248 89.4706 74.9748 87.4706C74.4248 85.4806 75.5748 83.5506 77.5348 83.1706Z" fill="#6F50FF"/>
</g>
<defs>
<clipPath id="clip0_1_1169">
<rect width="247.57" height="159.73" fill="white" transform="translate(0.214844)"/>
</clipPath>
</defs>
</svg>