<svg width="24" height="24" viewBox="0 0 32 33" fill="none" xmlns="http://www.w3.org/2000/svg">
<path d="M14.5393 20.5947C14.3409 19.6453 15.0301 18.6708 16 18.6708C16.9699 18.6708 17.6591 19.6453 17.4607 20.5947C17.2746 21.4854 17.1532 22.5239 17.3333 23.3374C17.8385 25.6181 20 28.0041 20 28.0041H12C12 28.0041 14.1615 25.6181 14.6667 23.3374C14.8468 22.5239 14.7254 21.4854 14.5393 20.5947Z" fill="#F6B307"/>
<path fill-rule="evenodd" clip-rule="evenodd" d="M20.6094 28.2743C20.5025 28.5154 20.2636 28.6708 20 28.6708H12C11.7363 28.6708 11.4974 28.5154 11.3905 28.2743C11.2837 28.0334 11.3289 27.7521 11.5058 27.5567L12 28.0041H20C20 28.0041 19.7731 27.7536 19.4491 27.3374C18.7732 26.4691 17.6748 24.8792 17.3333 23.3374C17.1531 22.5239 17.2746 21.4854 17.4607 20.5947C17.6591 19.6453 16.9699 18.6708 16 18.6708C15.0301 18.6708 14.3409 19.6453 14.5392 20.5947C14.7253 21.4854 14.8468 22.5239 14.6666 23.3374C14.3252 24.8792 13.2268 26.4691 12.5508 27.3374C12.2269 27.7536 12 28.0041 12 28.0041M11.5058 27.5567L11.5096 27.5524L11.5251 27.535C11.5392 27.519 11.5608 27.4944 11.5889 27.4618C11.6452 27.3966 11.7273 27.2995 11.828 27.1755C12.0298 26.9269 12.3044 26.5721 12.5938 26.1494C13.1824 25.2897 13.7911 24.2077 14.0158 23.1933C14.1637 22.5251 14.069 21.6036 13.8867 20.731C13.6148 19.4297 14.5459 18.0041 16 18.0041C17.4541 18.0041 18.3852 19.4297 18.1133 20.731C17.931 21.6036 17.8362 22.5251 17.9842 23.1933C18.2089 24.2077 18.8176 25.2897 19.4062 26.1494C19.6955 26.5721 19.9701 26.9269 20.1719 27.1755C20.2726 27.2995 20.3548 27.3966 20.411 27.4618C20.4391 27.4944 20.4607 27.519 20.4749 27.535L20.4904 27.5524L20.494 27.5565C20.671 27.7519 20.7163 28.0334 20.6094 28.2743" fill="#5B3303"/>
<path fill-rule="evenodd" clip-rule="evenodd" d="M18.6667 28.0041H20C20 28.0041 17.8385 25.6181 17.3333 23.3374C17.1532 22.5239 17.2746 21.4854 17.4607 20.5947C17.6591 19.6453 16.9699 18.6708 16 18.6708C15.7807 18.6708 15.5758 18.7206 15.3923 18.8086C15.881 19.0406 16.1274 19.5857 16.1274 20.5947C16.1274 21.8643 16.1532 23.6906 16.3333 24.5041C16.8385 26.7848 18.6667 28.0041 18.6667 28.0041Z" fill="#C18B00"/>
<path fill-rule="evenodd" clip-rule="evenodd" d="M14.9142 24.5141C15.0928 24.5588 15.2014 24.7398 15.1567 24.9184C14.9787 25.6304 14.6266 26.332 14.2774 26.8557C14.1753 27.0089 13.9683 27.0503 13.8151 26.9482C13.662 26.8461 13.6206 26.6391 13.7227 26.4859C14.0402 26.0097 14.3547 25.378 14.51 24.7567C14.5546 24.5781 14.7356 24.4695 14.9142 24.5141Z" fill="#FFCB43"/>
<path fill-rule="evenodd" clip-rule="evenodd" d="M25.6667 13.3374C27.6917 13.3374 29.3333 11.6958 29.3333 9.67076C29.3333 7.64572 27.6917 6.00409 25.6667 6.00409C23.6416 6.00409 22 7.64572 22 9.67076C22 11.6958 23.6416 13.3374 25.6667 13.3374ZM25.6667 11.6708C26.7712 11.6708 27.6667 10.7753 27.6667 9.67076C27.6667 8.56619 26.7712 7.67076 25.6667 7.67076C24.5621 7.67076 23.6667 8.56619 23.6667 9.67076C23.6667 10.7753 24.5621 11.6708 25.6667 11.6708Z" fill="#F6B307"/>
<path fill-rule="evenodd" clip-rule="evenodd" d="M30 9.6708C30 12.064 28.0599 14.0041 25.6666 14.0041C23.2734 14.0041 21.3333 12.064 21.3333 9.6708C21.3333 7.27756 23.2734 5.33746 25.6666 5.33746C28.0599 5.33746 30 7.27756 30 9.6708ZM25.6666 11.0041C26.403 11.0041 27 10.4072 27 9.6708C27 8.93443 26.403 8.33746 25.6666 8.33746C24.9303 8.33746 24.3333 8.93443 24.3333 9.6708C24.3333 10.4072 24.9303 11.0041 25.6666 11.0041ZM29.3333 9.6708C29.3333 11.6958 27.6917 13.3375 25.6666 13.3375C23.6416 13.3375 22 11.6958 22 9.6708C22 7.64576 23.6416 6.00413 25.6666 6.00413C27.6917 6.00413 29.3333 7.64576 29.3333 9.6708ZM27.6666 9.6708C27.6666 10.7754 26.7712 11.6708 25.6666 11.6708C24.5621 11.6708 23.6666 10.7754 23.6666 9.6708C23.6666 8.56623 24.5621 7.6708 25.6666 7.6708C26.7712 7.6708 27.6666 8.56623 27.6666 9.6708Z" fill="#5B3303"/>
<path fill-rule="evenodd" clip-rule="evenodd" d="M29.0001 9.00409C29.0001 11.0291 27.3584 12.6708 25.3334 12.6708C24.0303 12.6708 22.886 11.991 22.2357 10.9667C22.7593 12.3522 24.0979 13.3374 25.6667 13.3374C27.6918 13.3374 29.3334 11.6958 29.3334 9.67076C29.3334 8.94879 29.1248 8.27559 28.7645 7.70812C28.9167 8.11106 29.0001 8.54782 29.0001 9.00409ZM23.7418 10.2154C23.6929 10.0422 23.6667 9.85952 23.6667 9.67076C23.6667 8.56619 24.5622 7.67076 25.6667 7.67076C26.316 7.67076 26.893 7.98012 27.2584 8.45949C27.0212 7.61959 26.2492 7.00409 25.3334 7.00409C24.2288 7.00409 23.3334 7.89952 23.3334 9.00409C23.3334 9.45939 23.4856 9.87919 23.7418 10.2154Z" fill="#D29700"/>
<path fill-rule="evenodd" clip-rule="evenodd" d="M6.33335 13.3374C8.35839 13.3374 10 11.6958 10 9.67076C10 7.64572 8.35839 6.00409 6.33335 6.00409C4.30832 6.00409 2.66669 7.64572 2.66669 9.67076C2.66669 11.6958 4.30832 13.3374 6.33335 13.3374ZM6.33335 11.6708C7.43792 11.6708 8.33335 10.7753 8.33335 9.67076C8.33335 8.56619 7.43792 7.67076 6.33335 7.67076C5.22879 7.67076 4.33335 8.56619 4.33335 9.67076C4.33335 10.7753 5.22879 11.6708 6.33335 11.6708Z" fill="#F6B307"/>
<path fill-rule="evenodd" clip-rule="evenodd" d="M10.6667 9.6708C10.6667 12.064 8.72657 14.0041 6.33333 14.0041C3.9401 14.0041 2 12.064 2 9.6708C2 7.27756 3.9401 5.33746 6.33333 5.33746C8.72657 5.33746 10.6667 7.27756 10.6667 9.6708ZM6.33333 11.0041C7.0697 11.0041 7.66667 10.4072 7.66667 9.6708C7.66667 8.93443 7.0697 8.33746 6.33333 8.33746C5.59697 8.33746 5 8.93443 5 9.6708C5 10.4072 5.59697 11.0041 6.33333 11.0041ZM10 9.6708C10 11.6958 8.35837 13.3375 6.33333 13.3375C4.3083 13.3375 2.66667 11.6958 2.66667 9.6708C2.66667 7.64576 4.3083 6.00413 6.33333 6.00413C8.35837 6.00413 10 7.64576 10 9.6708ZM8.33333 9.6708C8.33333 10.7754 7.4379 11.6708 6.33333 11.6708C5.22877 11.6708 4.33333 10.7754 4.33333 9.6708C4.33333 8.56623 5.22877 7.6708 6.33333 7.6708C7.4379 7.6708 8.33333 8.56623 8.33333 9.6708Z" fill="#5B3303"/>
<path fill-rule="evenodd" clip-rule="evenodd" d="M9.08742 12.0915C8.44162 12.6596 7.59439 13.0041 6.66669 13.0041C4.64165 13.0041 3.00002 11.3625 3.00002 9.33742C3.00002 8.40972 3.34455 7.56249 3.91262 6.91669C3.14873 7.58865 2.66669 8.57339 2.66669 9.67075C2.66669 11.6958 4.30832 13.3374 6.33335 13.3374C7.43069 13.3374 8.41545 12.8554 9.08742 12.0915ZM5.09559 8.09965C5.43609 7.83105 5.86599 7.67075 6.33335 7.67075C7.43792 7.67075 8.33335 8.56619 8.33335 9.67075C8.33335 10.1381 8.17305 10.568 7.90445 10.9085C8.36869 10.5423 8.66669 9.97462 8.66669 9.33742C8.66669 8.23285 7.77125 7.33742 6.66669 7.33742C6.02945 7.33742 5.46185 7.63542 5.09559 8.09965Z" fill="#D29700"/>
<path d="M6.66669 8.00413C6.66669 6.53136 7.86059 5.33746 9.33335 5.33746H22.6667C24.1395 5.33746 25.3334 6.53136 25.3334 8.00413V12.0041C25.3334 17.1588 21.1547 21.3375 16 21.3375C10.8454 21.3375 6.66669 17.1588 6.66669 12.0041V8.00413Z" fill="#FFCF23"/>
<path fill-rule="evenodd" clip-rule="evenodd" d="M9.33333 4.67078H22.6667C24.5076 4.67078 26 6.16318 26 8.00411V12.0041C26 17.5269 21.5228 22.0041 16 22.0041C10.4772 22.0041 6 17.5269 6 12.0041V8.00411C6 6.16318 7.4924 4.67078 9.33333 4.67078ZM9.33333 5.33744C7.86057 5.33744 6.66667 6.53134 6.66667 8.00411V12.0041C6.66667 17.1588 10.8453 21.3374 16 21.3374C21.1547 21.3374 25.3333 17.1588 25.3333 12.0041V8.00411C25.3333 6.53134 24.1394 5.33744 22.6667 5.33744H9.33333Z" fill="#5B3303"/>
<path fill-rule="evenodd" clip-rule="evenodd" d="M13.6667 21.0434C14.4125 21.2354 15.1943 21.3375 16 21.3375C21.1547 21.3375 25.3334 17.1588 25.3334 12.0041V5.33746H20.6667V12.0041C20.6667 16.3531 17.6922 20.0073 13.6667 21.0434Z" fill="#FFC429"/>
<path d="M6.66669 5.33746V12.0041C6.66669 15.1861 8.25895 17.9961 10.6902 19.6809C11.8466 20.4823 14.0424 17.7339 14.0062 16.3274C14.002 16.1643 14 16.0008 14 15.8375V5.33746H6.66669Z" fill="#FFDB5B"/>
<path fill-rule="evenodd" clip-rule="evenodd" d="M11.178 19.997C12.5853 20.8478 14.2355 21.3375 16 21.3375C21.1546 21.3375 25.3333 17.1588 25.3333 12.0041V5.33746H23.9999V11.3375C23.9999 16.4921 19.8212 20.6708 14.6666 20.6708C13.4332 20.6708 12.2557 20.4316 11.178 19.997Z" fill="#F5B40C"/>
<path d="M25.3334 5.33746H6.66669V6.6708H25.3334V5.33746Z" fill="#D29803"/>
<path fill-rule="evenodd" clip-rule="evenodd" d="M7.99998 6.33746C8.36818 6.33746 8.66665 6.63593 8.66665 7.00413C8.66665 9.27046 8.66801 11.0937 8.86881 12.5595C9.06881 14.0195 9.45445 15.0158 10.138 15.6994C10.3983 15.9598 10.3983 16.3819 10.138 16.6422C9.87765 16.9026 9.45555 16.9026 9.19518 16.6422C8.21215 15.6591 7.76448 14.3221 7.54781 12.7404C7.33331 11.1745 7.33331 9.262 7.33331 7.04626V7.00413C7.33331 6.63593 7.63178 6.33746 7.99998 6.33746Z" fill="#FFEBA6"/>
<path fill-rule="evenodd" clip-rule="evenodd" d="M7.99997 7.33746C8.18407 7.33746 8.3333 7.4867 8.3333 7.6708C8.3333 8.10903 8.3296 8.36963 8.3266 8.58136C8.32204 8.9036 8.31907 9.1126 8.3332 9.66223C8.33794 9.84626 8.19257 9.9993 8.00854 10.004C7.8245 10.0087 7.67147 9.8634 7.66674 9.67936C7.65237 9.1194 7.6555 8.89266 7.66014 8.55806C7.66307 8.3445 7.66664 8.087 7.66664 7.6708C7.66664 7.4867 7.81587 7.33746 7.99997 7.33746Z" fill="white"/>
<path d="M9.33331 28.6708C9.33331 28.3026 9.63178 28.0041 9.99998 28.0041H22C22.3682 28.0041 22.6666 28.3026 22.6666 28.6708C22.6666 29.039 22.3682 29.3374 22 29.3374H9.99998C9.63178 29.3374 9.33331 29.039 9.33331 28.6708Z" fill="#FFD84F"/>
<path fill-rule="evenodd" clip-rule="evenodd" d="M10 27.3375H22C22.7364 27.3375 23.3334 27.9344 23.3334 28.6708C23.3334 29.4072 22.7364 30.0041 22 30.0041H10C9.26365 30.0041 8.66669 29.4072 8.66669 28.6708C8.66669 27.9344 9.26365 27.3375 10 27.3375ZM10 28.0041C9.63182 28.0041 9.33335 28.3026 9.33335 28.6708C9.33335 29.039 9.63182 29.3375 10 29.3375H22C22.3682 29.3375 22.6667 29.039 22.6667 28.6708C22.6667 28.3026 22.3682 28.0041 22 28.0041H10Z" fill="#5B3303"/>
<path d="M4 4.67076C4 4.30256 4.29847 4.00409 4.66667 4.00409H27.3333C27.7015 4.00409 28 4.30256 28 4.67076C28 5.03896 27.7015 5.33742 27.3333 5.33742H4.66667C4.29847 5.33742 4 5.03896 4 4.67076Z" fill="#FFD84F"/>
<path fill-rule="evenodd" clip-rule="evenodd" d="M4.66665 3.33746H27.3333C28.0697 3.33746 28.6666 3.93442 28.6666 4.6708C28.6666 5.40716 28.0697 6.00413 27.3333 6.00413H4.66665C3.93028 6.00413 3.33331 5.40716 3.33331 4.6708C3.33331 3.93442 3.93028 3.33746 4.66665 3.33746ZM4.66665 4.00413C4.29845 4.00413 3.99998 4.3026 3.99998 4.6708C3.99998 5.039 4.29845 5.33746 4.66665 5.33746H27.3333C27.7015 5.33746 28 5.039 28 4.6708C28 4.3026 27.7015 4.00413 27.3333 4.00413H4.66665Z" fill="#5B3303"/>
<path fill-rule="evenodd" clip-rule="evenodd" d="M4.66669 4.50411C4.66669 4.32001 4.81592 4.17078 5.00002 4.17078H22C22.1841 4.17078 22.3334 4.32001 22.3334 4.50411C22.3334 4.68821 22.1841 4.83744 22 4.83744H5.00002C4.81592 4.83744 4.66669 4.68821 4.66669 4.50411Z" fill="#FFEBA6"/>
<path fill-rule="evenodd" clip-rule="evenodd" d="M9.66669 28.3374C9.66669 28.1533 9.81592 28.0041 10 28.0041H19.6667C19.8508 28.0041 20 28.1533 20 28.3374C20 28.5215 19.8508 28.6708 19.6667 28.6708H10C9.81592 28.6708 9.66669 28.5215 9.66669 28.3374Z" fill="#FFEBA6"/>
<path fill-rule="evenodd" clip-rule="evenodd" d="M6.66669 4.50411C6.66669 4.32001 6.81592 4.17078 7.00002 4.17078H9.00002C9.18412 4.17078 9.33335 4.32001 9.33335 4.50411C9.33335 4.68821 9.18412 4.83744 9.00002 4.83744H7.00002C6.81592 4.83744 6.66669 4.68821 6.66669 4.50411Z" fill="white"/>
<path d="M19.3333 18.8375C19.3333 19.1136 19.1094 19.3375 18.8333 19.3375C18.5572 19.3375 18.3333 19.1136 18.3333 18.8375C18.3333 18.5613 18.5572 18.3375 18.8333 18.3375C19.1094 18.3375 19.3333 18.5613 19.3333 18.8375Z" fill="#E6A809"/>
<path d="M21 17.6708C21 17.8549 20.8507 18.0041 20.6666 18.0041C20.4825 18.0041 20.3333 17.8549 20.3333 17.6708C20.3333 17.4867 20.4825 17.3375 20.6666 17.3375C20.8507 17.3375 21 17.4867 21 17.6708Z" fill="#E6A809"/>
<path d="M18.3334 20.0041C18.3334 20.1882 18.1841 20.3374 18 20.3374C17.8159 20.3374 17.6667 20.1882 17.6667 20.0041C17.6667 19.82 17.8159 19.6708 18 19.6708C18.1841 19.6708 18.3334 19.82 18.3334 20.0041Z" fill="#E6A809"/>
<path d="M17.3334 19.0041C17.3334 19.1882 17.1841 19.3374 17 19.3374C16.8159 19.3374 16.6667 19.1882 16.6667 19.0041C16.6667 18.82 16.8159 18.6708 17 18.6708C17.1841 18.6708 17.3334 18.82 17.3334 19.0041Z" fill="#E6A809"/>
<path d="M16 20.0041C16 20.1882 15.8507 20.3374 15.6666 20.3374C15.4825 20.3374 15.3333 20.1882 15.3333 20.0041C15.3333 19.82 15.4825 19.6708 15.6666 19.6708C15.8507 19.6708 16 19.82 16 20.0041Z" fill="#E6A809"/>
<path d="M24 15.3374C24 15.5215 23.8507 15.6708 23.6666 15.6708C23.4825 15.6708 23.3333 15.5215 23.3333 15.3374C23.3333 15.1533 23.4825 15.0041 23.6666 15.0041C23.8507 15.0041 24 15.1533 24 15.3374Z" fill="#E6A809"/>
<path d="M21 16.3374C21 16.5215 20.8507 16.6708 20.6666 16.6708C20.4825 16.6708 20.3333 16.5215 20.3333 16.3374C20.3333 16.1533 20.4825 16.0041 20.6666 16.0041C20.8507 16.0041 21 16.1533 21 16.3374Z" fill="#E6A809"/>
<path d="M24.3334 13.6708C24.3334 13.8549 24.1841 14.0041 24 14.0041C23.8159 14.0041 23.6667 13.8549 23.6667 13.6708C23.6667 13.4867 23.8159 13.3375 24 13.3375C24.1841 13.3375 24.3334 13.4867 24.3334 13.6708Z" fill="#E6A809"/>
<path d="M19.3334 17.0041C19.3334 17.1882 19.1841 17.3374 19 17.3374C18.8159 17.3374 18.6667 17.1882 18.6667 17.0041C18.6667 16.82 18.8159 16.6708 19 16.6708C19.1841 16.6708 19.3334 16.82 19.3334 17.0041Z" fill="#E6A809"/>
<path d="M20.6667 19.0041C20.6667 19.1882 20.5174 19.3374 20.3333 19.3374C20.1492 19.3374 20 19.1882 20 19.0041C20 18.82 20.1492 18.6708 20.3333 18.6708C20.5174 18.6708 20.6667 18.82 20.6667 19.0041Z" fill="#E6A809"/>
<path d="M22.6667 17.6708C22.6667 17.8549 22.5174 18.0041 22.3333 18.0041C22.1492 18.0041 22 17.8549 22 17.6708C22 17.4867 22.1492 17.3375 22.3333 17.3375C22.5174 17.3375 22.6667 17.4867 22.6667 17.6708Z" fill="#E6A809"/>
<path d="M22 16.3374C22 16.5215 21.8507 16.6708 21.6666 16.6708C21.4825 16.6708 21.3333 16.5215 21.3333 16.3374C21.3333 16.1533 21.4825 16.0041 21.6666 16.0041C21.8507 16.0041 22 16.1533 22 16.3374Z" fill="#E6A809"/>
<path d="M23.3333 16.1708C23.3333 16.2628 23.2587 16.3374 23.1667 16.3374C23.0746 16.3374 23 16.2628 23 16.1708C23 16.0787 23.0746 16.0041 23.1667 16.0041C23.2587 16.0041 23.3333 16.0787 23.3333 16.1708Z" fill="#E6A809"/>
<path d="M23 14.8374C23 14.9295 22.9254 15.0041 22.8334 15.0041C22.7413 15.0041 22.6667 14.9295 22.6667 14.8374C22.6667 14.7454 22.7413 14.6708 22.8334 14.6708C22.9254 14.6708 23 14.7454 23 14.8374Z" fill="#E6A809"/>
<path d="M22 15.1708C22 15.2628 21.9254 15.3374 21.8334 15.3374C21.7413 15.3374 21.6667 15.2628 21.6667 15.1708C21.6667 15.0787 21.7413 15.0041 21.8334 15.0041C21.9254 15.0041 22 15.0787 22 15.1708Z" fill="#E6A809"/>
<path d="M23 13.8374C23 13.9295 22.9254 14.0041 22.8334 14.0041C22.7413 14.0041 22.6667 13.9295 22.6667 13.8374C22.6667 13.7454 22.7413 13.6708 22.8334 13.6708C22.9254 13.6708 23 13.7454 23 13.8374Z" fill="#E6A809"/>
<path d="M21 15.1708C21 15.2628 20.9254 15.3374 20.8334 15.3374C20.7413 15.3374 20.6667 15.2628 20.6667 15.1708C20.6667 15.0787 20.7413 15.0041 20.8334 15.0041C20.9254 15.0041 21 15.0787 21 15.1708Z" fill="#E6A809"/>
<path d="M15.6666 18.8374C15.6666 18.9295 15.592 19.0041 15.5 19.0041C15.4079 19.0041 15.3333 18.9295 15.3333 18.8374C15.3333 18.7454 15.4079 18.6708 15.5 18.6708C15.592 18.6708 15.6666 18.7454 15.6666 18.8374Z" fill="#E6A809"/>
<path d="M22.6666 16.5041C22.6666 16.5962 22.592 16.6708 22.5 16.6708C22.4079 16.6708 22.3333 16.5962 22.3333 16.5041C22.3333 16.4121 22.4079 16.3375 22.5 16.3375C22.592 16.3375 22.6666 16.4121 22.6666 16.5041Z" fill="#E6A809"/>
<path d="M21.6666 18.5041C21.6666 18.5962 21.592 18.6708 21.5 18.6708C21.4079 18.6708 21.3333 18.5962 21.3333 18.5041C21.3333 18.4121 21.4079 18.3375 21.5 18.3375C21.592 18.3375 21.6666 18.4121 21.6666 18.5041Z" fill="#E6A809"/>
<path d="M20 17.8374C20 17.9295 19.9254 18.0041 19.8334 18.0041C19.7413 18.0041 19.6667 17.9295 19.6667 17.8374C19.6667 17.7454 19.7413 17.6708 19.8334 17.6708C19.9254 17.6708 20 17.7454 20 17.8374Z" fill="#E6A809"/>
<path d="M18.3333 17.8374C18.3333 17.9295 18.2587 18.0041 18.1667 18.0041C18.0746 18.0041 18 17.9295 18 17.8374C18 17.7454 18.0746 17.6708 18.1667 17.6708C18.2587 17.6708 18.3333 17.7454 18.3333 17.8374Z" fill="#E6A809"/>
<path d="M17 20.1708C17 20.2628 16.9254 20.3374 16.8334 20.3374C16.7413 20.3374 16.6667 20.2628 16.6667 20.1708C16.6667 20.0787 16.7413 20.0041 16.8334 20.0041C16.9254 20.0041 17 20.0787 17 20.1708Z" fill="#E6A809"/>
<path fill-rule="evenodd" clip-rule="evenodd" d="M5.46487 6.68842C5.5472 6.85309 5.48043 7.05332 5.3158 7.13566C5.0111 7.28796 4.60067 7.55052 4.26667 7.99582C3.93613 8.43652 3.66667 9.07426 3.66667 10.0042C3.66667 10.1883 3.51743 10.3375 3.33333 10.3375C3.14924 10.3375 3 10.1883 3 10.0042C3 8.93406 3.31386 8.15512 3.73333 7.59582C4.14937 7.04112 4.65563 6.72036 5.01767 6.53936C5.18233 6.45702 5.38253 6.52376 5.46487 6.68842Z" fill="#FFD953"/>
<path d="M12.6667 11.8708L14.75 11.4486L15.375 10.393L16 9.33746L17.25 11.4486L19.3334 11.8708L17.6667 13.5597L18.0834 15.6708L16 14.6152L13.9167 15.6708L14.3334 13.5597L12.6667 11.8708Z" fill="#FFEBA6"/>
<path fill-rule="evenodd" clip-rule="evenodd" d="M14.75 11.4485L16 9.33744L17.25 11.4485L19.3333 11.8708L17.6667 13.5597L18.0833 15.6708L16 14.6152L13.9167 15.6708L14.3333 13.5597L12.6667 11.8708L14.75 11.4485ZM13.611 13.7768L12.1922 12.339C12.0202 12.1648 11.9576 11.9104 12.029 11.6763C12.1004 11.4422 12.2944 11.266 12.5343 11.2174L14.3273 10.854L15.4264 8.99778C15.5464 8.79508 15.7645 8.67078 16 8.67078C16.2356 8.67078 16.4537 8.79508 16.5737 8.99778L17.6727 10.854L19.4658 11.2174C19.7057 11.266 19.8996 11.4422 19.971 11.6763C20.0424 11.9104 19.9798 12.1648 19.8079 12.339L18.3891 13.7768L18.7374 15.5417C18.7868 15.7918 18.6892 16.0482 18.4859 16.2022C18.2827 16.3561 18.0095 16.3807 17.782 16.2655L16 15.3626L14.218 16.2655C13.9906 16.3807 13.7173 16.3561 13.5141 16.2022C13.3109 16.0482 13.2133 15.7918 13.2626 15.5417L13.611 13.7768Z" fill="#F5B40C"/>
<path fill-rule="evenodd" clip-rule="evenodd" d="M16.1491 10.3727C16.3138 10.4551 16.3805 10.6553 16.2982 10.8199L15.6315 12.1533C15.5809 12.2544 15.4826 12.323 15.3702 12.3355L13.8702 12.5022C13.6872 12.5225 13.5224 12.3907 13.5021 12.2077C13.4817 12.0247 13.6136 11.8599 13.7966 11.8396L15.1163 11.6929L15.7019 10.5218C15.7842 10.3571 15.9844 10.2904 16.1491 10.3727Z" fill="white"/>
</svg>
