<svg width="17" height="22" viewBox="0 0 17 22" fill="none" xmlns="http://www.w3.org/2000/svg">
<path d="M7.34 9.685C8.72312 7.99075 10 4.5 10 4.5C10 4.5 11.4384 7.97317 12.87 9.685C14.2476 11.3322 17 13 17 13C17 13 14.2159 14.6679 12.87 16.2111C11.3292 17.9778 10 21.5 10 21.5C10 21.5 8.72829 17.9714 7.2 16.2111C5.84321 14.6483 3 13 3 13C3 13 5.93035 11.4117 7.34 9.685Z" fill="url(#paint0_linear_921_39462)"/>
<path d="M16.5282 12.9984C16.4911 13.0219 16.4513 13.0472 16.4092 13.0741C16.1248 13.2562 15.7315 13.515 15.2956 13.8226C14.4284 14.4345 13.3752 15.2514 12.6816 16.0468C11.8875 16.9573 11.158 18.3058 10.6315 19.4105C10.3692 19.961 10.1546 20.4566 10.0049 20.8166C9.86073 20.4562 9.65402 19.9608 9.40008 19.4109C8.88951 18.3052 8.17745 16.9556 7.38878 16.0472C6.6886 15.2407 5.61659 14.4232 4.73318 13.8137C4.28899 13.5073 3.88775 13.2502 3.59748 13.0697C3.56153 13.0473 3.52727 13.0261 3.49484 13.0062C3.53026 12.9855 3.56782 12.9634 3.60736 12.9399C3.90727 12.7622 4.32187 12.5071 4.78117 12.1973C5.69463 11.5812 6.80482 10.7359 7.53366 9.8431C8.24721 8.96904 8.92323 7.64712 9.41633 6.56046C9.66433 6.01394 9.86867 5.52101 10.011 5.16465C10.0118 5.16275 10.0126 5.16085 10.0133 5.15896C10.0151 5.16305 10.017 5.16716 10.0188 5.1713C10.1771 5.52603 10.4031 6.01695 10.6743 6.56194C11.2139 7.6463 11.9422 8.96532 12.6782 9.84538C13.3876 10.6937 14.4409 11.5371 15.305 12.1627C15.7392 12.4771 16.1298 12.7394 16.412 12.9232C16.4531 12.9499 16.4919 12.975 16.5282 12.9984Z" stroke="#757575" stroke-opacity="0.45" stroke-width="0.5"/>
<path d="M4.14 9.365C3.54723 10.0626 3 11.5 3 11.5C3 11.5 2.38355 10.0699 1.77 9.365C1.17961 8.68673 0 8 0 8C0 8 1.18777 7.25893 1.77 6.6C2.4008 5.88611 3 4.5 3 4.5C3 4.5 3.5263 5.89382 4.14 6.6C4.73475 7.28438 6 8 6 8C6 8 4.74413 8.65399 4.14 9.365Z" fill="url(#paint1_linear_921_39462)"/>
<path d="M2.98751 10.8807C2.94228 10.7883 2.89181 10.6875 2.83707 10.5819C2.60508 10.1339 2.28626 9.57733 1.95857 9.20086C1.64227 8.83748 1.1787 8.48191 0.80636 8.22292C0.68133 8.13595 0.564669 8.05856 0.464555 7.99395C0.566286 7.9249 0.68547 7.84211 0.813256 7.74961C1.18552 7.48013 1.64695 7.11681 1.95734 6.76554C2.29374 6.38483 2.61264 5.83733 2.84293 5.39845C2.89518 5.29885 2.94338 5.20387 2.98672 5.11643C3.02508 5.20239 3.06777 5.29543 3.11421 5.3928C3.32417 5.83303 3.62102 6.38394 3.9513 6.76399C4.27127 7.13217 4.75926 7.4972 5.15289 7.76367C5.28054 7.85008 5.40035 7.9275 5.50427 7.99285C5.40224 8.05348 5.28523 8.12531 5.1606 8.20607C4.76669 8.46131 4.27615 8.81867 3.94949 9.20312C3.63027 9.57881 3.33371 10.1384 3.12166 10.5873C3.07277 10.6909 3.02781 10.7897 2.98751 10.8807Z" stroke="#757575" stroke-opacity="0.45" stroke-width="0.5"/>
<path d="M6.93 1.72C7.22638 1.32135 7.5 0.5 7.5 0.5C7.5 0.5 7.80823 1.31722 8.115 1.72C8.4102 2.10759 9 2.5 9 2.5C9 2.5 8.40612 2.92347 8.115 3.3C7.7996 3.70794 7.5 4.5 7.5 4.5C7.5 4.5 7.23685 3.70353 6.93 3.3C6.63262 2.90893 6 2.5 6 2.5C6 2.5 6.62793 2.12629 6.93 1.72Z" fill="url(#paint2_linear_921_39462)"/>
<path d="M6.44168 2.50619C6.46083 2.49242 6.48047 2.4781 6.50051 2.46327C6.70043 2.31521 6.95708 2.10259 7.13063 1.86916C7.27604 1.67358 7.40956 1.40026 7.51165 1.16383C7.62292 1.40071 7.76632 1.6748 7.91612 1.87148C8.08305 2.09066 8.32415 2.30121 8.51263 2.45104C8.5364 2.46994 8.55957 2.48805 8.58193 2.5053C8.55793 2.52462 8.53296 2.54495 8.50731 2.56618C8.31952 2.72153 8.08047 2.93594 7.91722 3.14708C7.76518 3.34374 7.62262 3.6105 7.51221 3.8415C7.41095 3.61071 7.27784 3.34441 7.129 3.14868C6.95958 2.92587 6.70536 2.7095 6.50646 2.55561C6.48435 2.53851 6.4627 2.52201 6.44168 2.50619Z" stroke="#757575" stroke-opacity="0.45" stroke-width="0.5"/>
<defs>
<linearGradient id="paint0_linear_921_39462" x1="17" y1="21.5" x2="-0.0850924" y2="17.4205" gradientUnits="userSpaceOnUse">
<stop stop-color="#00F5A0"/>
<stop offset="1" stop-color="#00D9F5"/>
</linearGradient>
<linearGradient id="paint1_linear_921_39462" x1="-1.78814e-07" y1="4.5" x2="7.28943" y2="6.31157" gradientUnits="userSpaceOnUse">
<stop stop-color="#00F5A0"/>
<stop offset="1" stop-color="#00D9F5"/>
</linearGradient>
<linearGradient id="paint2_linear_921_39462" x1="9" y1="4.5" x2="5.30491" y2="3.69648" gradientUnits="userSpaceOnUse">
<stop stop-color="#00F5A0"/>
<stop offset="1" stop-color="#00D9F5"/>
</linearGradient>
</defs>
</svg>
