<svg width="186" height="54" viewBox="0 0 186 54" fill="none" xmlns="http://www.w3.org/2000/svg">
<path d="M185.674 7.95508V28.4422H179.335V7.95508H185.674Z" fill="#292B2F"/>
<path d="M177.597 28.4421H153.772L157.599 23.1749H162.744C163.969 23.1749 165.408 23.1749 166.388 23.2361C165.837 22.5012 164.98 21.2456 164.306 20.2657L160.631 14.8453L151.015 28.4421H143.513L156.65 9.91492C157.508 8.72061 158.763 7.61816 160.754 7.61816C162.652 7.61816 163.908 8.62874 164.796 9.91492L177.597 28.4421Z" fill="#292B2F"/>
<path d="M135.624 25.839C135.624 23.9403 137.155 22.8379 139.054 22.8379C140.983 22.8379 142.514 23.9403 142.514 25.839C142.514 27.707 140.983 28.7788 139.054 28.7788C137.155 28.7788 135.624 27.707 135.624 25.839Z" fill="#292B2F"/>
<path d="M132.933 7.95508V28.4422H126.594V7.95508H132.933Z" fill="#292B2F"/>
<path d="M124.856 28.4421H101.031L104.859 23.1749H110.004C111.228 23.1749 112.668 23.1749 113.648 23.2361C113.096 22.5012 112.239 21.2456 111.565 20.2657L107.89 14.8453L98.2747 28.4421H90.772L103.909 9.91492C104.767 8.72061 106.022 7.61816 108.013 7.61816C109.912 7.61816 111.167 8.62874 112.055 9.91492L124.856 28.4421Z" fill="#292B2F"/>
<path d="M82.4084 21.6744L90.8911 28.4422H81.306L75.12 23.0525C73.007 21.215 72.0271 20.327 71.3227 19.6226C71.3534 20.572 71.4146 21.5825 71.4146 22.5625V28.4422H65.0449V7.95508H71.4146V12.7017C71.4146 13.9573 71.3534 15.2128 71.2921 16.2847C72.0883 15.5497 73.1908 14.5085 75.0588 12.9467L80.9691 7.95508H90.1562L82.3166 13.8348C79.5911 15.8866 78.3355 16.8053 77.0187 17.6015C78.1824 18.3977 79.7748 19.5308 82.4084 21.6744Z" fill="#292B2F"/>
<path d="M181.542 50.7653H179.941V45.6206H178.694V44.2819H179.941V42.2607H181.542V44.2819H182.802V45.6206H181.542V50.7653Z" fill="#AD83FF"/>
<path d="M173.472 50.7643H171.871V44.2808H173.354L173.485 45.1208C173.892 44.4646 174.679 44.084 175.559 44.084C177.186 44.084 178.026 45.0946 178.026 46.7745V50.7643H176.425V47.1551C176.425 46.0658 175.887 45.5408 175.06 45.5408C174.075 45.5408 173.472 46.2233 173.472 47.2732V50.7643Z" fill="#AD83FF"/>
<path d="M166.872 50.9349C165.494 50.9349 164.654 50.1343 164.654 48.9137C164.654 47.7194 165.52 46.9713 167.056 46.8532L168.998 46.7089V46.5645C168.998 45.6852 168.473 45.3308 167.659 45.3308C166.714 45.3308 166.189 45.7245 166.189 46.407H164.824C164.824 45.0027 165.979 44.084 167.738 44.084C169.484 44.084 170.56 45.0289 170.56 46.827V50.7643H169.155L169.037 49.8062C168.762 50.4755 167.882 50.9349 166.872 50.9349ZM167.397 49.7275C168.381 49.7275 169.011 49.1369 169.011 48.1394V47.7982L167.659 47.9032C166.662 47.995 166.281 48.3231 166.281 48.8481C166.281 49.4387 166.675 49.7275 167.397 49.7275Z" fill="#AD83FF"/>
<path d="M162.988 50.7653H161.387V45.6206H160.14V44.2819H161.387V42.2607H162.988V44.2819H164.248V45.6206H162.988V50.7653Z" fill="#AD83FF"/>
<path d="M154.472 48.7956H155.995C156.008 49.36 156.428 49.7143 157.163 49.7143C157.911 49.7143 158.318 49.4125 158.318 48.94C158.318 48.6119 158.147 48.3756 157.57 48.2444L156.401 47.9688C155.233 47.7063 154.669 47.1551 154.669 46.1183C154.669 44.8452 155.745 44.084 157.241 44.084C158.698 44.084 159.683 44.9239 159.696 46.1839H158.173C158.16 45.6327 157.793 45.2783 157.176 45.2783C156.546 45.2783 156.178 45.567 156.178 46.0526C156.178 46.4201 156.467 46.6564 157.018 46.7876L158.186 47.0632C159.276 47.3126 159.827 47.8113 159.827 48.8087C159.827 50.1212 158.711 50.9349 157.11 50.9349C155.496 50.9349 154.472 50.0687 154.472 48.7956Z" fill="#AD83FF"/>
<path d="M152.778 42.981C152.227 42.981 151.794 42.5479 151.794 42.0098C151.794 41.4717 152.227 41.0518 152.778 41.0518C153.303 41.0518 153.736 41.4717 153.736 42.0098C153.736 42.5479 153.303 42.981 152.778 42.981ZM151.978 50.7638V44.2803H153.579V50.7638H151.978Z" fill="#AD83FF"/>
<path d="M145.667 48.7956H147.189C147.202 49.36 147.622 49.7143 148.357 49.7143C149.105 49.7143 149.512 49.4125 149.512 48.94C149.512 48.6119 149.341 48.3756 148.764 48.2444L147.596 47.9688C146.428 47.7063 145.863 47.1551 145.863 46.1183C145.863 44.8452 146.94 44.084 148.436 44.084C149.893 44.084 150.877 44.9239 150.89 46.1839H149.368C149.354 45.6327 148.987 45.2783 148.37 45.2783C147.74 45.2783 147.373 45.567 147.373 46.0526C147.373 46.4201 147.661 46.6564 148.213 46.7876L149.381 47.0632C150.47 47.3126 151.021 47.8113 151.021 48.8087C151.021 50.1212 149.906 50.9349 148.305 50.9349C146.69 50.9349 145.667 50.0687 145.667 48.7956Z" fill="#AD83FF"/>
<path d="M139.854 48.7956H141.376C141.39 49.36 141.81 49.7143 142.544 49.7143C143.293 49.7143 143.699 49.4125 143.699 48.94C143.699 48.6119 143.529 48.3756 142.951 48.2444L141.783 47.9688C140.615 47.7063 140.051 47.1551 140.051 46.1183C140.051 44.8452 141.127 44.084 142.623 44.084C144.08 44.084 145.064 44.9239 145.077 46.1839H143.555C143.542 45.6327 143.174 45.2783 142.558 45.2783C141.928 45.2783 141.56 45.567 141.56 46.0526C141.56 46.4201 141.849 46.6564 142.4 46.7876L143.568 47.0632C144.658 47.3126 145.209 47.8113 145.209 48.8087C145.209 50.1212 144.093 50.9349 142.492 50.9349C140.878 50.9349 139.854 50.0687 139.854 48.7956Z" fill="#AD83FF"/>
<path d="M135.354 50.9349C133.976 50.9349 133.136 50.1343 133.136 48.9137C133.136 47.7194 134.002 46.9713 135.538 46.8532L137.48 46.7089V46.5645C137.48 45.6852 136.955 45.3308 136.142 45.3308C135.197 45.3308 134.672 45.7245 134.672 46.407H133.307C133.307 45.0027 134.462 44.084 136.22 44.084C137.966 44.084 139.042 45.0289 139.042 46.827V50.7643H137.638L137.52 49.8062C137.244 50.4755 136.365 50.9349 135.354 50.9349ZM135.879 49.7275C136.864 49.7275 137.494 49.1369 137.494 48.1394V47.7982L136.142 47.9032C135.144 47.995 134.764 48.3231 134.764 48.8481C134.764 49.4387 135.157 49.7275 135.879 49.7275Z" fill="#AD83FF"/>
<path d="M121.983 47.3786C121.983 45.4887 123.217 44.0713 125.068 44.0713C126.039 44.0713 126.8 44.4781 127.181 45.1737L127.273 44.2813H128.756V50.4366C128.756 52.6021 127.456 53.9539 125.356 53.9539C123.493 53.9539 122.22 52.8909 122.023 51.1584H123.624C123.729 51.9984 124.372 52.4971 125.356 52.4971C126.459 52.4971 127.168 51.8015 127.168 50.7253V49.6491C126.761 50.2529 125.96 50.6335 125.028 50.6335C123.191 50.6335 121.983 49.2554 121.983 47.3786ZM123.598 47.3393C123.598 48.4286 124.293 49.2423 125.343 49.2423C126.446 49.2423 127.128 48.4679 127.128 47.3393C127.128 46.2368 126.459 45.4756 125.343 45.4756C124.28 45.4756 123.598 46.2762 123.598 47.3393Z" fill="#AD83FF"/>
<path d="M116.486 50.7643H114.885V44.2808H116.368L116.499 45.1208C116.906 44.4646 117.693 44.084 118.573 44.084C120.2 44.084 121.04 45.0946 121.04 46.7745V50.7643H119.439V47.1551C119.439 46.0658 118.901 45.5408 118.074 45.5408C117.09 45.5408 116.486 46.2233 116.486 47.2732V50.7643Z" fill="#AD83FF"/>
<path d="M112.692 42.981C112.141 42.981 111.708 42.5479 111.708 42.0098C111.708 41.4717 112.141 41.0518 112.692 41.0518C113.217 41.0518 113.65 41.4717 113.65 42.0098C113.65 42.5479 113.217 42.981 112.692 42.981ZM111.892 50.7638V44.2803H113.493V50.7638H111.892Z" fill="#AD83FF"/>
<path d="M106.027 50.7645H104.426V41H106.04V45.121C106.447 44.4911 107.208 44.0842 108.14 44.0842C109.741 44.0842 110.581 45.0948 110.581 46.7747V50.7645H108.98V47.1553C108.98 46.066 108.442 45.541 107.628 45.541C106.618 45.541 106.027 46.2497 106.027 47.2209V50.7645Z" fill="#AD83FF"/>
<path d="M97.0918 47.5094C97.0918 45.5014 98.4174 44.084 100.334 44.084C102.105 44.084 103.313 45.0683 103.483 46.6301H101.882C101.698 45.8951 101.16 45.5145 100.399 45.5145C99.3754 45.5145 98.693 46.2889 98.693 47.5094C98.693 48.73 99.3229 49.4912 100.347 49.4912C101.147 49.4912 101.712 49.0975 101.882 48.3888H103.496C103.3 49.8981 102.04 50.9349 100.347 50.9349C98.378 50.9349 97.0918 49.57 97.0918 47.5094Z" fill="#AD83FF"/>
<path d="M92.4739 50.9349C91.0958 50.9349 90.2559 50.1343 90.2559 48.9137C90.2559 47.7194 91.1221 46.9713 92.6576 46.8532L94.6 46.7089V46.5645C94.6 45.6852 94.075 45.3308 93.2613 45.3308C92.3164 45.3308 91.7914 45.7245 91.7914 46.407H90.4265C90.4265 45.0027 91.5814 44.084 93.3401 44.084C95.0856 44.084 96.1618 45.0289 96.1618 46.827V50.7643H94.7575L94.6394 49.8062C94.3638 50.4755 93.4844 50.9349 92.4739 50.9349ZM92.9988 49.7275C93.9832 49.7275 94.6131 49.1369 94.6131 48.1394V47.7982L93.2613 47.9032C92.2639 47.995 91.8833 48.3231 91.8833 48.8481C91.8833 49.4387 92.277 49.7275 92.9988 49.7275Z" fill="#AD83FF"/>
<path d="M86.4661 50.9349C84.5369 50.9349 83.1851 49.5306 83.1851 47.5226C83.1851 45.4883 84.5106 44.084 86.4136 44.084C88.3561 44.084 89.5897 45.3833 89.5897 47.4044V47.89L84.7075 47.9032C84.8256 49.045 85.4293 49.6225 86.4924 49.6225C87.3717 49.6225 87.9492 49.2812 88.1329 48.6644H89.616C89.3404 50.0818 88.1592 50.9349 86.4661 50.9349ZM86.4268 45.3964C85.4818 45.3964 84.9043 45.9083 84.7469 46.8795H88.0017C88.0017 45.987 87.3849 45.3964 86.4268 45.3964Z" fill="#AD83FF"/>
<path d="M81.637 50.7653H80.0359V45.6206H78.7891V44.2819H80.0359V42.2607H81.637V44.2819H82.897V45.6206H81.637V50.7653Z" fill="#AD83FF"/>
<path d="M74.5295 41.1699V50.7638H72.8496V41.1699H74.5295Z" fill="#AD83FF"/>
<path d="M65.0053 50.7638H63.2598L66.7246 41.1699H68.4439L71.9087 50.7638H70.1369L69.3626 48.5458H65.7796L65.0053 50.7638ZM67.3677 44.031L66.2784 47.1284H68.877L67.7745 44.031C67.6958 43.7817 67.6039 43.4929 67.5777 43.2961C67.5383 43.4798 67.4596 43.7685 67.3677 44.031Z" fill="#AD83FF"/>
<path d="M18.7519 0L20.6808 7.07404C21.9751 11.8206 25.6832 15.5287 30.4298 16.823L37.5038 18.7519L30.4298 20.6808C25.6832 21.9751 21.9751 25.6832 20.6808 30.4298L18.7519 37.5038L16.823 30.4298C15.5287 25.6832 11.8206 21.9751 7.07404 20.6808L0 18.7519L7.07404 16.823C11.8206 15.5287 15.5287 11.8206 16.823 7.07404L18.7519 0Z" fill="url(#paint0_linear_1_1040)"/>
<path d="M37.5036 32.0156L39.1591 38.0871C39.5906 39.6693 40.8266 40.9054 42.4088 41.3368L48.4803 42.9923L42.4088 44.6479C40.8266 45.0793 39.5906 46.3154 39.1591 47.8976L37.5036 53.9691L35.848 47.8976C35.4166 46.3154 34.1806 45.0793 32.5984 44.6479L26.5269 42.9923L32.5984 41.3368C34.1806 40.9054 35.4166 39.6693 35.848 38.0871L37.5036 32.0156Z" fill="url(#paint1_linear_1_1040)"/>
<defs>
<linearGradient id="paint0_linear_1_1040" x1="18.7519" y1="0" x2="18.7519" y2="37.5038" gradientUnits="userSpaceOnUse">
<stop stop-color="#5540D8"/>
<stop offset="1" stop-color="#CAC2FF"/>
</linearGradient>
<linearGradient id="paint1_linear_1_1040" x1="37.5036" y1="32.0156" x2="37.5036" y2="53.9691" gradientUnits="userSpaceOnUse">
<stop stop-color="#8340D8"/>
<stop offset="1" stop-color="#7A64FF"/>
</linearGradient>
</defs>
</svg>
