<svg width="62px" height="62px" viewBox="0 0 106 106" fill="none" xmlns="http://www.w3.org/2000/svg">
<g filter="url(#filter0_d_1338_1421)">
<circle cx="53" cy="49" r="23" fill="#9E86FF"/>
</g>
<path d="M48.973 50.7485L53.0484 54H48.4433L45.4714 51.4106C44.4562 50.5278 43.9854 50.1011 43.647 49.7628C43.6617 50.2189 43.6911 50.7044 43.6911 51.1752V54H40.6309V44.1572H43.6911V46.4377C43.6911 47.0409 43.6617 47.6441 43.6323 48.1591C44.0148 47.806 44.5445 47.3057 45.442 46.5554L48.2815 44.1572H52.6953L48.9289 46.9821C47.6194 47.9678 47.0162 48.4092 46.3836 48.7917C46.9426 49.1743 47.7077 49.7186 48.973 50.7485Z" fill="white"/>
<path d="M63.6133 52H55.8333L57.0833 50.28H58.7633C59.1633 50.28 59.6333 50.28 59.9533 50.3C59.7733 50.06 59.4933 49.65 59.2733 49.33L58.0733 47.56L54.9333 52H52.4833L56.7733 45.95C57.0533 45.56 57.4633 45.2 58.1133 45.2C58.7333 45.2 59.1433 45.53 59.4333 45.95L63.6133 52ZM67.4509 45.31V52H65.3809V45.31H67.4509Z" fill="white"/>
<defs>
<filter id="filter0_d_1338_1421" x="0" y="0" width="106" height="106" filterUnits="userSpaceOnUse" color-interpolation-filters="sRGB">
<feFlood flood-opacity="0" result="BackgroundImageFix"/>
<feColorMatrix in="SourceAlpha" type="matrix" values="0 0 0 0 0 0 0 0 0 0 0 0 0 0 0 0 0 0 127 0" result="hardAlpha"/>
<feOffset dy="4"/>
<feGaussianBlur stdDeviation="15"/>
<feComposite in2="hardAlpha" operator="out"/>
<feColorMatrix type="matrix" values="0 0 0 0 0 0 0 0 0 0 0 0 0 0 0 0 0 0 0.25 0"/>
<feBlend mode="normal" in2="BackgroundImageFix" result="effect1_dropShadow_1338_1421"/>
<feBlend mode="normal" in="SourceGraphic" in2="effect1_dropShadow_1338_1421" result="shape"/>
</filter>
</defs>
</svg>
