<svg width="30" height="30" viewBox="0 0 30 30" fill="none" xmlns="http://www.w3.org/2000/svg">
<rect x="0.326172" width="29.6739" height="30" rx="6" fill="#24272F"/>
<path d="M18.9366 23.1562C18.9366 23.38 18.8477 23.5946 18.6895 23.7529C18.5313 23.9111 18.3167 24 18.0929 24H10.1387C9.39301 23.9992 8.67812 23.7026 8.15086 23.1753C7.62359 22.648 7.32701 21.9332 7.32617 21.1875V8.8125C7.32701 8.06684 7.62359 7.35195 8.15086 6.82469C8.67812 6.29742 9.39301 6.00084 10.1387 6H18.0929C18.3167 6 18.5313 6.08889 18.6895 6.24713C18.8477 6.40536 18.9366 6.61997 18.9366 6.84375C18.9366 7.06753 18.8477 7.28214 18.6895 7.44037C18.5313 7.59861 18.3167 7.6875 18.0929 7.6875H10.1387C9.8404 7.68783 9.55444 7.80646 9.34354 8.01736C9.13263 8.22827 9.014 8.51423 9.01367 8.8125V21.1875C9.01399 21.4858 9.13262 21.7717 9.34353 21.9826C9.55444 22.1936 9.8404 22.3122 10.1387 22.3125H18.0929C18.3167 22.3125 18.5313 22.4014 18.6895 22.5596C18.8477 22.7179 18.9366 22.9325 18.9366 23.1562ZM22.7529 14.4034L18.7433 10.3938C18.6653 10.314 18.5722 10.2505 18.4695 10.2069C18.3667 10.1633 18.2564 10.1406 18.1448 10.14C18.0332 10.1393 17.9226 10.1609 17.8194 10.2033C17.7161 10.2457 17.6224 10.3082 17.5435 10.3871C17.4646 10.466 17.4021 10.5598 17.3597 10.663C17.3173 10.7663 17.2957 10.8769 17.2964 10.9885C17.297 11.1001 17.3198 11.2104 17.3633 11.3132C17.4069 11.4159 17.4704 11.509 17.5502 11.587L20.1194 14.1562H13.4771C13.2533 14.1562 13.0387 14.2451 12.8805 14.4034C12.7222 14.5616 12.6333 14.7762 12.6333 15C12.6333 15.2238 12.7222 15.4384 12.8805 15.5966C13.0387 15.7549 13.2533 15.8438 13.4771 15.8438H20.1193L17.5501 18.413C17.4714 18.4912 17.4089 18.5843 17.3662 18.6867C17.3235 18.7892 17.3015 18.8991 17.3013 19.0101C17.3012 19.1211 17.3229 19.231 17.3654 19.3336C17.4078 19.4361 17.47 19.5293 17.5485 19.6078C17.627 19.6863 17.7202 19.7485 17.8227 19.791C17.9253 19.8334 18.0352 19.8551 18.1462 19.855C18.2572 19.8548 18.3671 19.8328 18.4696 19.7901C18.572 19.7474 18.6651 19.6849 18.7433 19.6062L22.7529 15.5966C22.9112 15.4384 23.0001 15.2238 23.0001 15C23.0001 14.7762 22.9112 14.5616 22.7529 14.4034Z" fill="#9E94A5"/>
</svg>
