<svg width="85" height="74" viewBox="0 0 85 74" fill="none" xmlns="http://www.w3.org/2000/svg">
<path d="M0.915588 28.098C1.91364 26.4578 3.67016 25.4692 5.09399 24.1832C6.53372 22.8824 7.6578 21.2331 8.3436 19.4152C9.05665 17.5255 9.33483 15.4047 10.5986 13.8316C11.5546 12.6425 12.8456 11.9898 14.249 11.5604C15.8488 11.0706 17.594 10.8702 19.1518 10.4966C20.7686 10.1081 22.054 9.30057 23.5732 8.73675C25.4966 8.02258 27.2077 8.67866 29.1334 9.00101C29.1924 9.01126 29.2526 9.01923 29.3139 9.02607C30.6753 9.19351 32.4216 8.77662 33.7432 8.52717C36.818 7.94854 39.4193 6.26163 42.4747 8.01119C43.5477 8.62513 44.5537 9.40878 45.747 9.72885C48.6299 10.5034 51.8829 8.40871 54.5762 9.69923C56.377 10.5615 57.2274 12.6345 58.7012 13.9854C60.2692 15.4217 62.4379 15.9548 64.3057 16.9685C66.1735 17.9823 67.9084 19.9517 67.4009 22.0213C67.0773 23.3414 65.9169 24.3221 65.549 25.6298C64.9552 27.7415 66.5641 29.7861 68.1026 31.3454C69.6411 32.9048 71.3601 34.7807 71.0343 36.9506C70.8867 37.929 70.3212 38.8209 70.2735 39.8096C70.1838 41.6252 71.845 43.3372 71.3102 45.073C70.9491 46.2417 69.7444 46.8807 68.7441 47.5812C66.3393 49.2647 67.7211 52.0075 66.1973 54.2445C65.2572 55.6262 63.4621 56.1866 62.4163 57.4897C61.6545 58.4385 61.3785 59.6481 61.2082 60.9056C60.9164 63.0664 60.938 65.3661 59.3404 66.7158C58.0971 67.766 56.3236 67.7968 54.7669 68.2638C51.003 69.3937 48.3585 73.1719 44.4935 73.8792C40.3026 74.6446 36.1458 71.5271 31.9413 72.2128C30.5561 72.4395 29.2356 73.075 27.831 73.0807C25.0458 73.0921 22.5694 70.6637 20.5268 69.0349C18.1935 67.1749 16.1122 66.496 13.1998 65.8217C10.7598 65.2567 8.03021 64.12 7.10256 61.5913C6.61092 60.2507 6.73696 58.8052 6.34069 57.435C5.89447 55.8904 5.07808 54.4507 3.96082 53.2957C3.07745 52.3822 1.99425 51.6111 1.42426 50.4732C0.405777 48.4412 1.20853 45.6893 1.39474 43.5433C1.63432 40.78 1.2426 38.4678 0.580643 35.7751C-0.0472565 33.218 -0.45034 30.3454 0.915588 28.098ZM9.71634 35.143C11.2651 37.7103 12.7423 40.7367 12.6707 43.811C12.6299 45.5811 11.9838 47.2702 11.5773 48.9936C11.1708 50.7158 11.03 52.6328 11.9191 54.1625C12.8626 55.7868 14.7508 56.6035 16.5744 57.034C18.399 57.4646 20.3111 57.6275 22.0085 58.4259C24.7676 59.7244 26.6774 62.58 29.6023 63.4388C31.8823 64.1086 34.3087 63.4252 36.6193 62.8682C38.3338 62.4547 40.1675 62.1039 41.924 62.4604C42.7733 62.6324 43.3933 63.014 44.2687 62.9559C44.9942 62.908 45.7107 62.7144 46.3795 62.4319C49.2044 61.2371 51.2062 58.4624 52.4461 55.7492C52.7334 55.1205 53.0093 54.4644 53.4975 53.9746C54.9656 52.503 57.5272 53.1852 59.3779 52.2433C60.8608 51.4881 61.5875 49.9276 61.9292 48.3842C62.2801 46.7975 63.4121 45.548 63.7891 43.9386C64.1535 42.3861 63.9242 40.6126 62.8399 39.4462C62.1154 38.6671 61.0334 38.158 60.6666 37.1579C60.2386 35.9961 60.9743 34.758 61.6715 33.7351C62.1779 32.9913 62.8092 32.0539 62.7638 31.1108C62.7184 30.1779 61.9974 29.4785 61.6249 28.6824C61.1605 27.6891 61.4592 26.5296 61.5738 25.4384C61.7601 23.6775 61.4126 21.8356 60.4418 20.3572C59.471 18.8787 57.8462 17.8057 56.0874 17.6702C54.4411 17.5426 52.7867 18.2055 51.1585 17.9344C48.5845 17.5073 46.8371 14.9103 44.305 14.2781C42.8608 13.9182 41.345 14.244 39.8927 14.5709C38.671 14.8454 36.8259 15.645 35.5951 15.4673C34.3575 15.2885 33.3197 13.9831 32.0764 13.6608C30.3312 13.2075 28.5123 14.1244 27.135 15.2908C25.7577 16.4571 24.6041 17.9071 23.0667 18.8525C21.4045 19.8731 19.4288 20.2205 17.6087 20.9187C14.4647 22.1238 11.7556 24.4372 10.0649 27.3565C9.77423 27.8588 9.52444 28.376 9.3246 28.9022C8.54229 30.9582 8.51618 33.1531 9.71634 35.143Z" fill="#E46831"/>
<path d="M14.398 26.3554C15.7503 23.5522 18.5196 21.4826 21.5853 20.986C24.5545 20.5053 27.6315 21.42 30.5836 20.8402C32.9669 20.372 35.0447 18.9744 37.2043 17.8593C39.3639 16.7431 41.8641 15.8774 44.1929 16.5699C47.6514 17.5974 49.6963 21.7389 53.2718 22.2139C54.2506 22.3437 55.2441 22.1729 56.2308 22.2013C57.2186 22.2298 58.2836 22.5146 58.8672 23.313C59.6291 24.3552 59.2885 25.8246 58.7775 27.0115C58.2666 28.1983 57.6001 29.4308 57.8124 30.7053C58.0758 32.292 59.6337 33.4379 59.8483 35.0325C60.0856 36.7935 58.6106 38.3688 58.5368 40.1445C58.4596 41.9875 59.8948 43.6026 59.9754 45.4456C60.081 47.8558 57.8283 49.7648 55.5268 50.4653C53.2253 51.1658 50.7489 51.069 48.4247 51.6909C46.2673 52.2684 44.1282 53.7184 43.6842 56.0283C43.4776 57.1024 43.137 57.4066 41.9379 57.5706C40.7787 57.7289 39.574 57.4852 38.4419 57.2494C36.3743 56.82 34.3986 56.2299 32.2765 56.0887C30.3531 55.9611 28.424 56.0488 26.4983 56.0249C24.4999 56.001 22.7275 55.6684 20.9585 54.7002C19.3065 53.7958 17.8418 52.511 16.7177 50.9984C15.6458 49.5564 14.8283 47.866 14.6285 46.0618C14.415 44.1323 15.1519 42.2893 15.3063 40.3803C15.5005 37.9849 14.6046 35.8002 13.9075 33.5825C13.4703 32.1941 13.3466 30.7053 13.5373 29.2599C13.6702 28.2541 13.9563 27.27 14.398 26.3554Z" fill="#FAEF7D"/>
<path d="M0.915482 28.0981C1.91353 26.4579 3.67004 25.4692 5.09388 24.1832C6.53361 22.8825 7.65769 21.2331 8.34349 19.4152C9.05654 17.5256 9.33472 15.4047 10.5985 13.8317C11.5545 12.6426 12.8455 11.9899 14.2489 11.5605C15.8487 11.0707 17.5939 10.8702 19.1517 10.4966C20.7685 10.1082 22.0539 9.30063 23.5731 8.7368C25.4965 8.02263 27.2076 8.67871 29.1333 9.00106C29.1923 9.01131 29.2525 9.01929 29.3138 9.02612C31.3247 8.01124 37.858 4.99394 47.2162 0.795467C47.9451 0.573356 49.4541 0.0607909 49.7244 0.763575C49.8186 1.00847 49.6403 1.73631 49.4598 2.40492C49.3202 2.9209 49.1782 3.40271 49.1589 3.60204C49.1021 4.15675 49.7516 4.10892 50.5771 3.84238C51.5104 3.54054 52.6685 2.95849 53.2817 2.65323C53.4213 2.58375 53.5315 2.52908 53.6064 2.49377C54.3308 2.15661 54.9757 1.86616 55.5276 1.66797C56.1248 1.45383 56.613 1.34904 56.9741 1.41168C58.1629 1.61671 57.4975 2.95735 57.9472 3.66925C58.8033 5.02584 60.8732 3.9597 61.9723 3.51206C62.7977 3.17605 63.8832 3.04506 64.5985 3.44258C64.8506 3.58268 65.0561 3.78771 65.189 4.07246C65.8657 5.52359 63.798 7.2834 64.6053 8.66619C65.1776 9.64803 66.6139 9.45782 67.7244 9.22545C69.3174 8.89286 71.0171 8.75389 72.5352 9.33822C74.0544 9.92254 75.3261 11.3942 75.2444 13.023C75.1388 15.1427 72.9054 16.8456 73.2051 18.946C73.3879 20.224 74.4995 21.1899 75.6917 21.6785C76.8828 22.1671 78.1863 22.297 79.4307 22.6296C81.9139 23.2937 84.3732 25.1343 84.606 27.7017C84.7559 29.3488 83.952 30.9525 82.8881 32.2168C81.8242 33.4812 80.4991 34.4938 79.3285 35.659C79.1991 35.7877 79.0719 35.9255 78.9493 36.0713C78.1431 37.0304 77.5538 38.3152 78.2419 39.2948C78.6541 39.8803 79.383 40.116 80.0734 40.3871C80.674 40.6229 81.2429 40.8849 81.5483 41.4282C81.8401 41.9476 81.7777 42.5912 81.5086 43.1333C81.4166 43.319 81.2996 43.4933 81.1657 43.6459C80.6365 44.2462 79.8837 44.5902 79.1412 44.8863C78.6473 45.0834 78.1261 45.2816 77.7786 45.6848C77.4312 46.088 77.3415 46.7714 77.7389 47.1268L77.8218 47.1917C78.7347 47.825 80.2675 46.121 81.1282 46.9161C81.4552 47.2179 81.4506 47.7601 81.2394 48.1531C81.0283 48.546 80.6604 48.8239 80.3027 49.0882C79.7339 49.5096 78.1272 50.2694 77.8229 50.9061C77.4528 51.6806 78.1522 51.4141 78.7063 51.97C70.4483 56.3723 64.703 59.3589 63.1713 60.0958C62.5275 60.4034 61.8724 60.6722 61.2093 60.9023C60.9175 63.063 60.939 65.3627 59.3415 66.7125C58.0982 67.7627 56.3246 67.7934 54.768 68.2604C51.004 69.3903 48.3596 73.1685 44.4945 73.8759C40.3037 74.6413 36.1469 71.5238 31.9423 72.2094C30.5571 72.4361 29.2366 73.0717 27.8321 73.0774C25.0468 73.0888 22.5705 70.6604 20.5278 69.0315C18.1945 67.1715 16.1133 66.4926 13.2009 65.8183C10.7608 65.2534 8.03124 64.1166 7.10359 61.588C6.61195 60.2473 6.73798 58.8019 6.34172 57.4316C5.89549 55.8871 5.07911 54.4474 3.96185 53.2924C3.07848 52.3789 1.99528 51.6077 1.42529 50.4698C0.406807 48.4378 1.20956 45.6859 1.39577 43.54C1.63535 40.7767 1.24361 38.4644 0.581657 35.7718C-0.0473709 33.2181 -0.450447 30.3454 0.915482 28.0981ZM3.46339 49.1372C3.91415 51.9722 7.13425 53.3106 9.00431 55.4839C11.3217 58.1766 11.7907 62.5049 14.9313 64.1553C16.4834 64.9709 18.3478 64.9037 19.9953 65.4994C21.7552 66.135 23.1791 67.4938 24.9276 68.159C27.7798 69.2457 30.959 68.339 34.0088 68.429C36.3898 68.4996 38.7061 69.1853 41.0655 69.5134C43.425 69.8414 45.9808 69.7685 47.9803 68.47C50.0888 67.102 51.2879 64.562 53.5144 63.3979C54.6976 62.7794 56.1066 62.5903 57.1512 61.7577C59.5504 59.8452 58.8033 55.6969 61.0038 53.5589C61.6464 52.9347 62.4889 52.544 63.1089 51.8971C64.7791 50.1521 64.5554 46.8773 66.6945 45.7611C67.57 45.3043 68.2592 45.6586 68.8394 44.7496C69.3526 43.9443 69.4752 42.8759 69.3503 41.9465C69.1698 40.6035 68.5237 39.3745 67.8686 38.1899C65.7544 34.3673 63.353 30.2896 63.8662 25.9487C63.9979 24.8336 64.3238 23.7447 64.3942 22.6239C64.4657 21.5031 64.2375 20.2889 63.4359 19.5041C62.4094 18.4995 60.7948 18.4835 59.4948 17.8741C57.0638 16.7351 56.0499 13.703 53.7574 12.3054C52.0622 11.2712 49.9197 11.2962 47.9792 11.7131C46.0387 12.13 44.1857 12.9 42.2362 13.269C36.9723 14.2634 31.9162 9.51932 26.6274 11.6766C24.6653 12.4774 23.1461 14.2361 21.0887 14.7395C19.4151 15.1496 17.5587 14.6734 15.9918 15.3933C15.2674 15.7259 14.6735 16.2875 14.1194 16.8627C12.4379 18.6088 10.9845 20.5736 9.80252 22.6922C9.26887 23.6479 8.79084 24.6332 8.373 25.6446C7.6554 27.3771 7.10245 29.1973 6.08965 30.7748C4.89404 32.6383 3.03647 34.2295 2.74352 36.4267C2.41198 38.9132 4.23207 41.2414 4.20142 43.7496C4.18098 45.572 3.17725 47.3364 3.46339 49.1372Z" fill="#DE3E2C"/>
<path d="M22.4921 23.3576C27.0327 22.1958 31.361 24.2825 32.1592 28.0174C32.9574 31.7523 29.9235 35.7229 25.3829 36.8847C20.8423 38.0466 16.514 35.9598 15.7158 32.225C14.9165 28.4901 17.9503 24.5194 22.4921 23.3576Z" fill="#F9D355"/>
<path d="M25.3832 36.8849C29.9238 35.7231 32.9577 31.7536 32.1595 28.0175C32.0493 27.5027 31.8722 27.0209 31.6372 26.5733L31.6315 26.5619L31.552 26.4172L31.5509 26.4149L31.4873 26.3056L31.468 26.2725L31.4089 26.178L31.3805 26.1336L31.3238 26.0482L31.2874 25.9958L31.2341 25.9183L31.1909 25.8579L31.1398 25.7885L31.0865 25.719L31.0422 25.662L30.94 25.5367L30.9286 25.5231L30.8185 25.3978L30.8117 25.3898L30.7538 25.3271L30.7311 25.3032L30.6368 25.2041L30.6039 25.1711L30.5256 25.0936L30.4779 25.0481L30.4291 25.0014L30.3507 24.9308L30.3053 24.8909L30.2247 24.8203L30.1838 24.7861L30.1089 24.7246L30.0771 24.6984L29.9794 24.6209L29.9442 24.5948L29.8409 24.5184L29.8125 24.4979L29.7013 24.4193L29.6842 24.4079L29.5764 24.335L29.5548 24.3214L29.4322 24.2428L29.4163 24.2325L29.2868 24.1539L29.2766 24.1483L29.1403 24.0697C29.7364 23.7633 30.3201 23.4204 30.9139 23.1129C32.1844 22.4568 33.656 21.9476 35.0253 22.3543C35.7281 22.5627 36.331 22.9899 36.9067 23.4717C37.1758 24.2143 37.8639 24.7747 38.7416 24.9991C39.2366 25.3385 39.7646 25.596 40.3664 25.6757C40.942 25.752 41.5268 25.6518 42.1081 25.6689C42.6895 25.6859 43.3162 25.8534 43.6591 26.3227C44.1076 26.9366 43.9067 27.8 43.6069 28.4994C43.5717 28.5814 43.5342 28.6645 43.4979 28.7477C43.1505 29.0609 42.9745 29.496 43.0698 29.9061C43.0153 30.1589 42.996 30.4141 43.0392 30.6738C43.1947 31.6078 44.111 32.2821 44.2371 33.2195C44.3767 34.256 43.5081 35.1821 43.465 36.2266C43.4196 37.3109 44.2632 38.2609 44.3109 39.3464C44.3733 40.7645 43.0483 41.8876 41.6937 42.2999C40.3391 42.7122 38.8824 42.6553 37.5153 43.0209C36.2459 43.3603 34.9878 44.2135 34.7267 45.5735C34.6052 46.2056 34.4053 46.3845 33.6991 46.4813C33.0167 46.5747 32.3082 46.4312 31.6417 46.2922C30.4245 46.0393 29.2618 45.6919 28.014 45.6088C26.882 45.5336 25.7477 45.5849 24.6145 45.5712C23.4382 45.5564 22.3959 45.3616 21.3547 44.791C20.3827 44.259 19.521 43.5027 18.859 42.612C18.2288 41.7634 17.7474 40.769 17.6293 39.7074C17.5033 38.5718 17.937 37.4875 18.0279 36.3644C18.0449 36.1514 18.0472 35.9418 18.0381 35.7345C19.8991 37.0888 22.6014 37.5968 25.3832 36.8849Z" fill="#FEF6B8"/>
<path d="M50.5762 3.84247C51.4618 3.45178 52.3633 3.0554 53.2808 2.65332C52.6665 2.95972 51.5095 3.54063 50.5762 3.84247Z" fill="#F59B1A"/>
<path d="M36.7898 22.9201C36.6887 21.5385 37.9752 20.2639 39.6636 20.0737C41.352 19.8835 42.803 20.8494 42.9041 22.231C43.0052 23.6127 41.7187 24.8873 40.0303 25.0775C38.3419 25.2677 36.8908 24.3018 36.7898 22.9201Z" fill="#F9D355"/>
<path d="M40.1348 21.1397C38.4464 21.3299 37.1588 22.6045 37.261 23.9861L37.2735 24.1035C37.1088 23.9053 36.9817 23.6832 36.8977 23.4428L36.892 23.4257L36.8795 23.3893L36.8625 23.3312L36.8602 23.3221L36.842 23.2515L36.8409 23.2469L36.8239 23.1695L36.8227 23.1615L36.8114 23.0954L36.808 23.0738L36.8 23.0191L36.7977 22.9975L36.7909 22.9223C36.6899 21.5406 37.9763 20.2661 39.6647 20.0758L39.743 20.0679L39.7544 20.0667L39.8203 20.061L39.8407 20.0599L39.8986 20.0565L39.9202 20.0553L39.9735 20.0531L40.0087 20.0519L40.0496 20.0508H40.0882H40.1257L40.1654 20.0519L40.2018 20.0531L40.237 20.0542L40.2767 20.0565L40.313 20.0588L40.3516 20.061L40.3868 20.0633L40.4254 20.0667L40.4606 20.0701L40.4981 20.0736L40.5344 20.0781L40.5731 20.0827L40.6071 20.0872L40.6423 20.0929L40.6809 20.0986L40.715 20.1043L40.7513 20.1112L40.7842 20.118L40.824 20.126L40.8535 20.1328L40.8921 20.1419L40.9239 20.1499L40.9591 20.159L40.992 20.1681L41.0284 20.1784L41.0568 20.1863L41.0965 20.1977L41.1237 20.2068L41.1612 20.2182L41.1907 20.2285L41.2271 20.241L41.2555 20.2513L41.2929 20.2649L41.3179 20.2752L41.3554 20.29L41.3792 20.3002L41.4201 20.3173L41.436 20.3242L41.4803 20.3435L41.4962 20.3515L41.5416 20.3731L41.5529 20.3788L41.6018 20.4027L41.6074 20.4062L41.6597 20.4335L41.6653 20.4369L41.7176 20.4654L41.721 20.4665L41.7823 20.503L41.8027 20.5155L41.8413 20.5394L41.8686 20.5565L41.9004 20.5782L41.9276 20.5964L41.9571 20.6169L41.9878 20.6397L42.0128 20.6579L42.0423 20.6807L42.0673 20.7L42.0957 20.724L42.1195 20.7433L42.149 20.7695L42.1695 20.7877L42.2001 20.8151L42.2183 20.8322L42.2501 20.8629L42.2649 20.8777L42.2966 20.9096L42.3114 20.9256L42.3421 20.9586L42.3557 20.9734L42.3875 21.0098L42.3966 21.0212L42.4295 21.0611L42.4363 21.0691L42.4715 21.1135L42.4738 21.1158L42.5112 21.1659L42.5498 21.2217L42.5635 21.2422L42.5873 21.2787L42.6043 21.306L42.6225 21.3356L42.6407 21.3664L42.6554 21.3926L42.6736 21.4267L42.685 21.4495L42.7043 21.4882L42.7145 21.5087L42.7327 21.5486L42.7406 21.5668L42.7599 21.6113L42.7633 21.6192C42.7985 21.7069 42.8269 21.7969 42.8496 21.8892L42.87 21.9826L42.8712 21.986L42.8825 22.0475V22.0509L42.8916 22.1136V22.1147C42.3125 21.4131 41.2793 21.011 40.1348 21.1397Z" fill="#FAB71D"/>
<path d="M54.1642 38.2408C56.0479 40.192 55.7073 43.7321 53.4046 46.148C51.102 48.5639 47.7082 48.9398 45.8245 46.9886C43.9408 45.0375 44.2803 41.4973 46.5841 39.0814C48.8879 36.6667 52.2806 36.2897 54.1642 38.2408Z" fill="#F9D355"/>
<path d="M51.3607 45.1391C53.6634 42.7232 54.0028 39.1831 52.1192 37.2319L51.9545 37.0713C52.5245 37.1772 53.0627 37.3902 53.5396 37.7148L53.5589 37.7274L53.6225 37.7718L53.6804 37.8151L53.7224 37.847L53.7701 37.8834L53.803 37.9096L53.8779 37.9723L53.9063 37.9973L53.9699 38.0531L53.9881 38.0691L54.0653 38.142L54.088 38.1636L54.1652 38.2411C56.0489 40.1922 55.7083 43.7324 53.4056 46.1482L53.2977 46.2587L53.2682 46.2883L53.1899 46.3658L53.149 46.4045L53.0786 46.4706L53.0321 46.5127L52.9673 46.5708L52.9208 46.6118L52.8527 46.6711L52.8084 46.7086L52.7402 46.7656L52.6857 46.81L52.6267 46.8579L52.5688 46.9023L52.5086 46.9478L52.4518 46.99L52.3917 47.0344L52.3315 47.0777L52.2724 47.1187L52.2145 47.1574L52.1521 47.1996L52.0953 47.236L52.0306 47.277L51.9716 47.3135L51.9114 47.3499L51.8478 47.3875L51.7899 47.4217L51.7252 47.4581L51.6673 47.49L51.6025 47.5253L51.5446 47.5561L51.4788 47.5903L51.4209 47.6187L51.3539 47.6518L51.2971 47.678L51.2267 47.7099L51.1722 47.7349L51.1041 47.7645L51.0462 47.7885L50.9769 47.8169L50.9224 47.8386L50.8486 47.867L50.7986 47.8853L50.7214 47.9126L50.6726 47.9297L50.5943 47.9559L50.5466 47.9707L50.4671 47.9958L50.4228 48.0083L50.3388 48.0322L50.3013 48.0425L50.2094 48.0664L50.1833 48.0732L50.0822 48.0971L50.0629 48.1017L49.955 48.1256L49.9425 48.1279L49.8279 48.1495L49.8233 48.1507L49.6859 48.1734L49.6326 48.1814L49.5519 48.1928L49.4815 48.2008L49.4157 48.2088L49.3453 48.2156L49.2806 48.2213L49.2045 48.2258L49.1466 48.2293L49.0671 48.2327L49.0137 48.235L48.932 48.2361H48.8798L48.798 48.235L48.7492 48.2338L48.6618 48.2304L48.6198 48.2281L48.5301 48.2224L48.488 48.219L48.3972 48.211L48.3609 48.2076L48.2655 48.1962L48.2337 48.1917L48.1338 48.1769L48.1122 48.1734L48.0055 48.1541L47.9896 48.1507L47.859 48.1233L47.8477 48.1211L47.7205 48.0903L47.7091 48.0869L47.582 48.0516L47.574 48.0493L47.4446 48.0083H47.4434L47.339 47.9718L47.2936 47.9547L47.2345 47.932L47.1834 47.9115L47.1323 47.8898L47.0756 47.8648L47.0347 47.8465L46.9711 47.8169L46.9382 47.801L46.87 47.7668L46.8462 47.7543L46.7701 47.7133L46.7679 47.7121C46.4919 47.5595 46.2319 47.3727 45.9924 47.1517C47.7432 47.4741 49.8017 46.7747 51.3607 45.1391Z" fill="#FAB71D"/>
<path d="M36.7273 49.2905C38.3419 49.1083 39.7283 50.032 39.8248 51.3522C39.9213 52.6723 38.6916 53.8899 37.077 54.0722C35.4636 54.2544 34.0761 53.3307 33.9796 52.0105C33.883 50.6904 35.1139 49.4716 36.7273 49.2905Z" fill="#F9D355"/>
<path d="M36.7272 49.2907L36.8021 49.2827L36.8237 49.2804L36.8748 49.2759L36.9043 49.2736L36.9498 49.2713L36.9781 49.2702L37.0224 49.2679L37.0599 49.2668L37.0951 49.2656H37.1314H37.1666L37.2007 49.2668L37.2393 49.2679L37.2722 49.269L37.3108 49.2713L37.3449 49.2736L37.3812 49.2759L37.4164 49.2782L37.4528 49.2816L37.4845 49.285L37.5243 49.2895L37.5572 49.2941L37.5913 49.2987L37.6276 49.3044L37.6617 49.3089L37.6969 49.3146L37.7287 49.3203L37.7627 49.3271L37.7991 49.334L37.8297 49.3397L37.8638 49.3465L37.9013 49.3545L37.9274 49.3602L37.9671 49.3704L37.9932 49.3773L38.0318 49.3875L38.0591 49.3955L38.0943 49.4057L38.1249 49.4148L38.1579 49.4251L38.1862 49.4342L38.2214 49.4467L38.2476 49.4558L38.2839 49.4695L38.3066 49.4786L38.3441 49.4934L38.3668 49.5025L38.4043 49.5185L38.4224 49.5265L38.4656 49.5458L38.4746 49.5504L38.5246 49.5732L38.5314 49.5766L38.5814 49.6016L38.5893 49.6051L38.637 49.6301L38.6461 49.6347L38.6926 49.6609L38.6961 49.6631L38.7528 49.6973L38.7778 49.7133L38.8119 49.7349L38.8323 49.7486L38.8675 49.7714L38.897 49.7919L38.9197 49.8078L38.9549 49.8329L38.9731 49.8465L39.0049 49.8716L39.0253 49.8875L39.056 49.9126L39.0753 49.9285L39.1082 49.9559L39.123 49.9684L39.1582 50.0003L39.1707 50.0117L39.2036 50.0436L39.2161 50.0561L39.2501 50.0903L39.2581 50.0994L39.2933 50.137L39.3024 50.1461L39.3364 50.1848L39.3421 50.1917L39.3909 50.2509L39.4102 50.2759L39.4364 50.3101L39.4579 50.3409L39.4795 50.3716L39.5022 50.4058L39.5215 50.4343L39.5442 50.4707L39.5601 50.4969L39.5828 50.5368L39.5965 50.5618L39.618 50.6028L39.6294 50.6268L39.651 50.6712L39.66 50.6906L39.6827 50.7418L39.6861 50.7509C39.7395 50.8808 39.7781 51.0163 39.8031 51.1576L39.8042 51.1667L39.8133 51.2305L39.8145 51.2373C39.2592 50.5664 38.2714 50.1825 37.1791 50.3056C35.5657 50.4878 34.3348 51.7054 34.4314 53.0256L34.4427 53.1372C34.2622 52.9185 34.1271 52.6691 34.0499 52.3968L34.0487 52.3911L34.0294 52.3194L34.0135 52.2442L34.0124 52.2374L34.001 52.1736L33.9976 52.1531L33.9908 52.1018L33.9886 52.079L33.9817 52.0073C33.8829 50.6906 35.1138 49.4718 36.7272 49.2907Z" fill="#FAB71D"/>
<path d="M16.8263 27.2082L16.8797 27.1308L16.9887 26.9782C17.1738 26.7242 17.3759 26.4781 17.5928 26.2412C17.6575 26.1706 17.7245 26.1 17.7926 26.0305L17.93 25.8927L18.0708 25.7571C18.19 25.6455 18.3126 25.5361 18.4387 25.4291C18.5647 25.322 18.6941 25.2184 18.8281 25.117L18.9087 25.0566L19.0722 24.9382L19.1551 24.8801L19.3232 24.7662C19.3799 24.7286 19.4367 24.691 19.4935 24.6545C19.5514 24.6181 19.6093 24.5816 19.6672 24.5463L19.7546 24.4928C19.9022 24.4051 20.0521 24.3208 20.2054 24.2399L20.2974 24.1921C20.4824 24.0964 20.6721 24.0064 20.8662 23.921C20.9309 23.8925 20.9957 23.8652 21.0615 23.8378C21.5191 23.6476 21.9983 23.487 22.4944 23.3595C22.5648 23.3412 22.6352 23.3241 22.7056 23.3082L22.7476 23.2991L22.9145 23.2615L22.9883 23.2467L23.1235 23.2194L23.2018 23.2045L23.3324 23.1806L23.4141 23.167L23.5402 23.1476L23.6265 23.1351L23.7479 23.118L23.832 23.1077L23.9535 23.0941L24.0432 23.0849L24.1578 23.0736L24.2509 23.0667L24.3634 23.0588L24.4565 23.0531L24.5643 23.0474L24.6642 23.0439L24.7664 23.0405L24.8698 23.0382L24.9651 23.0371H25.0696L25.1672 23.0382L25.2706 23.0405L25.3648 23.0439L25.4704 23.0485L25.5624 23.0531L25.6668 23.0599L25.7577 23.0667L25.8621 23.0758L25.9518 23.0849L26.0574 23.0963L26.1437 23.1066L26.2516 23.1203L26.3333 23.1316L26.4435 23.1487L26.5241 23.1624L26.6331 23.1806L26.7092 23.1943L26.8238 23.2171L26.892 23.2319L27.0078 23.2569L27.0736 23.2717L27.194 23.3002L27.2508 23.315L27.3745 23.3481L27.4279 23.3629L27.5562 23.3993L27.6005 23.413L27.7322 23.454L27.7731 23.4677L27.9104 23.5144L27.9286 23.5212L28.083 23.577L28.0864 23.5782L28.2057 23.6237L28.242 23.6385C28.3226 23.6704 28.4032 23.7046 28.4816 23.7388L28.5066 23.7501C28.5883 23.7866 28.6689 23.8242 28.7495 23.8629L28.7654 23.8709C28.8472 23.9107 28.9267 23.9517 29.0061 23.9939L29.022 24.003L29.1401 24.0679L29.2764 24.1465L29.2866 24.1522L29.416 24.2308L29.4319 24.2411L29.5546 24.3197L29.5761 24.3333L29.684 24.4062L29.701 24.4176L29.8123 24.4962L29.8407 24.5167L29.944 24.593L29.9792 24.6192L30.0769 24.6967L30.1086 24.7229L30.1836 24.7844L30.2245 24.8186L30.3051 24.8892L30.3505 24.929L30.4288 24.9997L30.4777 25.0464L30.5254 25.0919L30.6037 25.1694L30.6366 25.2024L30.7309 25.3015L30.7536 25.3254L30.8115 25.3881L30.8183 25.396L30.9284 25.5213L30.9398 25.535L31.042 25.6603L31.0863 25.7173L31.1396 25.7867L31.1907 25.8562L31.2339 25.9166L31.2872 25.994L31.3236 26.0464L31.3803 26.1319L31.4087 26.1763L31.4678 26.2708L31.4871 26.3039L31.5506 26.4132L31.5518 26.4155L31.6313 26.5601L31.6369 26.5715C31.8231 26.9269 31.973 27.3039 32.082 27.7014C30.2324 26.0054 27.2564 25.3015 24.1817 26.0886C19.6411 27.2504 16.6072 31.2199 17.4054 34.9559C17.4281 35.0619 17.4542 35.1667 17.4826 35.2703C17.1556 34.9708 16.865 34.6404 16.614 34.2828L16.6095 34.2771C16.5425 34.1814 16.48 34.0846 16.4187 33.9855L16.3915 33.9411L16.3495 33.8693L16.3074 33.7964L16.2757 33.7395L16.2041 33.6039L16.1973 33.5902L16.1383 33.4707L16.1315 33.4547L16.0724 33.3249L16.0531 33.2816L16.0191 33.2007L15.9748 33.0902L15.9498 33.0253L15.9203 32.9433L15.901 32.8886L15.8567 32.7565L15.8431 32.7109L15.8079 32.5913L15.7999 32.5617L15.7613 32.4148L15.7522 32.3772L15.717 32.2234C15.3616 30.5604 15.7659 28.8496 16.7253 27.362L16.8263 27.2082Z" fill="#FAB71D"/>
<path d="M33.6399 39.5238C33.9919 40.5284 33.2925 41.7346 32.0764 42.2164C30.8615 42.6982 29.5909 42.2745 29.239 41.2688C28.887 40.2641 29.5864 39.0579 30.8025 38.5761C32.0174 38.0954 33.2879 38.5191 33.6399 39.5238Z" fill="#F9D355"/>
<path d="M30.8013 38.5773L30.9114 38.5363H30.9125L31.0181 38.5021L31.0261 38.4998L31.1271 38.4713L31.1385 38.4679L31.2395 38.444L31.2486 38.4417L31.3497 38.4212L31.3599 38.4189L31.4587 38.403L31.47 38.4018L31.5665 38.3905L31.5813 38.3893L31.6756 38.3825L31.6903 38.3813L31.7834 38.3779H31.797L31.8924 38.3791H31.9026L31.998 38.3848L32.0082 38.3859L32.1036 38.395L32.1093 38.3962L32.2047 38.4098L32.2126 38.411L32.3069 38.4292L32.3091 38.4303L32.3761 38.4463C32.476 38.4713 32.5737 38.5021 32.6668 38.5397C32.7361 38.5681 32.8042 38.6 32.8689 38.6354L32.9325 38.6718C33.0438 38.739 33.1471 38.8165 33.239 38.9053L33.3004 38.9668L33.3208 38.9896L33.3571 39.0317L33.381 39.0602L33.4116 39.0989L33.4366 39.1331L33.4616 39.1696L33.4854 39.206L33.507 39.2425L33.5309 39.2835L33.5479 39.3165L33.5717 39.362L33.5854 39.3928L33.6069 39.4429H33.6058C33.0347 39.0397 32.1865 38.9497 31.3645 39.2766C30.1495 39.7584 29.449 40.9635 29.801 41.9693L29.8339 42.0536C29.6477 41.9215 29.4898 41.7563 29.3729 41.5615L29.3706 41.5581L29.3127 41.451L29.3093 41.4442L29.2889 41.3998L29.2821 41.3827L29.2662 41.344L29.2594 41.328L29.2389 41.2734C28.8869 40.2642 29.5864 39.0591 30.8013 38.5773Z" fill="#FAB71D"/>
<path d="M17.7528 19.2797C16.9875 19.5041 16.2404 19.1761 16.0826 18.545C15.9248 17.9151 16.4164 17.2226 17.1817 16.9982C17.947 16.7738 18.6941 17.103 18.8519 17.7329C19.0097 18.3628 18.517 19.0553 17.7528 19.2797Z" fill="#F9D355"/>
<path d="M17.4838 17.4527C16.7185 17.6771 16.2269 18.3696 16.3847 18.9995L16.3995 19.053L16.3223 18.9801L16.3154 18.9721L16.2927 18.9482L16.2871 18.9402L16.2519 18.897L16.2394 18.881L16.2246 18.8594L16.2008 18.8241L16.1906 18.807L16.1747 18.7785L16.1667 18.7637L16.1451 18.7204L16.1395 18.7067L16.1224 18.6669L16.119 18.6578L16.102 18.6088L16.0986 18.5985L16.0838 18.5461C15.926 17.9162 16.4176 17.2237 17.1829 16.9993L17.2533 16.98L17.276 16.9743L17.3226 16.964L17.3532 16.9583L17.393 16.9515L17.4225 16.9469L17.4634 16.9412L17.4929 16.9378L17.5326 16.9344L17.5656 16.9321L17.6019 16.9298L17.6348 16.9287H17.67L17.7018 16.9298L17.737 16.931L17.7688 16.9333L17.804 16.9355L17.8347 16.939L17.8699 16.9435L17.9005 16.9481L17.9334 16.9538L17.9652 16.9595L17.9959 16.9663L18.0277 16.9743L18.0561 16.9811L18.089 16.9902L18.1151 16.9982L18.1492 17.0096L18.1742 17.0187L18.2059 17.0312L18.2321 17.0415L18.2627 17.0551L18.2866 17.0665L18.3184 17.0825L18.3399 17.0939L18.3706 17.111L18.391 17.1235L18.4205 17.1417L18.441 17.1554L18.4694 17.1759L18.4875 17.1895L18.5159 17.2123L18.5318 17.226L18.5602 17.2499L18.575 17.2647L18.6011 17.2898L18.6158 17.3046L18.6408 17.3319L18.6533 17.3467L18.6771 17.3764L18.6885 17.3923L18.7112 17.423L18.7203 17.4367L18.7419 17.4709L18.7498 17.4846L18.7703 17.521L18.7782 17.5358L18.7964 17.5723L18.8021 17.5859L18.8191 17.6269L18.8225 17.636L18.8384 17.6816V17.6828C18.5114 17.4025 18.0016 17.3 17.4838 17.4527Z" fill="#FAB71D"/>
<path d="M39.2038 12.2913C38.1501 12.3449 37.2861 11.6922 37.2758 10.8311C37.2645 9.97112 38.1104 9.22962 39.1652 9.17494C40.22 9.12141 41.083 9.77521 41.0932 10.6352C41.1034 11.4963 40.2586 12.2378 39.2038 12.2913Z" fill="#F9D355"/>
<path d="M33.5243 10.5991C33.111 10.6208 32.7738 10.3645 32.7692 10.0273C32.7647 9.69016 33.0962 9.39971 33.5095 9.37921C33.9228 9.35756 34.2601 9.61385 34.2646 9.951C34.2691 10.287 33.9376 10.5775 33.5243 10.5991Z" fill="#F9D355"/>
<path d="M39.4169 9.85383C38.3632 9.90736 37.5173 10.6489 37.5275 11.51L37.5309 11.5829V11.584L37.523 11.5726L37.5003 11.5396L37.4855 11.518L37.4514 11.4633L37.4469 11.4564L37.3867 11.3369L37.3765 11.3141L37.3617 11.2799L37.3436 11.2298L37.3345 11.2002L37.3231 11.1614L37.3163 11.1375L37.3027 11.0772L37.2981 11.0566L37.2891 11.002L37.2868 10.9894L37.28 10.9222L37.2789 10.904L37.2754 10.8334C37.2652 9.97343 38.1111 9.23192 39.1648 9.17724L39.2613 9.17383H39.2931L39.3578 9.17497L39.3896 9.17611L39.4521 9.17952L39.4918 9.18294L39.5452 9.1875L39.5872 9.19319L39.636 9.20002L39.6814 9.208L39.7257 9.21597L39.7689 9.22509L39.8143 9.23533L39.8551 9.24559L39.8994 9.25812L39.9426 9.27178L39.9823 9.28431L40.0255 9.29912L40.0641 9.31279L40.105 9.32873L40.1436 9.34468L40.1844 9.3629L40.2219 9.37999L40.2616 9.39935L40.2968 9.41758L40.3354 9.43922L40.3695 9.45859L40.4058 9.48137L40.4388 9.50301L40.4751 9.52807L40.5057 9.54971L40.541 9.5759L40.5693 9.59869L40.6034 9.62716L40.6307 9.65108L40.6624 9.67956L40.6874 9.70461L40.7181 9.73651L40.7408 9.76043L40.7703 9.7946L40.7907 9.81966L40.8191 9.85497L40.8384 9.88117L40.8646 9.91761L40.8827 9.94382L40.9066 9.9814L40.9213 10.0076L40.944 10.0486L40.9565 10.0725L40.9781 10.1169L40.9883 10.1397L41.0076 10.1864L41.0156 10.2081L41.0337 10.2582L41.0394 10.2776L41.0553 10.3311L41.0598 10.3505L41.0723 10.4063L41.0746 10.4222L41.0848 10.4826L41.086 10.4928L41.0928 10.56C40.7567 10.1056 40.1299 9.81738 39.4169 9.85383Z" fill="#FAB71D"/>
<path d="M33.6082 9.64479C33.1949 9.66643 32.8645 9.95574 32.8679 10.2929L32.8691 10.3214V10.3202L32.8282 10.2542L32.827 10.2519L32.8123 10.2211L32.81 10.2143L32.7987 10.1835L32.7975 10.1801L32.7862 10.1437L32.785 10.1403L32.7782 10.1084L32.7771 10.0993L32.7737 10.0719L32.7725 10.0617L32.7703 10.0252C32.7657 9.68807 33.0973 9.39761 33.5106 9.37711L33.5492 9.37598H33.5628H33.5855L33.6048 9.37711L33.6241 9.37825L33.6389 9.37939L33.6604 9.38167L33.6786 9.38394L33.6956 9.38622L33.7138 9.38964L33.7308 9.39306L33.7467 9.39648L33.766 9.40103L33.7819 9.40559L33.8001 9.41015L33.8171 9.41584L33.8319 9.42039L33.8501 9.42723L33.8648 9.43293L33.8818 9.43976L33.8966 9.44546L33.9114 9.45229L33.9284 9.46026L33.942 9.4671L33.9579 9.47507L33.9716 9.48305L33.9852 9.49101L33.9988 9.49899L34.0124 9.5081L34.0261 9.51836L34.0374 9.52632L34.051 9.53658L34.0613 9.54455L34.0749 9.55594L34.084 9.56391L34.0964 9.57531L34.1067 9.58555L34.118 9.59695L34.1271 9.6072L34.1385 9.61972L34.1464 9.62998L34.1578 9.64365L34.1646 9.65276L34.1759 9.66757L34.1827 9.67668L34.193 9.69262L34.1986 9.70174L34.2077 9.71769L34.2123 9.72793L34.2202 9.74502L34.2248 9.75527L34.2327 9.77236L34.2361 9.78147L34.2429 9.79969L34.2452 9.80881L34.2509 9.82931L34.252 9.83386L34.2577 9.85779L34.2588 9.8669L34.2622 9.8874L34.2634 9.89424L34.2656 9.91815C34.1328 9.74274 33.8875 9.62998 33.6082 9.64479Z" fill="#FAB71D"/>
<path d="M32.9544 69.5525C33.5982 69.6129 34.0649 70.0867 33.9956 70.6095C33.9264 71.1323 33.3473 71.5071 32.7035 71.4467C32.0597 71.3864 31.5931 70.9125 31.6623 70.3897C31.7316 69.8658 32.3107 69.491 32.9544 69.5525Z" fill="#F9D355"/>
<path d="M29.3039 71.0115C29.5854 71.0377 29.7898 71.245 29.7592 71.474C29.7285 71.7029 29.4753 71.867 29.1937 71.8408C28.9121 71.8146 28.7078 71.6072 28.7384 71.3783C28.7679 71.1494 29.0211 70.9853 29.3039 71.0115Z" fill="#F9D355"/>
<path d="M28.9414 59.4393C29.1447 58.6158 30.1359 58.1203 31.1555 58.3322C32.1751 58.544 32.836 59.3835 32.6327 60.2081C32.4295 61.0317 31.4382 61.5271 30.4186 61.3153C29.399 61.1034 28.7382 60.2639 28.9414 59.4393Z" fill="#FAB71D"/>
<path d="M51.1871 60.7312C51.6924 60.3041 52.3703 60.3029 52.6995 60.7289C53.0288 61.1538 52.8869 61.8452 52.3805 62.2712C51.8752 62.6983 51.1974 62.6995 50.8681 62.2735C50.5388 61.8486 50.6807 61.1572 51.1871 60.7312Z" fill="#F9D355"/>
<path d="M17.9484 59.841C18.8579 60.2169 19.3257 61.1133 18.9918 61.8423C18.6592 62.5713 17.6509 62.8572 16.7414 62.4813C15.8319 62.1054 15.3641 61.209 15.698 60.48C16.0318 59.7499 17.0389 59.464 17.9484 59.841Z" fill="#F9D355"/>
<path d="M31.6578 70.4386V70.4329C31.8201 70.7393 32.1744 70.9705 32.6104 71.0115C33.2542 71.0719 33.8333 70.6983 33.9025 70.1743L33.9071 70.1299L33.9207 70.1572L33.9434 70.2096L33.9457 70.2153L33.9718 70.2928L33.9752 70.3064L33.9809 70.3281L33.9877 70.3611L33.9911 70.3782L33.9945 70.4033L33.9968 70.4181L34.0002 70.4556L34.0013 70.4682L34.0024 70.5023V70.5115L34.0002 70.5525L33.999 70.5627L33.9945 70.606C33.9252 71.1288 33.3462 71.5036 32.7024 71.4432L32.6433 71.4364L32.6286 71.4341L32.5843 71.4272L32.5707 71.425L32.5275 71.4158L32.5082 71.4113L32.4719 71.4022L32.4526 71.3965L32.4174 71.3862L32.3947 71.3783L32.3651 71.368L32.3402 71.3589L32.3129 71.3486L32.2902 71.3395L32.2629 71.327L32.2402 71.3167L32.2141 71.3042L32.1914 71.2917L32.1676 71.2792L32.1437 71.2655L32.1222 71.253L32.0995 71.2382L32.079 71.2245L32.0574 71.2097L32.037 71.1949L32.0143 71.1778L31.9973 71.1641L31.9746 71.1448L31.9587 71.1311L31.9382 71.1117L31.9223 71.0958L31.903 71.0753L31.8894 71.0605L31.8701 71.0388L31.8576 71.024L31.8394 71.0024L31.8269 70.9853L31.811 70.9636L31.7997 70.9466L31.7849 70.9238L31.7747 70.9067L31.76 70.8828L31.752 70.8668L31.7384 70.8406L31.7316 70.8247L31.7191 70.7974L31.7134 70.7837L31.7021 70.7541L31.6975 70.7404L31.6873 70.7085L31.6839 70.6971L31.6748 70.6629L31.6725 70.6516L31.6657 70.6174L31.6646 70.606L31.66 70.5707L31.6589 70.5616L31.6555 70.524V70.516V70.4773V70.4648L31.6578 70.4386Z" fill="#FAB71D"/>
<path d="M28.7359 71.3978C28.8075 71.5322 28.9619 71.6324 29.1526 71.6506C29.4342 71.6768 29.6874 71.5139 29.7181 71.285L29.7203 71.2656V71.2668L29.7419 71.3146L29.7431 71.318L29.7499 71.3397L29.751 71.3442L29.7555 71.3647L29.7567 71.3681L29.7601 71.3921V71.3978L29.7612 71.4171V71.4251V71.4422V71.4501L29.759 71.4752C29.7283 71.7041 29.4751 71.8682 29.1935 71.842L29.1435 71.8351L29.097 71.8249L29.0936 71.8238L29.0504 71.8101L29.047 71.8089L29.0073 71.793L29.0028 71.7907L28.9664 71.7725L28.9619 71.7702L28.9267 71.7486L28.9233 71.7463L28.8915 71.7224L28.8881 71.719L28.8597 71.6939L28.8551 71.6905L28.829 71.6631L28.8256 71.6597L28.8029 71.6301L28.8006 71.6267L28.7814 71.5959L28.7791 71.5914L28.7632 71.5584L28.762 71.5549L28.7496 71.5208L28.7484 71.5173L28.7405 71.4809V71.4775L28.7371 71.4399V71.4376L28.7359 71.3978Z" fill="#FAB71D"/>
<path d="M44.1709 28.3694C44.9362 28.145 45.6833 28.4731 45.8411 29.1041C45.999 29.734 45.5073 30.4265 44.742 30.6509C43.9767 30.8753 43.2296 30.5461 43.0718 29.9162C42.9151 29.2864 43.4067 28.5938 44.1709 28.3694Z" fill="#F9D355"/>
<path d="M43.498 28.7432C43.6808 28.5781 43.9102 28.4459 44.1725 28.3696L44.2429 28.3502L44.2656 28.3445L44.3121 28.3343L44.3394 28.3286L44.3825 28.3206L44.4064 28.3172L44.4518 28.3104L44.4813 28.307L44.5199 28.3035L44.5529 28.3013L44.5892 28.299L44.6221 28.2979H44.6573L44.6868 28.299L44.7254 28.3001L44.7538 28.3024L44.7902 28.3047L44.8208 28.3081L44.8549 28.3127L44.8855 28.3172L44.9185 28.3229L44.9503 28.3286L44.9809 28.3354L45.0127 28.3434L45.0422 28.3514L45.074 28.3605L45.1024 28.3685L45.1342 28.3787L45.1614 28.389L45.1921 28.4004L45.2194 28.4118L45.2489 28.4243L45.275 28.4368L45.3045 28.4516L45.3272 28.4641L45.3567 28.4812L45.3795 28.4949L45.4067 28.512L45.4283 28.5268L45.4555 28.5462L45.476 28.561L45.5021 28.5815L45.5202 28.5974L45.5464 28.6202L45.5623 28.635L45.5884 28.6612L45.602 28.6749L45.6281 28.7033L45.6406 28.7182L45.6656 28.7489L45.6747 28.7614L45.6997 28.7956L45.7076 28.8081L45.7303 28.8434L45.7371 28.8548L45.7587 28.8936L45.7621 28.9015L45.7837 28.9448L45.7882 28.9551L45.8064 28.9984L45.8086 29.0052L45.8257 29.0542C45.5009 28.7774 44.9911 28.6749 44.4734 28.8275C43.7081 29.0519 43.2164 29.7444 43.3743 30.3743L43.389 30.4267L43.3822 30.4199L43.3561 30.3959L43.3459 30.3857L43.3107 30.3504L43.3061 30.3447L43.2823 30.3185L43.2812 30.3174L43.2414 30.2684L43.2301 30.2536L43.2142 30.2308L43.1915 30.1966L43.1813 30.1784L43.1654 30.1511L43.1563 30.1351L43.1347 30.093L43.129 30.0793L43.112 30.0394L43.1086 30.0303L43.0916 29.9813L43.087 29.9688L43.0723 29.9176L43.0688 29.9016C42.9735 29.4916 43.1506 29.0564 43.498 28.7432Z" fill="#FAB71D"/>
<path d="M9.5712 43.2995C10.6885 44.1811 10.76 46.0468 9.73243 47.4661C8.70487 48.8853 6.96537 49.3216 5.84924 48.4399C4.73198 47.5583 4.66045 45.6926 5.68802 44.2734C6.71559 42.8541 8.45507 42.4179 9.5712 43.2995Z" fill="#F9D355"/>
<path d="M6.93246 40.452C6.20806 40.4144 5.63012 39.6592 5.64148 38.7639C5.65283 37.8686 6.25007 37.1738 6.97447 37.2114C7.69888 37.249 8.27681 38.0053 8.26546 38.8995C8.25297 39.7936 7.65687 40.4895 6.93246 40.452Z" fill="#F9D355"/>
<path d="M8.59781 47.086C9.62538 45.6668 9.55384 43.801 8.43657 42.9194L8.33893 42.8477C8.64436 42.8625 8.9407 42.9365 9.21321 43.0732L9.21548 43.0743L9.35968 43.1541L9.36309 43.1563L9.42326 43.1951L9.44143 43.2076L9.48912 43.2406L9.50729 43.2532L9.56973 43.301C10.687 44.1826 10.7585 46.0483 9.73097 47.4676L9.68214 47.5336L9.67987 47.5359L9.63332 47.5963L9.62196 47.61L9.58222 47.6589L9.57201 47.6715L9.53113 47.7204L9.51637 47.7364L9.47891 47.7785L9.45733 47.8025L9.4278 47.8355L9.40396 47.8605L9.37217 47.8936L9.354 47.9118L9.31881 47.9482L9.29723 47.9699L9.26431 48.0018L9.24045 48.0246L9.20981 48.053L9.18368 48.077L9.15416 48.1032L9.12805 48.1259L9.09627 48.1533L9.07128 48.1749L9.03836 48.2011L9.01223 48.2216L8.97931 48.2467L8.95093 48.2683L8.92254 48.29L8.89188 48.3116L8.86122 48.3332L8.83397 48.3526L8.79991 48.3754L8.77152 48.3936L8.742 48.413L8.70794 48.4346L8.68297 48.4506L8.64776 48.4722L8.62279 48.487L8.58532 48.5087L8.56033 48.5223L8.524 48.5428L8.49789 48.5565L8.46155 48.5759L8.43544 48.5895L8.39797 48.6077L8.37412 48.6191L8.33552 48.6374L8.3094 48.6488L8.2708 48.6658L8.24809 48.6749L8.20608 48.692L8.19018 48.6977L8.14023 48.7171L8.13227 48.7205L8.07664 48.741L8.06642 48.7444L8.01192 48.7627L8.0051 48.7649L7.93584 48.7866L7.89611 48.798L7.86772 48.8059L7.82685 48.8162L7.79732 48.823L7.75645 48.8321L7.72806 48.839L7.68605 48.8481L7.6588 48.8538L7.61452 48.8617L7.58954 48.8663L7.5464 48.8731L7.52028 48.8766L7.47373 48.8823L7.45215 48.8845L7.40219 48.8891L7.3863 48.8902L7.3318 48.8936L7.31817 48.8948L7.26367 48.8971H7.25119L7.19667 48.8982H7.18419L7.12741 48.8971H7.12061L7.05929 48.8948H7.05702L6.97868 48.8891L6.94916 48.8857L6.9026 48.88L6.86514 48.8743L6.82652 48.8686L6.78451 48.8617L6.75159 48.8561L6.70731 48.8469L6.67665 48.8401L6.63009 48.8287L6.60398 48.8219L6.55629 48.8082L6.53131 48.8002L6.48022 48.7843L6.46433 48.7786L6.40755 48.7581L6.40187 48.7558C6.28833 48.7125 6.1782 48.6601 6.07261 48.5964L6.07033 48.5952L6.00902 48.5565L6.00561 48.5542L5.94656 48.5143L5.9443 48.5121C6.8799 48.5576 7.90179 48.0473 8.59781 47.086Z" fill="#FAB71D"/>
<path d="M6.22632 38.5859C6.21497 39.4812 6.7929 40.2364 7.51731 40.274L7.57861 40.2751L7.5684 40.2808L7.53434 40.3013L7.52072 40.3093L7.47075 40.3355L7.46395 40.3389L7.42874 40.356H7.42761L7.36062 40.3833L7.34131 40.3901L7.31179 40.4004L7.26978 40.4129L7.24367 40.4198L7.21187 40.4266L7.1903 40.4311L7.1392 40.4403L7.12104 40.4425L7.07562 40.4471L7.06314 40.4482L7.00636 40.4505H6.99274L6.93256 40.4494C6.20815 40.4118 5.63022 39.6555 5.64157 38.7613L5.64384 38.6793L5.64612 38.6463L5.64951 38.5984L5.65406 38.5643L5.65974 38.5187L5.66541 38.4845L5.67223 38.4401L5.67904 38.4037L5.68699 38.3638L5.69607 38.3251L5.70515 38.2898L5.71651 38.2522L5.72673 38.2157L5.73808 38.1804L5.75057 38.144L5.76306 38.1098L5.77668 38.0745L5.79031 38.0415L5.80507 38.0073L5.82096 37.9731L5.83686 37.9412L5.85503 37.907L5.86979 37.8797L5.89022 37.8455L5.90726 37.8182L5.92884 37.7852L5.94587 37.7601L5.96858 37.7271L5.98675 37.7032L6.01172 37.6713L6.02989 37.6496L6.05601 37.6189L6.07416 37.5984L6.10143 37.5688L6.12072 37.5494L6.15024 37.5221L6.16955 37.5038L6.19907 37.4776L6.2195 37.4617L6.2513 37.4366L6.27061 37.4218L6.30466 37.3979L6.3251 37.3842L6.35916 37.3626L6.38074 37.3501L6.41593 37.3307L6.43637 37.3204L6.47384 37.3022L6.49428 37.2931L6.53288 37.2772L6.55333 37.2692L6.5942 37.2544L6.6101 37.2498L6.65664 37.2373L6.66914 37.2339L6.7191 37.2225L6.73158 37.2202L6.78269 37.2122L6.79404 37.2111L6.8474 37.2054H6.85195L6.91211 37.2031C6.51017 37.4662 6.23427 37.9799 6.22632 38.5859Z" fill="#FAB71D"/>
<path d="M22.6524 49.3696C23.1815 49.7056 23.3768 50.3195 23.0884 50.7398C22.8 51.1601 22.1369 51.2285 21.6078 50.8925C21.0787 50.5565 20.8834 49.9425 21.1718 49.5222C21.4602 49.1019 22.1233 49.0336 22.6524 49.3696Z" fill="#F9D355"/>
<path d="M21.04 49.9026L21.0412 49.8878L21.0446 49.8582L21.0468 49.8422L21.0514 49.8126L21.0537 49.8001L21.0605 49.7682L21.0639 49.7568L21.073 49.726L21.0775 49.7135L21.0889 49.6816L21.0911 49.6748L21.1059 49.6383L21.107 49.6372L21.1263 49.5985L21.1275 49.5973L21.149 49.5586C21.1547 49.8946 21.3591 50.2488 21.7179 50.4767C22.247 50.8127 22.9101 50.7443 23.1985 50.324L23.2212 50.2876V50.291L23.2201 50.3457V50.3514L23.2155 50.4072V50.4095L23.2064 50.463L23.2053 50.4698L23.1928 50.5211L23.1917 50.5245L23.1735 50.5792L23.1712 50.5837L23.1519 50.6293L23.1451 50.643L23.127 50.6783L23.1179 50.6942L23.0884 50.7409C22.8 51.1612 22.1369 51.2296 21.6077 50.8935L21.5601 50.8616L21.5396 50.8468L21.5135 50.8275L21.4976 50.815L21.4704 50.7933L21.4488 50.7751L21.4284 50.7569L21.4079 50.7386L21.3875 50.7204L21.367 50.6999L21.35 50.6828L21.3307 50.6612L21.3137 50.6418L21.2955 50.6213L21.2796 50.602L21.2614 50.578L21.2478 50.5609L21.2297 50.5359L21.2183 50.5188L21.2013 50.4937L21.1899 50.4767L21.174 50.4493L21.1649 50.4334L21.1502 50.406L21.1411 50.3889L21.1297 50.3639L21.1206 50.3434L21.1104 50.3195L21.1025 50.299L21.0934 50.2739L21.0866 50.2545L21.0786 50.2283L21.073 50.209L21.0661 50.1828L21.0616 50.1634L21.0559 50.1361L21.0525 50.1179L21.048 50.0905L21.0457 50.0723L21.0423 50.0438L21.0412 50.0267L21.0389 49.9983V49.9812V49.9527V49.9368L21.04 49.9026Z" fill="#FAB71D"/>
<path d="M28.9077 59.6616L28.9089 59.649L28.9145 59.5852L28.9157 59.5795L28.927 59.5089C29.1314 60.0283 29.6571 60.46 30.3475 60.6035C31.3671 60.8154 32.3583 60.3199 32.5616 59.4964L32.5763 59.4269V59.4258L32.582 59.4394L32.5956 59.4759L32.6047 59.501L32.6229 59.5613L32.6252 59.5704L32.6365 59.6149V59.6171L32.6524 59.6992L32.6558 59.7219L32.6615 59.7584L32.666 59.8108L32.6683 59.8415L32.6694 59.8791V59.9065L32.6683 59.9668L32.6672 59.9885L32.6626 60.0443L32.6615 60.0557L32.6513 60.1217L32.6479 60.1388L32.6331 60.2072C32.4298 61.0307 31.4386 61.5262 30.419 61.3143L30.3248 61.2927L30.3145 61.2904L30.2339 61.2687L30.1999 61.2573L30.1465 61.2403L30.1045 61.2255L30.0602 61.2095L30.0216 61.1936L29.975 61.1742L29.9387 61.1583L29.8933 61.1366L29.8581 61.1184L29.815 61.0956L29.7786 61.0751L29.7389 61.0523L29.7025 61.0295L29.6662 61.0068L29.6299 60.9817L29.5958 60.9578L29.5595 60.9316L29.5277 60.9077L29.4925 60.8792L29.4641 60.8553L29.43 60.8257L29.4017 60.7995L29.3699 60.7687L29.3437 60.7425L29.3119 60.7095L29.2881 60.6833L29.2586 60.6491L29.237 60.6229L29.2086 60.5865L29.1893 60.5603L29.1609 60.5204L29.1439 60.4953L29.1189 60.4555L29.1019 60.427L29.0792 60.3883L29.0644 60.3609L29.0429 60.3176L29.0315 60.2926L29.0122 60.2482L29.002 60.222L28.9849 60.1764L28.977 60.1525L28.9622 60.1046L28.9554 60.0807L28.9429 60.0317L28.9384 60.009L28.9282 59.9588L28.9248 59.9372L28.9168 59.8848L28.9145 59.8666L28.91 59.8096L28.9089 59.7948L28.9077 59.7345V59.7219V59.6616Z" fill="#E8901B"/>
<path d="M56.4692 26.7217C55.9435 26.7524 55.4655 26.2706 55.4019 25.6464C55.3372 25.0211 55.7119 24.4892 56.2364 24.4584C56.7621 24.4277 57.2402 24.9095 57.3037 25.5337C57.3685 26.159 56.9949 26.6909 56.4692 26.7217Z" fill="#F9D355"/>
<path d="M56.8969 25.704C56.8322 25.0787 56.3542 24.5969 55.8296 24.6288L55.7853 24.6333L55.8864 24.565H55.8875L55.9364 24.5388L55.9443 24.5354L55.9943 24.5137L55.9977 24.5126L56.0533 24.4932L56.0579 24.4921L56.1067 24.4796L56.1237 24.4762L56.1634 24.4693L56.1816 24.467L56.2384 24.4614C56.7641 24.4306 57.2421 24.9124 57.3057 25.5366L57.3102 25.5936L57.3114 25.622L57.3125 25.6505V25.6756V25.7063L57.3114 25.7302L57.3102 25.7621L57.308 25.786L57.3057 25.8168L57.3023 25.8407L57.2977 25.8715L57.2943 25.8931L57.2887 25.9239L57.283 25.9489L57.2773 25.9763L57.2705 26.0013L57.2637 26.0264L57.2557 26.0514L57.2478 26.0754L57.2387 26.1004L57.2296 26.1243L57.2205 26.1471L57.2103 26.1722L57.2001 26.195L57.1887 26.2177L57.1774 26.2405L57.166 26.261L57.1524 26.2838L57.141 26.3032L57.1263 26.326L57.1149 26.3442L57.1002 26.3658L57.0865 26.384L57.0707 26.4045L57.057 26.4205L57.0389 26.441L57.0264 26.4558L57.0071 26.4763L56.9946 26.4888L56.973 26.5093L56.9594 26.5207L56.9367 26.5401L56.9231 26.5515L56.9003 26.5686L56.8856 26.5788L56.8606 26.5959L56.8481 26.6039L56.822 26.6198L56.8084 26.6267L56.7811 26.6415L56.7675 26.6483L56.7391 26.6608L56.7266 26.6665L56.6948 26.679L56.6857 26.6825L56.6505 26.6939L56.6403 26.6961L56.6051 26.7052L56.5972 26.7075L56.5586 26.7155H56.5574L56.512 26.7223C56.7823 26.5071 56.9401 26.1266 56.8969 25.704Z" fill="#FAB71D"/>
<path d="M67.0941 40.5561C67.8185 40.5937 68.3964 41.35 68.3851 42.2453C68.3737 43.1406 67.7765 43.8366 67.0521 43.799C66.3277 43.7614 65.7498 43.0051 65.7611 42.1098C65.7725 41.2145 66.3697 40.5186 67.0941 40.5561Z" fill="#F9D355"/>
<path d="M65.7662 42.0013L65.7708 41.9466L65.7742 41.9204L65.7798 41.8669L65.7855 41.8327L65.7923 41.7883L65.7991 41.7518L65.8071 41.7119L65.8162 41.6755L65.8264 41.6356L65.8366 41.6003L65.848 41.5627L65.8593 41.5263L65.8707 41.491L65.8843 41.4557L65.8979 41.4215L65.9127 41.3873L65.9274 41.3543L65.9433 41.3213L65.9592 41.2894L65.9774 41.2552L65.9933 41.2256L66.0126 41.1925L66.0296 41.1652L66.0501 41.1333L66.0682 41.106L66.0898 41.0764L66.1091 41.0502L66.1318 41.0217L66.1523 40.9966L66.1772 40.9682L66.1965 40.9465L66.2227 40.918L66.2431 40.8975L66.2703 40.8713L66.2908 40.8531L66.3203 40.8281L66.3419 40.811L66.3725 40.787L66.393 40.7722L66.4259 40.7483L66.4452 40.7358L66.4804 40.713L66.4986 40.7028L66.5372 40.6811L66.5553 40.672L66.5951 40.6526L66.6132 40.6447L66.6541 40.6276L66.6723 40.6208L66.7154 40.6059L66.7325 40.6003L66.7768 40.5877L66.7915 40.5843L66.8403 40.574L66.8506 40.5718L66.9028 40.5638L66.913 40.5627L66.9675 40.557H66.9709L67.0334 40.5547C66.6314 40.8121 66.3544 41.3269 66.3464 41.9329C66.3351 42.8282 66.913 43.5845 67.6374 43.6221L67.6987 43.6232H67.6976L67.6624 43.6449L67.659 43.6472L67.592 43.6836L67.5841 43.6882L67.55 43.7041L67.542 43.7075L67.483 43.7315L67.4614 43.7394L67.433 43.7485L67.3887 43.7622L67.366 43.7679L67.332 43.7759L67.3115 43.7804L67.2604 43.7895L67.2434 43.7918L67.1957 43.7975L67.1855 43.7987L67.1287 43.8009H67.1128L67.0538 43.7998C66.3294 43.7622 65.7515 43.0059 65.7628 42.1106L65.7651 42.0286L65.7662 42.0013Z" fill="#FAB71D"/>
<path d="M54.6411 55.0099C55.7561 54.0691 57.2492 54.0668 57.9759 55.0042C58.7026 55.9417 58.3881 57.4646 57.2731 58.4054C56.1581 59.3462 54.665 59.3485 53.9383 58.4111C53.2105 57.4737 53.5261 55.9508 54.6411 55.0099Z" fill="#F9D355"/>
<path d="M56.4314 57.8702C57.5464 56.9294 57.8609 55.4065 57.1342 54.4691L57.0695 54.3916C57.3125 54.4645 57.5373 54.583 57.7292 54.7481L57.7349 54.7527L57.7814 54.7948L57.7848 54.7982L57.8337 54.8449L57.8382 54.8506L57.8779 54.8916L57.8893 54.9042L57.9211 54.9406L57.9336 54.9554L57.9744 55.0055C58.7011 55.943 58.3866 57.4659 57.2716 58.4067L57.1705 58.4887L57.1683 58.4898L57.0684 58.5639L57.0627 58.5684L56.9639 58.6356L56.956 58.6413L56.8594 58.7017L56.8458 58.7097L56.7493 58.7644L56.7368 58.7712L56.638 58.8224L56.6267 58.8281L56.5268 58.8748L56.5143 58.8805L56.4155 58.9215L56.4007 58.9272L56.3031 58.9637L56.2883 58.9694L56.1884 59.0013L56.177 59.0047L56.076 59.0332L56.0635 59.0366L55.9613 59.0605L55.95 59.0628L55.8466 59.0821L55.8398 59.0833L55.7331 59.0981H55.7286L55.665 59.1049L55.632 59.1072L55.6014 59.1095L55.5662 59.1118L55.5389 59.1129L55.5049 59.114L55.4742 59.1152H55.4413H55.4118L55.3766 59.114L55.3493 59.1129L55.313 59.1106L55.288 59.1095L55.2483 59.1061L55.2278 59.1038L55.1858 59.0992L55.1676 59.0969L55.1245 59.0913L55.1086 59.089L55.0643 59.081L55.0484 59.0776L55.003 59.0685L54.9905 59.0662L54.944 59.0559L54.9326 59.0537L54.8861 59.0411L54.877 59.0389L54.8293 59.0252L54.8213 59.0229C54.5613 58.942 54.324 58.8076 54.1253 58.622L54.1242 58.6208L54.0833 58.581L54.081 58.5787L54.0016 58.4933L54.0004 58.4921C54.7475 58.7131 55.6763 58.5069 56.4314 57.8702Z" fill="#FAB71D"/>
<path d="M51.9988 62.0287C52.504 61.6016 52.6471 60.9113 52.3178 60.4865L52.2894 60.4512L52.2929 60.4523L52.3462 60.4705L52.353 60.4728L52.4064 60.4956L52.4087 60.4967L52.4586 60.5229L52.4654 60.5263L52.5131 60.556L52.5165 60.5582L52.5654 60.5936L52.5699 60.5981L52.6074 60.6311L52.6199 60.6437L52.6494 60.6733L52.6607 60.6858L52.6993 60.7314C53.0286 61.1562 52.8855 61.8476 52.3803 62.2736L52.3326 62.3124L52.3281 62.3158L52.2849 62.3477L52.2679 62.3591L52.2361 62.3807L52.2168 62.3921L52.1861 62.4115L52.168 62.4217L52.135 62.4399L52.1169 62.449L52.0851 62.465L52.0624 62.4764L52.0351 62.4889L52.009 62.5003L51.984 62.5105L51.9579 62.5208L51.9329 62.5299L51.9045 62.539L51.8807 62.5459L51.8534 62.5538L51.8273 62.5607L51.8012 62.5664L51.7751 62.5721L51.749 62.5766L51.724 62.5812L51.6979 62.5846L51.6729 62.588L51.6468 62.5903L51.6218 62.5926L51.5957 62.5937H51.5707H51.5446H51.5219L51.4935 62.5926L51.4731 62.5914L51.4447 62.5891L51.4231 62.5869L51.397 62.5834L51.3754 62.58L51.3493 62.5743L51.33 62.5698L51.3016 62.5629L51.2834 62.5572L51.2551 62.5481L51.238 62.5424L51.2096 62.5322L51.1937 62.5254L51.1665 62.514L51.1506 62.506L51.1233 62.4923L51.1097 62.4843L51.0825 62.4684L51.0689 62.4593L51.0427 62.4422L51.0314 62.4331L51.0053 62.4137L50.995 62.4046L50.9689 62.3818L50.961 62.3739L50.9337 62.3477L50.9292 62.342L50.9008 62.3112C51.2358 62.4103 51.6559 62.3169 51.9988 62.0287Z" fill="#FAB71D"/>
<path d="M15.5936 60.8894L15.5947 60.8723L15.6004 60.8188L15.6026 60.8051L15.6117 60.7493L15.614 60.7379L15.6276 60.6787L15.6287 60.673L15.6469 60.6103L15.648 60.6081L15.6719 60.542C15.7707 61.0603 16.184 61.5535 16.7994 61.8086C17.7089 62.1845 18.716 61.8986 19.0498 61.1696L19.0759 61.107V61.1081L19.0839 61.1525V61.1537L19.0941 61.2402L19.0952 61.2482L19.0986 61.3746L19.0975 61.3951L19.0952 61.4327L19.0907 61.4806L19.0861 61.5113L19.0816 61.5443L19.0771 61.5705L19.0657 61.6241L19.06 61.6457L19.0464 61.6936L19.043 61.7072L19.0226 61.7676L19.0169 61.7824L18.9908 61.8439C18.6581 62.5729 17.6498 62.8588 16.7403 62.4829L16.6563 62.4465L16.6438 62.4408L16.5768 62.4077L16.5473 62.3918L16.4985 62.3656L16.4667 62.3462L16.4247 62.3212L16.3918 62.2995L16.352 62.2733L16.3202 62.2505L16.2828 62.2243L16.2532 62.2016L16.2158 62.1731L16.1862 62.1492L16.1522 62.1207L16.1238 62.0945L16.0909 62.0637L16.0648 62.0375L16.0341 62.0068L16.008 61.9783L15.9796 61.9476L15.9546 61.9179L15.9296 61.8872L15.9058 61.8564L15.8819 61.8245L15.8592 61.7927L15.8377 61.7608L15.8161 61.7266L15.7979 61.697L15.7775 61.6617L15.7605 61.6309L15.7423 61.5956L15.7264 61.5648L15.7094 61.5273L15.6969 61.4976L15.681 61.4578L15.6708 61.4304L15.656 61.3883L15.648 61.3621L15.6356 61.3188L15.6287 61.2938L15.6185 61.2482L15.614 61.2243L15.606 61.1776L15.6026 61.1537L15.597 61.1058L15.5947 61.083L15.5913 61.0341L15.5901 61.0136L15.589 60.9634L15.5901 60.9452L15.5936 60.8894Z" fill="#FAB71D"/>
</svg>
