<svg width="47" height="42" viewBox="0 0 47 42" fill="none" xmlns="http://www.w3.org/2000/svg">
  <path d="M1.39799 10.3554C2.75029 7.55222 5.51962 5.4826 8.58529 4.98598C11.5545 4.50531 14.6315 5.41995 17.5836 4.84018C19.9669 4.37204 22.0447 2.97445 24.2043 1.85933C26.3639 0.743082 28.8641 -0.122584 31.1929 0.569948C34.6514 1.59736 36.6963 5.73888 40.2718 6.21386C41.2506 6.34371 42.2441 6.17285 43.2308 6.20133C44.2186 6.2298 45.2836 6.51456 45.8672 7.31303C46.6291 8.35524 46.2885 9.82459 45.7775 11.0115C45.2666 12.1983 44.6001 13.4308 44.8124 14.7053C45.0758 16.292 46.6337 17.4379 46.8483 19.0325C47.0856 20.7935 45.6106 22.3688 45.5368 24.1445C45.4596 25.9875 46.8948 27.6026 46.9754 29.4456C47.081 31.8558 44.8283 33.7648 42.5268 34.4653C40.2253 35.1658 37.7489 35.069 35.4247 35.6909C33.2673 36.2684 31.1282 37.7184 30.6842 40.0283C30.4776 41.1024 30.137 41.4066 28.9379 41.5706C27.7787 41.7289 26.574 41.4852 25.4419 41.2494C23.3743 40.82 21.3986 40.2299 19.2765 40.0887C17.3531 39.9611 15.424 40.0488 13.4983 40.0249C11.4999 40.001 9.72754 39.6684 7.95853 38.7002C6.30648 37.7958 4.84177 36.511 3.71769 34.9984C2.64584 33.5564 1.82833 31.866 1.62849 30.0618C1.41503 28.1323 2.15192 26.2893 2.30634 24.3803C2.5005 21.9849 1.60465 19.8002 0.90749 17.5825C0.470348 16.1941 0.346588 14.7053 0.537338 13.2599C0.670185 12.2541 0.95631 11.27 1.39799 10.3554Z" fill="#FAEF7D"/>
</svg>