<svg width="152" height="91" viewBox="0 0 152 91" fill="none" xmlns="http://www.w3.org/2000/svg">
<path d="M0.158066 50.6019C0.178513 50.4026 0.319305 49.9207 0.458969 49.4048C29.148 36.3902 119.389 -3.08075 121.393 2.3365C121.854 3.58146 117.754 7.10563 110.836 11.9807C108.724 13.4694 106.347 15.0834 103.758 16.7977C129.035 6.50194 150.609 -1.36308 151.577 1.25555C152.272 3.13496 142.587 10.2004 128.502 19.2659C123.955 22.1921 118.952 25.3256 113.691 28.5605C130.292 22.2058 142.447 18.3399 143.169 20.2899C145.204 25.7858 58.3774 75.6823 32.5077 90.1366C32.7768 89.5944 32.8392 88.9509 32.5474 88.4315C32.2431 87.8881 31.6732 87.625 31.0725 87.3904C30.3822 87.1193 29.6532 86.8835 29.2411 86.298C28.553 85.3185 29.1423 84.0337 29.9484 83.0746C30.0711 82.9288 30.1982 82.7898 30.3277 82.6623C31.4972 81.4959 32.8233 80.4844 33.8872 79.2201C34.9511 77.9558 35.7539 76.3531 35.6052 74.705C35.3724 72.1376 32.913 70.2969 30.4299 69.6329C29.1854 69.3003 27.8819 69.1704 26.6909 68.6818C25.4998 68.1931 24.3871 67.2272 24.2043 65.9492C23.9045 63.8488 26.1379 62.146 26.2435 60.0263C26.3253 58.3963 25.0524 56.9258 23.5344 56.3415C22.0163 55.756 20.3166 55.8961 18.7235 56.2287C17.6142 56.4611 16.1779 56.6502 15.6045 55.6694C14.7972 54.2867 16.8648 52.528 16.1881 51.0757C16.0553 50.791 15.8486 50.5859 15.5977 50.4458C14.8824 50.0483 13.7969 50.1793 12.9714 50.5153C11.8723 50.963 9.80132 52.0291 8.94633 50.6725C8.4967 49.9606 9.16205 48.62 7.97325 48.4149C7.61105 48.3523 7.12282 48.4571 6.52672 48.6712C5.9749 48.8683 5.33112 49.1587 4.60558 49.497C4.53177 49.5312 4.42049 49.587 4.28082 49.6565C3.36453 50.0586 2.46187 50.4561 1.57623 50.8456C0.750763 51.1088 0.101303 51.1566 0.158066 50.6019Z" fill="#FDCE63"/>
</svg>