<svg width="215" height="128" viewBox="0 0 215 128" fill="none" xmlns="http://www.w3.org/2000/svg">
<path d="M0.916214 82.0983C1.91426 80.4581 3.67079 79.4694 5.09462 78.1835C6.53435 76.8827 7.65843 75.2334 8.34422 73.4155C9.05728 71.5258 9.33546 69.4049 10.5992 67.8319C11.5552 66.6428 12.8462 65.9901 14.2496 65.5607C15.8494 65.0709 17.5946 64.8704 19.1524 64.4968C20.7693 64.1084 22.0546 63.3008 23.5738 62.737C25.4984 62.0229 27.2083 62.6789 29.134 63.0013C29.1931 63.0115 29.2544 63.0195 29.3145 63.0263C31.3254 62.0115 37.8587 58.9942 47.2169 54.7957C88.8521 36.1235 186.322 -5.98654 188.829 0.715527C189.419 2.28512 184.896 6.43347 177.132 12.1457L177.131 12.1469C198.233 4.03581 214.004 -1.01694 214.954 1.52652C215.787 3.75561 205.482 11.5876 190.148 21.733C201.112 18.0266 208.254 16.3522 208.862 17.9969C209.685 20.2203 198.855 28.2642 182.737 38.741C187.633 37.553 190.628 37.2922 190.97 38.2968C192.876 43.9065 113.475 87.4472 78.7048 105.974C70.4456 110.376 64.7015 113.363 63.1686 114.099C62.5248 114.407 61.8697 114.676 61.2066 114.906C60.9148 117.067 60.9364 119.366 59.3388 120.716C58.0955 121.766 56.322 121.797 54.7653 122.264C51.0013 123.394 48.3569 127.172 44.4919 127.879C40.301 128.645 36.1442 125.527 31.9397 126.213C30.5544 126.44 29.2328 127.075 27.8294 127.081C25.0442 127.092 22.5678 124.664 20.5251 123.035C18.1918 121.175 16.1106 120.496 13.1982 119.822C10.7582 119.257 8.02856 118.12 7.10092 115.592C6.60928 114.251 6.73532 112.806 6.33905 111.435C5.89282 109.891 5.07645 108.451 3.95918 107.296C3.07582 106.383 1.99374 105.611 1.42262 104.473C0.404129 102.441 1.20688 99.6895 1.3931 97.5436C1.63268 94.7803 1.24095 92.4681 0.578995 89.7754C-0.0466309 87.2183 -0.449707 84.3456 0.916214 82.0983Z" fill="#FFE48C"/>
</svg>