<svg width="121" height="75" viewBox="0 0 121 75" fill="none" xmlns="http://www.w3.org/2000/svg">
<path d="M84.0629 4.15627C84.7316 5.97302 73.4011 13.7595 58.0524 23.2886C66.9405 19.5059 76.0433 15.7106 84.4659 12.3254C104.203 4.39318 120.208 -1.28034 120.968 0.780171C121.919 3.36008 99.4786 17.5969 75.3132 31.9885C79.9628 30.2424 84.1367 28.7742 87.5271 27.7308C92.7637 26.1202 96.1325 25.5257 96.4993 26.4927C98.0582 30.6035 46.6061 61.7481 25.0737 74.3902C24.3834 74.1191 23.6544 73.8833 23.2422 73.2979C22.5542 72.3183 23.1435 71.0335 23.9496 70.0744C24.0722 69.9286 24.1994 69.7896 24.3288 69.6621C25.4983 68.4957 26.8245 67.4842 27.8884 66.2199C28.9523 64.9556 29.7551 63.353 29.6063 61.7048C29.3736 59.1374 26.9142 57.2967 24.431 56.6327C23.1866 56.3001 21.8831 56.1702 20.692 55.6816C19.501 55.1929 18.3883 54.227 18.2055 52.949C17.9057 50.8487 20.1391 49.1458 20.2447 47.0261C20.3264 45.3961 19.0536 43.9256 17.5356 43.3413C16.0175 42.7558 14.3177 42.8959 12.7247 43.2285C11.6154 43.4609 10.1791 43.65 9.60567 42.6693C8.79839 41.2865 10.866 39.5278 10.1893 38.0755C10.0564 37.7908 9.8498 37.5858 9.59887 37.4457C8.88354 37.0481 7.79807 37.1791 6.97261 37.5151C5.87351 37.9628 3.80249 39.0289 2.94751 37.6723C2.49788 36.9604 3.16323 35.6198 1.97443 35.4148C1.61223 35.3521 1.12399 35.4569 0.527893 35.671C33.3941 21.2771 82.7401 0.561476 84.0629 4.15627Z" fill="#FAB85B"/>
</svg>