<svg width="215" height="128" viewBox="0 0 215 128" fill="none" xmlns="http://www.w3.org/2000/svg">
<path d="M0.916214 82.0983C1.91426 80.4581 3.67079 79.4694 5.09462 78.1835C6.53435 76.8827 7.65843 75.2334 8.34422 73.4155C9.05728 71.5258 9.33546 69.4049 10.5992 67.8319C11.5552 66.6428 12.8462 65.9901 14.2496 65.5607C15.8494 65.0709 17.5946 64.8704 19.1524 64.4968C20.7693 64.1084 22.0546 63.3008 23.5738 62.737C25.4984 62.0229 27.2083 62.6789 29.134 63.0013C29.1931 63.0115 29.2544 63.0195 29.3145 63.0263C31.3254 62.0115 37.8587 58.9942 47.2169 54.7957C88.8521 36.1235 186.322 -5.98654 188.829 0.715527C189.419 2.28512 184.896 6.43347 177.132 12.1457L177.131 12.1469C198.233 4.03581 214.004 -1.01694 214.954 1.52652C215.787 3.75561 205.482 11.5876 190.148 21.733C201.112 18.0266 208.254 16.3522 208.862 17.9969C209.685 20.2203 198.855 28.2642 182.737 38.741C187.633 37.553 190.628 37.2922 190.97 38.2968C192.876 43.9065 113.475 87.4472 78.7048 105.974C70.4456 110.376 64.7015 113.363 63.1686 114.099C62.5248 114.407 61.8697 114.676 61.2066 114.906C60.9148 117.067 60.9364 119.366 59.3388 120.716C58.0955 121.766 56.322 121.797 54.7653 122.264C51.0013 123.394 48.3569 127.172 44.4919 127.879C40.301 128.645 36.1442 125.527 31.9397 126.213C30.5544 126.44 29.2328 127.075 27.8294 127.081C25.0442 127.092 22.5678 124.664 20.5251 123.035C18.1918 121.175 16.1106 120.496 13.1982 119.822C10.7582 119.257 8.02856 118.12 7.10092 115.592C6.60928 114.251 6.73532 112.806 6.33905 111.435C5.89282 109.891 5.07645 108.451 3.95918 107.296C3.07582 106.383 1.99374 105.611 1.42262 104.473C0.404129 102.441 1.20688 99.6895 1.3931 97.5436C1.63268 94.7803 1.24095 92.4681 0.578995 89.7754C-0.0466309 87.2183 -0.449707 84.3456 0.916214 82.0983Z" fill="#FFE48C"/>
<path d="M49.1581 57.6019C49.1785 57.4026 49.3193 56.9207 49.459 56.4048C78.148 43.3902 168.389 3.91925 170.393 9.3365C170.854 10.5815 166.754 14.1056 159.836 18.9807C157.724 20.4694 155.347 22.0834 152.758 23.7977C178.035 13.5019 199.609 5.63692 200.577 8.25555C201.272 10.135 191.587 17.2004 177.502 26.2659C172.955 29.1921 167.952 32.3256 162.691 35.5605C179.292 29.2058 191.447 25.3399 192.169 27.2899C194.204 32.7858 107.377 82.6823 81.5077 97.1366C81.7768 96.5944 81.8392 95.9509 81.5474 95.4315C81.2431 94.8881 80.6732 94.625 80.0725 94.3904C79.3822 94.1193 78.6532 93.8835 78.2411 93.298C77.553 92.3185 78.1423 91.0337 78.9484 90.0746C79.0711 89.9288 79.1982 89.7898 79.3277 89.6623C80.4972 88.4959 81.8233 87.4844 82.8872 86.2201C83.9511 84.9558 84.7539 83.3531 84.6052 81.705C84.3724 79.1376 81.913 77.2969 79.4299 76.6329C78.1854 76.3003 76.8819 76.1704 75.6909 75.6818C74.4998 75.1931 73.3871 74.2272 73.2043 72.9492C72.9045 70.8488 75.1379 69.146 75.2435 67.0263C75.3253 65.3963 74.0524 63.9258 72.5344 63.3415C71.0163 62.756 69.3166 62.8961 67.7235 63.2287C66.6142 63.4611 65.1779 63.6502 64.6045 62.6694C63.7972 61.2867 65.8648 59.528 65.1881 58.0757C65.0553 57.791 64.8486 57.5859 64.5977 57.4458C63.8824 57.0483 62.7969 57.1793 61.9714 57.5153C60.8723 57.963 58.8013 59.0291 57.9463 57.6725C57.4967 56.9606 58.162 55.62 56.9733 55.4149C56.6111 55.3523 56.1228 55.4571 55.5267 55.6712C54.9749 55.8683 54.3311 56.1587 53.6056 56.497C53.5318 56.5312 53.4205 56.587 53.2808 56.6565C52.3645 57.0586 51.4619 57.4561 50.5762 57.8456C49.7508 58.1088 49.1013 58.1566 49.1581 57.6019Z" fill="#FDCE63"/>
<path d="M139.063 24.1563C139.732 25.973 128.401 33.7595 113.052 43.2886C121.941 39.5059 131.043 35.7106 139.466 32.3254C159.203 24.3932 175.208 18.7197 175.968 20.7802C176.919 23.3601 154.479 37.5969 130.313 51.9885C134.963 50.2424 139.137 48.7742 142.527 47.7308C147.764 46.1202 151.133 45.5257 151.499 46.4927C153.058 50.6035 101.606 81.7481 80.0737 94.3902C79.3834 94.1191 78.6544 93.8833 78.2422 93.2979C77.5542 92.3183 78.1435 91.0335 78.9496 90.0744C79.0722 89.9286 79.1994 89.7896 79.3288 89.6621C80.4983 88.4957 81.8245 87.4842 82.8884 86.2199C83.9523 84.9556 84.7551 83.353 84.6063 81.7048C84.3736 79.1374 81.9142 77.2967 79.431 76.6327C78.1866 76.3001 76.8831 76.1702 75.692 75.6816C74.501 75.1929 73.3883 74.227 73.2055 72.949C72.9057 70.8487 75.1391 69.1458 75.2447 67.0261C75.3264 65.3961 74.0536 63.9256 72.5356 63.3413C71.0175 62.7558 69.3177 62.8959 67.7247 63.2285C66.6154 63.4609 65.1791 63.65 64.6057 62.6693C63.7984 61.2865 65.866 59.5278 65.1893 58.0755C65.0564 57.7908 64.8498 57.5858 64.5989 57.4457C63.8835 57.0481 62.7981 57.1791 61.9726 57.5151C60.8735 57.9628 58.8025 59.0289 57.9475 57.6723C57.4979 56.9604 58.1632 55.6198 56.9744 55.4148C56.6122 55.3521 56.124 55.4569 55.5279 55.671C88.3941 41.2771 137.74 20.5615 139.063 24.1563Z" fill="#FAB85B"/>
<path d="M116.027 38.9932C116.433 40.0924 111.625 43.7943 104.16 48.7365C101.517 50.4872 98.5412 52.3928 95.3461 54.3941C119.046 44.3171 144.669 34.1319 145.561 36.5386C146.343 38.6515 128.484 50.0863 109.243 61.6327C113.628 59.9936 117.485 58.6643 120.407 57.8431C123.775 56.8954 125.903 56.6221 126.17 57.3214C127.25 60.1588 98.3357 78.3525 78.9493 90.0755C79.072 89.9297 79.1991 89.7907 79.3286 89.6631C80.4981 88.4968 81.8242 87.4853 82.8881 86.221C83.952 84.9566 84.7548 83.354 84.6061 81.7059C84.3733 79.1385 81.9139 77.2978 79.4308 76.6337C78.1863 76.3011 76.8828 76.1713 75.6918 75.6826C74.5007 75.194 73.388 74.2281 73.2052 72.9501C72.9054 70.8497 75.1388 69.1469 75.2444 67.0271C75.3262 65.3972 74.0533 63.9267 72.5353 63.3424C71.0172 62.7569 69.3175 62.897 67.7244 63.2296C66.6151 63.462 65.1788 63.651 64.6054 62.6703C63.7981 61.2875 65.8657 59.5289 65.189 58.0766C65.0562 57.7918 64.8495 57.5868 64.5986 57.4467C88.5801 47.2125 115.136 36.5819 116.027 38.9932Z" fill="#EF885B"/>
</svg>
