<svg width="56" height="61" viewBox="0 0 56 61" fill="none" xmlns="http://www.w3.org/2000/svg">
<path d="M37.1962 54.2446C38.72 52.0075 37.3393 49.2647 39.743 47.5813C40.7433 46.8808 41.948 46.2418 42.3091 45.0731C42.845 43.3372 41.1839 41.6253 41.2725 39.8096C41.3213 38.821 41.8867 37.9291 42.0332 36.9507C42.3602 34.7819 40.64 32.9048 39.1015 31.3455C37.563 29.7861 35.9541 27.7416 36.5479 25.6298C36.9158 24.3211 38.0762 23.3415 38.3998 22.0213C38.9074 19.9529 37.1724 17.9823 35.3046 16.9686C33.4368 15.9549 31.2682 15.4229 29.7001 13.9855C28.2263 12.6357 27.3759 10.5627 25.5751 9.69929C22.8818 8.40876 19.63 10.5034 16.746 9.7289C15.5526 9.40884 14.5466 8.62518 13.4736 8.01124C10.4182 6.26168 7.81578 7.9486 4.74216 8.52723C3.42052 8.77553 1.67422 9.19356 0.312836 9.02612C2.32369 8.01124 8.85698 4.99394 18.2152 0.795467C18.9442 0.573356 20.4532 0.060791 20.7234 0.763574C20.8176 1.00847 20.6394 1.73631 20.4588 2.40492C20.3192 2.9209 20.1772 3.40271 20.1579 3.60204C20.1012 4.15675 20.7506 4.10891 21.5761 3.84238C22.5094 3.54054 23.6676 2.95849 24.2807 2.65323C24.4204 2.58375 24.5305 2.52908 24.6054 2.49377C25.3298 2.15661 25.9748 1.86616 26.5266 1.66797C27.1238 1.45383 27.6121 1.34904 27.9731 1.41168C29.1619 1.61671 28.4966 2.95735 28.9462 3.66925C29.8023 5.02583 31.8722 3.9597 32.9713 3.51206C33.7968 3.17605 34.8822 3.04506 35.5976 3.44258C35.8496 3.58268 36.0551 3.78771 36.188 4.07246C36.8647 5.52359 34.7971 7.2834 35.6044 8.66618C36.1766 9.64803 37.613 9.45782 38.7234 9.22545C40.3164 8.89286 42.0162 8.75389 43.5342 9.33822C45.0535 9.92254 46.3251 11.3942 46.2434 13.023C46.1378 15.1427 43.9044 16.8456 44.2042 18.946C44.387 20.224 45.4985 21.1899 46.6907 21.6785C47.8818 22.1671 49.1853 22.297 50.4297 22.6296C52.9129 23.2937 55.3723 25.1343 55.605 27.7017C55.7549 29.3487 54.951 30.9525 53.8871 32.2168C52.8232 33.4812 51.4982 34.4938 50.3275 35.659C50.1981 35.7877 50.0709 35.9255 49.9483 36.0713C49.1422 37.0304 48.5529 38.3152 49.2409 39.2948C49.6531 39.8803 50.382 40.116 51.0724 40.3871C51.673 40.6229 52.2419 40.8849 52.5473 41.4282C52.8391 41.9476 52.7767 42.5912 52.5076 43.1333C52.4156 43.319 52.2987 43.4933 52.1647 43.6459C51.6356 44.2462 50.8828 44.5902 50.1402 44.8863C49.6463 45.0834 49.1251 45.2815 48.7777 45.6848C48.4302 46.088 48.3405 46.7714 48.7379 47.1268L48.8208 47.1917C49.7337 47.825 51.2665 46.121 52.1272 46.9161C52.4542 47.2179 52.4497 47.7601 52.2385 48.1531C52.0273 48.546 51.6594 48.8239 51.3017 49.0882C50.7329 49.5096 49.1262 50.2694 48.822 50.9061C48.4518 51.6806 49.1512 51.4141 49.7053 51.9699C41.4473 56.3723 35.702 59.3589 34.1703 60.0958C33.5265 60.4034 32.8714 60.6722 32.2083 60.9023C32.3786 59.6459 32.6534 58.4362 33.4164 57.4863C34.461 56.1878 36.2561 55.6262 37.1962 54.2446Z" fill="#C04518"/>
</svg>