<svg width="184" height="17" viewBox="0 0 184 17" fill="none" xmlns="http://www.w3.org/2000/svg">
<path d="M21.6131 16.2031H15.3887L12.7371 12.2258H5.59136L4.89476 16.2031H0.243284L1.59154 8.51807H14.6696C15.0591 8.51807 15.4261 8.47313 15.7707 8.38325C16.1302 8.29336 16.4373 8.16603 16.692 8.00124C16.9616 7.83645 17.1714 7.63422 17.3212 7.39453C17.486 7.13986 17.5684 6.86272 17.5684 6.5631C17.5684 6.06874 17.3661 5.70172 16.9616 5.46203C16.5572 5.20736 15.9954 5.08002 15.2763 5.08002H2.19825L5.92843 1.17008H15.5909C16.3699 1.17008 17.1639 1.2375 17.9728 1.37232C18.7968 1.50715 19.5383 1.75433 20.1975 2.11386C20.8716 2.45842 21.4184 2.92281 21.8378 3.50706C22.2573 4.0913 22.467 4.83284 22.467 5.73168C22.467 6.40581 22.3472 7.04997 22.1075 7.66418C21.8828 8.27838 21.5532 8.83267 21.1188 9.32703C20.6993 9.82139 20.19 10.2408 19.5907 10.5854C18.9915 10.93 18.3324 11.1696 17.6133 11.3045C17.823 11.4992 18.0552 11.7464 18.3099 12.046C18.5795 12.3456 18.9241 12.7576 19.3436 13.2819L21.6131 16.2031ZM29.6451 16.2031L33.1505 12.3381H36.9032C37.3676 12.3381 37.8395 12.3381 38.3188 12.3381C38.7982 12.3381 39.2177 12.3531 39.5772 12.3831C39.4124 12.1134 39.2252 11.7764 39.0154 11.3719C38.8057 10.9524 38.611 10.5629 38.4312 10.2034L36.4313 6.22604L27.6227 16.2031H22.1173L34.1617 2.60822C34.5512 2.17378 35.0156 1.78429 35.5549 1.43974C36.0942 1.09518 36.7309 0.922904 37.4649 0.922904C38.169 0.922904 38.7233 1.08769 39.1278 1.41726C39.5473 1.73186 39.8843 2.12884 40.139 2.60822L47.1274 16.2031H29.6451ZM69.3684 7.55182C69.3684 8.76525 69.0912 9.89629 68.537 10.9449C67.9827 11.9936 67.2262 12.9074 66.2674 13.6864C65.3086 14.4654 64.1926 15.0796 62.9192 15.529C61.6459 15.9784 60.2901 16.2031 58.852 16.2031H48.785L50.4479 6.83275H55.0993L54.1331 12.3381H59.5261C60.2452 12.3381 60.9118 12.2408 61.526 12.046C62.1552 11.8513 62.6945 11.5741 63.1439 11.2146C63.6083 10.855 63.9754 10.4281 64.245 9.93374C64.5147 9.4244 64.6495 8.87012 64.6495 8.27089C64.6495 7.80649 64.5521 7.37955 64.3574 6.99005C64.1776 6.60055 63.9154 6.26349 63.5709 5.97886C63.2413 5.69423 62.8368 5.47701 62.3575 5.3272C61.8931 5.16242 61.3762 5.08002 60.807 5.08002H50.74L54.4028 1.17008H61.5036C62.687 1.17008 63.7581 1.32738 64.7169 1.64197C65.6906 1.95657 66.5221 2.39849 67.2112 2.96776C67.9003 3.52204 68.4321 4.18868 68.8066 4.96767C69.1811 5.74666 69.3684 6.60804 69.3684 7.55182ZM74.9873 16.2031H70.3359L73.0099 1.17008H77.6389L74.9873 16.2031ZM97.68 12.3381L94.0172 16.2031H86.467C85.2985 16.2031 84.2274 16.0383 83.2536 15.7088C82.2949 15.3642 81.471 14.8998 80.7818 14.3156C80.1077 13.7163 79.5834 13.0123 79.2089 12.2033C78.8344 11.3943 78.6471 10.518 78.6471 9.57421C78.6471 8.3458 78.9242 7.21476 79.4785 6.1811C80.0328 5.14744 80.7818 4.26358 81.7256 3.52953C82.6694 2.7805 83.778 2.20375 85.0513 1.79927C86.3247 1.37981 87.6804 1.17008 89.1186 1.17008H99.6574L95.9722 5.08002H88.422C87.7328 5.08002 87.0737 5.18489 86.4445 5.39462C85.8303 5.60434 85.291 5.89647 84.8266 6.27098C84.3622 6.6455 83.9952 7.08742 83.7255 7.59676C83.4559 8.09112 83.3211 8.63792 83.3211 9.23714C83.3211 9.70154 83.4109 10.1285 83.5907 10.518C83.7855 10.8925 84.0476 11.2146 84.3772 11.4842C84.7217 11.7539 85.1262 11.9636 85.5906 12.1134C86.055 12.2632 86.5719 12.3381 87.1411 12.3381H97.68ZM104.98 16.2031L108.485 12.3381H112.238C112.702 12.3381 113.174 12.3381 113.653 12.3381C114.133 12.3381 114.552 12.3531 114.912 12.3831C114.747 12.1134 114.56 11.7764 114.35 11.3719C114.14 10.9524 113.946 10.5629 113.766 10.2034L111.766 6.22604L102.957 16.2031H97.4519L109.496 2.60822C109.886 2.17378 110.35 1.78429 110.89 1.43974C111.429 1.09518 112.066 0.922904 112.8 0.922904C113.504 0.922904 114.058 1.08769 114.462 1.41726C114.882 1.73186 115.219 2.12884 115.474 2.60822L122.462 16.2031H104.98ZM141.108 12.3381L137.4 16.2031H124.12L126.794 1.17008H131.423L129.445 12.3381H141.108Z" fill="url(#paint0_linear_15143_30456)"/>
<path d="M156.922 16.2031L160.427 12.3381H164.18C164.644 12.3381 165.116 12.3381 165.595 12.3381C166.075 12.3381 166.494 12.3531 166.854 12.3831C166.689 12.1134 166.502 11.7764 166.292 11.3719C166.082 10.9524 165.888 10.5629 165.708 10.2034L163.708 6.22604L154.899 16.2031H149.394L161.438 2.60822C161.828 2.17378 162.292 1.78429 162.832 1.43974C163.371 1.09518 164.008 0.922904 164.742 0.922904C165.446 0.922904 166 1.08769 166.404 1.41726C166.824 1.73186 167.161 2.12884 167.416 2.60822L174.404 16.2031H156.922ZM180.781 16.2031H176.129L178.803 1.17008H183.432L180.781 16.2031Z" fill="#9AFE42"/>
<defs>
<linearGradient id="paint0_linear_15143_30456" x1="182.873" y1="22.2031" x2="134.475" y2="-73.4253" gradientUnits="userSpaceOnUse">
<stop stop-color="#6335F8"/>
<stop offset="1" stop-color="#E71DE7"/>
</linearGradient>
</defs>
</svg>
