<svg width="20" height="20" viewBox="0 0 20 20" xmlns="http://www.w3.org/2000/svg">
<path fill-rule="evenodd" clip-rule="evenodd" d="M17.3622 2.79834C17.3257 2.72989 17.2704 2.67389 17.202 2.63734C15.5796 1.774 5.87367 4.78245 3.363 6.23067C2.70889 6.60789 2.41722 7.05123 2.49733 7.54589C2.72833 8.97856 6.58844 10.0643 8.683 10.5504L12.6162 6.618C12.8441 6.39011 13.2136 6.39011 13.4414 6.618C13.6693 6.84589 13.6693 7.21534 13.4414 7.44322L9.47011 11.413C9.96867 13.5293 11.0428 17.2743 12.4529 17.5014C12.5058 17.51 12.5587 17.5147 12.6108 17.5147C13.0417 17.5147 13.4306 17.2191 13.7673 16.6358C15.2156 14.1274 18.2263 4.42311 17.3622 2.79834Z" fill="white"/>
</svg>
