<svg width="85" height="85" viewBox="0 0 85 85" fill="none" xmlns="http://www.w3.org/2000/svg">
<g filter="url(#filter0_d_401_5786)">
<path d="M58.9809 12L60.1296 16.9585C60.695 19.3992 62.6008 21.305 65.0415 21.8704L70 23.0191L65.0415 24.1678C62.6008 24.7332 60.695 26.639 60.1296 29.0797L58.9809 34.0382L57.8322 29.0797C57.2668 26.639 55.361 24.7332 52.9203 24.1678L47.9618 23.0191L52.9203 21.8704C55.361 21.305 57.2668 19.3992 57.8322 16.9585L58.9809 12Z" fill="white"/>
</g>
<g filter="url(#filter1_d_401_5786)">
<path d="M47.7536 27.2102L48.4577 30.2493C48.8042 31.7452 49.9723 32.9132 51.4682 33.2598L54.5073 33.9638L51.4682 34.6679C49.9723 35.0144 48.8042 36.1825 48.4577 37.6784L47.7536 40.7175L47.0496 37.6784C46.703 36.1825 45.535 35.0144 44.0391 34.6679L41 33.9638L44.0391 33.2598C45.535 32.9132 46.703 31.7452 47.0496 30.2493L47.7536 27.2102Z" fill="white"/>
</g>
<defs>
<filter id="filter0_d_401_5786" x="7.26179" y="-25.734" width="103.438" height="103.438" filterUnits="userSpaceOnUse" color-interpolation-filters="sRGB">
<feFlood flood-opacity="0" result="BackgroundImageFix"/>
<feColorMatrix in="SourceAlpha" type="matrix" values="0 0 0 0 0 0 0 0 0 0 0 0 0 0 0 0 0 0 127 0" result="hardAlpha"/>
<feOffset dy="2.96599"/>
<feGaussianBlur stdDeviation="20.35"/>
<feComposite in2="hardAlpha" operator="out"/>
<feColorMatrix type="matrix" values="0 0 0 0 0.688172 0 0 0 0 0.443164 0 0 0 0 1 0 0 0 0.73 0"/>
<feBlend mode="normal" in2="BackgroundImageFix" result="effect1_dropShadow_401_5786"/>
<feBlend mode="normal" in="SourceGraphic" in2="effect1_dropShadow_401_5786" result="shape"/>
</filter>
<filter id="filter1_d_401_5786" x="0.299999" y="-10.5238" width="94.9072" height="94.9073" filterUnits="userSpaceOnUse" color-interpolation-filters="sRGB">
<feFlood flood-opacity="0" result="BackgroundImageFix"/>
<feColorMatrix in="SourceAlpha" type="matrix" values="0 0 0 0 0 0 0 0 0 0 0 0 0 0 0 0 0 0 127 0" result="hardAlpha"/>
<feOffset dy="2.96599"/>
<feGaussianBlur stdDeviation="20.35"/>
<feComposite in2="hardAlpha" operator="out"/>
<feColorMatrix type="matrix" values="0 0 0 0 0.688172 0 0 0 0 0.443164 0 0 0 0 1 0 0 0 0.73 0"/>
<feBlend mode="normal" in2="BackgroundImageFix" result="effect1_dropShadow_401_5786"/>
<feBlend mode="normal" in="SourceGraphic" in2="effect1_dropShadow_401_5786" result="shape"/>
</filter>
</defs>
</svg>
