<svg width="25" height="24" viewBox="0 0 25 24" fill="none" xmlns="http://www.w3.org/2000/svg">
<path fill-rule="evenodd" clip-rule="evenodd" d="M20.393 1.0621L20 0L19.607 1.0621C18.9993 2.70441 17.7044 3.99928 16.0621 4.60699L15 5L16.0621 5.39301C17.7044 6.00072 18.9993 7.29559 19.607 8.9379L20 10L20.393 8.9379C21.0007 7.29559 22.2956 6.00072 23.9379 5.39301L25 5L23.9379 4.60699C22.2956 3.99928 21.0007 2.70441 20.393 1.0621ZM11.1084 9.34669L9.5 5L7.89158 9.34669C7.28387 10.989 5.98901 12.2839 4.34669 12.8916L0 14.5L4.34669 16.1084C5.989 16.7161 7.28387 18.011 7.89158 19.6533L9.5 24L11.1084 19.6533C11.7161 18.011 13.011 16.7161 14.6533 16.1084L19 14.5L14.6533 12.8916C13.011 12.2839 11.7161 10.989 11.1084 9.34669Z" fill="url(#paint0_linear_38_220)"/>
<defs>
<linearGradient id="paint0_linear_38_220" x1="20" y1="0" x2="20" y2="10" gradientUnits="userSpaceOnUse">
<stop stop-color="#CBB5FF"/>
<stop offset="1" stop-color="#9D74FF"/>
</linearGradient>
</defs>
</svg>
