<svg width="20" height="20" viewBox="0 0 20 20" fill="none" xmlns="http://www.w3.org/2000/svg">
<path fill-rule="evenodd" clip-rule="evenodd" d="M16.1229 0.732213L16 0.400024L15.8771 0.732213C15.2694 2.37453 13.9745 3.66939 12.3322 4.2771L12 4.40002L12.3322 4.52295C13.9745 5.13066 15.2694 6.42552 15.8771 8.06784L16 8.40002L16.1229 8.06784C16.7306 6.42552 18.0255 5.13066 19.6678 4.52295L20 4.40002L19.6678 4.2771C18.0255 3.66939 16.7306 2.37453 16.1229 0.732213ZM8.69525 7.35989L7.6 4.40002L6.50475 7.35989C5.89704 9.0022 4.60218 10.2971 2.95986 10.9048L0 12L2.95986 13.0953C4.60218 13.703 5.89704 14.9978 6.50475 16.6402L7.6 19.6L8.69525 16.6402C9.30296 14.9978 10.5978 13.703 12.2401 13.0953L15.2 12L12.2401 10.9048C10.5978 10.2971 9.30296 9.0022 8.69525 7.35989Z" fill="url(#paint0_linear_401_5775)"/>
<defs>
<linearGradient id="paint0_linear_401_5775" x1="16" y1="0.400024" x2="16" y2="8.40002" gradientUnits="userSpaceOnUse">
<stop stop-color="#CBB5FF"/>
<stop offset="1" stop-color="#9D74FF"/>
</linearGradient>
</defs>
</svg>
