<svg width="24" height="25" viewBox="0 0 24 25" fill="none" xmlns="http://www.w3.org/2000/svg">
<path fill-rule="evenodd" clip-rule="evenodd" d="M16.1583 8.73285C16.1583 11.0825 14.2851 12.9666 11.949 12.9666C9.61292 12.9666 7.73974 11.0825 7.73974 8.73285C7.73974 6.38227 9.61292 4.5 11.949 4.5C14.2851 4.5 16.1583 6.38227 16.1583 8.73285ZM11.949 20.5C8.51785 20.5 5.58809 19.956 5.58809 17.7802C5.58809 15.6034 8.49904 15.0396 11.949 15.0396C15.3802 15.0396 18.31 15.5836 18.31 17.7604C18.31 19.9362 15.399 20.5 11.949 20.5ZM17.9571 8.80922C17.9571 10.007 17.5998 11.1229 16.973 12.0505C16.9086 12.146 16.9659 12.2748 17.0796 12.2946C17.2363 12.3216 17.3984 12.3369 17.5631 12.3414C19.2062 12.3846 20.6809 11.321 21.0883 9.71974C21.6918 7.34123 19.9198 5.2059 17.6634 5.2059C17.4181 5.2059 17.1835 5.23201 16.9551 5.27884C16.9238 5.28605 16.8907 5.30046 16.8728 5.32838C16.8513 5.3626 16.8674 5.40853 16.8889 5.43825C17.5667 6.3938 17.9571 7.55918 17.9571 8.80922ZM20.6782 14.0126C21.7823 14.2296 22.5084 14.6727 22.8093 15.3166C23.0636 15.8453 23.0636 16.4586 22.8093 16.9864C22.349 17.9851 20.8654 18.3058 20.2887 18.3886C20.1696 18.4066 20.0738 18.3031 20.0864 18.1833C20.3809 15.4157 18.0377 14.1035 17.4315 13.8018C17.4055 13.7883 17.4002 13.7676 17.4028 13.755C17.4046 13.746 17.4154 13.7316 17.4351 13.7289C18.7468 13.7046 20.1571 13.8847 20.6782 14.0126ZM6.43711 12.3413C6.60186 12.3368 6.76304 12.3224 6.92063 12.2945C7.03434 12.2747 7.09165 12.1459 7.02718 12.0504C6.4004 11.1228 6.04313 10.0069 6.04313 8.80913C6.04313 7.55909 6.43353 6.39371 7.11135 5.43816C7.13284 5.40844 7.14806 5.36251 7.12746 5.32829C7.10956 5.30127 7.07553 5.28596 7.04509 5.27875C6.81586 5.23192 6.58127 5.20581 6.33593 5.20581C4.07951 5.20581 2.30751 7.34114 2.91191 9.71965C3.31932 11.3209 4.79405 12.3845 6.43711 12.3413ZM6.59694 13.7545C6.59962 13.768 6.59425 13.7878 6.56918 13.8022C5.9621 14.1039 3.61883 15.4161 3.91342 18.1827C3.92595 18.3034 3.83104 18.4061 3.71195 18.389C3.13531 18.3061 1.65163 17.9855 1.19139 16.9867C0.936203 16.4581 0.936203 15.8457 1.19139 15.317C1.49225 14.6731 2.21752 14.23 3.32156 14.012C3.84358 13.885 5.25294 13.7049 6.5656 13.7292C6.5853 13.7319 6.59515 13.7464 6.59694 13.7545Z" fill="url(#paint0_linear_2127_5492)"/>
<defs>
<linearGradient id="paint0_linear_2127_5492" x1="23" y1="20.5" x2="-1.48684" y2="10.7379" gradientUnits="userSpaceOnUse">
<stop stop-color="#4DE45F" stop-opacity="0.79"/>
<stop offset="1" stop-color="#4DE45F"/>
</linearGradient>
</defs>
</svg>
