<svg width="20" height="20" viewBox="0 0 20 20" fill="none" xmlns="http://www.w3.org/2000/svg">
<path fill-rule="evenodd" clip-rule="evenodd" d="M8.64156 4.22897C7.72409 5.52111 7.87272 7.28665 8.99329 8.40722L9.50565 8.91958L8.91014 9.51509L8.39941 9.00436C7.27884 7.88379 5.5133 7.73516 4.22116 8.65263L3.85127 8.91526C2.95906 9.54876 2.17744 10.325 1.53784 11.2129C0.459423 12.7099 0.625575 14.7679 1.93016 16.0725L3.92456 18.0669C5.22915 19.3715 7.28724 19.5377 8.7842 18.4593C9.67205 17.8197 10.4483 17.038 11.0818 16.1458L11.3703 15.7395C12.2729 14.4684 12.1266 12.7316 11.0243 11.6292L10.4791 11.084L11.0746 10.4885L11.6182 11.0321C12.7205 12.1345 14.4573 12.2807 15.7285 11.3781L16.1348 11.0896C17.027 10.4562 17.8086 9.67986 18.4482 8.79202C19.5266 7.29505 19.3605 5.23696 18.0559 3.93238L16.0615 1.93798C14.7569 0.633387 12.6988 0.467235 11.2018 1.54565C10.314 2.18525 9.53769 2.96688 8.90419 3.85908L8.64156 4.22897ZM12.6435 8.91958L13.1871 9.46317C13.5242 9.80023 14.0552 9.84494 14.4439 9.56897L14.8502 9.2805C15.5435 8.78823 16.1509 8.185 16.6479 7.49508C17.0903 6.88092 17.0222 6.03655 16.4869 5.50131L14.4925 3.50691C13.9573 2.97168 13.1129 2.90351 12.4988 3.34595C11.8088 3.84296 11.2056 4.45034 10.7133 5.14364L10.4507 5.51353C10.1598 5.92322 10.2069 6.483 10.5622 6.83829L11.0746 7.35064L11.6556 6.7696C12.0889 6.33635 12.7913 6.33635 13.2246 6.7696C13.6578 7.20285 13.6578 7.90529 13.2246 8.33854L12.6435 8.91958ZM7.3412 11.084L6.77155 11.6537C6.3383 12.0869 6.3383 12.7894 6.77155 13.2226C7.2048 13.6559 7.90724 13.6559 8.34049 13.2226L8.91014 12.653L9.45536 13.1982C9.79242 13.5352 9.83713 14.0663 9.56116 14.455L9.27268 14.8613C8.78041 15.5546 8.17718 16.1619 7.48727 16.659C6.87311 17.1014 6.02873 17.0332 5.4935 16.498L3.4991 14.5036C2.96386 13.9684 2.8957 13.124 3.33814 12.5098C3.83515 11.8199 4.44253 11.2167 5.13583 10.7244L5.50572 10.4618C5.91541 10.1709 6.47519 10.218 6.83048 10.5733L7.3412 11.084Z" fill="#7A8598"/>
</svg>
