<svg width="21" height="20" viewBox="0 0 21 20" fill="none" xmlns="http://www.w3.org/2000/svg">
<path d="M16.8916 11.6715C15.9387 15.228 12.3732 17.3627 8.92788 16.4395C5.48257 15.5163 3.46211 11.8849 4.41507 8.32844C5.36801 4.77201 8.93349 2.63732 12.3788 3.56049C15.8241 4.48365 17.8445 8.11509 16.8916 11.6715Z" fill="#A56402"/>
<path fill-rule="evenodd" clip-rule="evenodd" d="M17.294 11.7795C16.2848 15.546 12.4995 17.828 8.81999 16.842C5.14045 15.8561 3.0033 11.9873 4.01255 8.22068C5.0218 4.4541 8.80705 2.17216 12.4866 3.1581C16.1661 4.14401 18.3033 8.01287 17.294 11.7795ZM8.92782 16.4396C12.3731 17.3627 15.9386 15.228 16.8916 11.6716C17.8445 8.11516 15.8241 4.48372 12.3787 3.56056C8.93345 2.63739 5.36797 4.77208 4.41501 8.32851C3.46207 11.885 5.48253 15.5164 8.92782 16.4396Z" fill="#5B3303"/>
<path d="M16.4746 11.2548C15.5217 14.8112 11.9562 16.9459 8.51089 16.0227C5.06558 15.0996 3.04512 11.4681 3.99808 7.9117C4.95101 4.35526 8.51649 2.22057 11.9618 3.14374C15.4071 4.0669 17.4276 7.69834 16.4746 11.2548Z" fill="#FFB423"/>
<path fill-rule="evenodd" clip-rule="evenodd" d="M16.877 11.3627C15.8678 15.1293 12.0825 17.4112 8.403 16.4253C4.72346 15.4394 2.58631 11.5705 3.59556 7.80393C4.60481 4.03735 8.39006 1.75541 12.0696 2.74135C15.7491 3.72727 17.8863 7.59612 16.877 11.3627ZM8.51083 16.0228C11.9561 16.946 15.5216 14.8113 16.4746 11.2548C17.4275 7.69841 15.4071 4.06697 11.9617 3.14381C8.51646 2.22064 4.95098 4.35533 3.99802 7.91177C3.04508 11.4682 5.06554 15.0997 8.51083 16.0228Z" fill="#5B3303"/>
<path d="M15.2674 10.9312C14.4932 13.8208 11.6131 15.5598 8.83462 14.8153C6.05617 14.0708 4.43144 11.1248 5.20571 8.23521C5.97996 5.34559 8.86002 3.60663 11.6385 4.35113C14.417 5.09561 16.0417 8.04163 15.2674 10.9312Z" fill="#FFCF23"/>
<path fill-rule="evenodd" clip-rule="evenodd" d="M15.6698 11.0392C14.84 14.1361 11.7421 16.0259 8.72667 15.2179C5.71119 14.4099 3.97331 11.2244 4.80313 8.12751C5.63292 5.03065 8.73075 3.14082 11.7462 3.9488C14.7617 4.7568 16.4996 7.94236 15.6698 11.0392ZM8.83452 14.8155C11.613 15.56 14.493 13.821 15.2673 10.9314C16.0416 8.04178 14.4169 5.09576 11.6384 4.35128C8.85992 3.60678 5.97986 5.34576 5.20559 8.23536C4.43131 11.125 6.05604 14.071 8.83452 14.8155Z" fill="#DF8D12"/>
<path fill-rule="evenodd" clip-rule="evenodd" d="M14.1041 5.87355C13.5317 5.36342 12.8394 4.97792 12.0552 4.7678C9.2767 4.0233 6.39664 5.76227 5.62237 8.65188C5.12274 10.5165 5.62208 12.4047 6.78574 13.7096C5.33014 12.4123 4.64997 10.3092 5.2057 8.23521C5.97997 5.34561 8.86004 3.60663 11.6385 4.35113C12.6241 4.61519 13.4644 5.15625 14.1041 5.87355Z" fill="#FFDD65"/>
<path d="M13.8996 11.9024C13.9674 12.0511 13.9018 12.2265 13.7532 12.2943C13.6045 12.3621 13.429 12.2966 13.3612 12.1479C13.2934 11.9993 13.359 11.8238 13.5076 11.756C13.6563 11.6882 13.8318 11.7537 13.8996 11.9024Z" fill="url(#paint0_linear_2577_163779)"/>
<path d="M15.0915 10.7085C15.1593 10.8572 15.0937 11.0327 14.9451 11.1005C14.7964 11.1683 14.6209 11.1028 14.5531 10.9541C14.4853 10.8054 14.5509 10.63 14.6995 10.5622C14.8482 10.4943 15.0237 10.5599 15.0915 10.7085Z" fill="url(#paint1_linear_2577_163779)"/>
<path d="M13.6486 10.5884C13.7164 10.7371 13.6509 10.9126 13.5022 10.9804C13.3535 11.0482 13.1781 10.9826 13.1103 10.834C13.0424 10.6853 13.108 10.5098 13.2566 10.442C13.4053 10.3742 13.5808 10.4398 13.6486 10.5884Z" fill="url(#paint2_linear_2577_163779)"/>
<path d="M14.2539 11.0266C14.3011 11.1301 14.2555 11.2523 14.1519 11.2996C14.0484 11.3468 13.9262 11.3011 13.879 11.1976C13.8318 11.0941 13.8774 10.9719 13.9809 10.9246C14.0845 10.8774 14.2067 10.9231 14.2539 11.0266Z" fill="url(#paint3_linear_2577_163779)"/>
<path d="M14.1738 10.1225C14.2211 10.2261 14.1754 10.3483 14.0719 10.3955C13.9683 10.4427 13.8461 10.3971 13.7989 10.2935C13.7517 10.19 13.7973 10.0678 13.9009 10.0206C14.0044 9.97336 14.1266 10.019 14.1738 10.1225Z" fill="url(#paint4_linear_2577_163779)"/>
<path d="M15.1147 9.91991C15.162 10.0234 15.1163 10.1456 15.0128 10.1929C14.9093 10.2401 14.7871 10.1945 14.7398 10.0909C14.6926 9.98739 14.7382 9.86518 14.8418 9.81795C14.9453 9.77072 15.0675 9.81637 15.1147 9.91991Z" fill="url(#paint5_linear_2577_163779)"/>
<path d="M15.2363 8.63327C15.2835 8.73681 15.2379 8.85902 15.1344 8.90625C15.0308 8.95345 14.9086 8.90781 14.8614 8.80429C14.8142 8.70075 14.8598 8.57854 14.9634 8.53133C15.0669 8.4841 15.1891 8.52975 15.2363 8.63327Z" fill="url(#paint6_linear_2577_163779)"/>
<path d="M14.5986 9.47582C14.6458 9.57934 14.6002 9.70155 14.4967 9.74877C14.3931 9.796 14.2709 9.75036 14.2237 9.64682C14.1765 9.5433 14.2221 9.42109 14.3257 9.37386C14.4292 9.32663 14.5514 9.37228 14.5986 9.47582Z" fill="url(#paint7_linear_2577_163779)"/>
<path d="M14.7671 11.5764C14.8143 11.6799 14.7687 11.8021 14.6651 11.8494C14.5616 11.8966 14.4394 11.8509 14.3922 11.7474C14.3449 11.6439 14.3906 11.5217 14.4941 11.4744C14.5977 11.4272 14.7199 11.4729 14.7671 11.5764Z" fill="url(#paint8_linear_2577_163779)"/>
<path d="M13.83 12.7924C13.8737 12.888 13.8315 13.001 13.7358 13.0446C13.6401 13.0883 13.5272 13.0461 13.4835 12.9504C13.4399 12.8547 13.4821 12.7418 13.5777 12.6981C13.6734 12.6545 13.7864 12.6967 13.83 12.7924Z" fill="url(#paint9_linear_2577_163779)"/>
<path d="M14.2782 12.2752C14.3049 12.3338 14.2791 12.4029 14.2206 12.4296C14.162 12.4563 14.0929 12.4305 14.0662 12.3719C14.0395 12.3134 14.0653 12.2443 14.1238 12.2176C14.1824 12.1909 14.2515 12.2167 14.2782 12.2752Z" fill="url(#paint10_linear_2577_163779)"/>
<path d="M13.4546 11.3215C13.4909 11.4012 13.4558 11.4952 13.3761 11.5315C13.2965 11.5678 13.2025 11.5327 13.1662 11.4531C13.1299 11.3734 13.165 11.2794 13.2446 11.2431C13.3243 11.2068 13.4183 11.2419 13.4546 11.3215Z" fill="url(#paint11_linear_2577_163779)"/>
<path d="M14.6597 8.82078C14.696 8.90042 14.6609 8.99442 14.5812 9.03076C14.5016 9.06709 14.4076 9.03197 14.3713 8.95234C14.3349 8.87269 14.3701 8.77869 14.4497 8.74236C14.5293 8.70603 14.6233 8.74115 14.6597 8.82078Z" fill="url(#paint12_linear_2577_163779)"/>
<path d="M15.1353 9.40526C15.1716 9.48489 15.1365 9.57891 15.0568 9.61522C14.9772 9.65155 14.8832 9.61643 14.8468 9.5368C14.8105 9.45716 14.8456 9.36316 14.9253 9.32682C15.0049 9.29051 15.0989 9.32562 15.1353 9.40526Z" fill="url(#paint13_linear_2577_163779)"/>
<path d="M13.2515 12.4419C13.2878 12.5215 13.2527 12.6155 13.173 12.6518C13.0934 12.6882 12.9994 12.6531 12.9631 12.5734C12.9267 12.4938 12.9618 12.3998 13.0415 12.3634C13.1211 12.3271 13.2151 12.3622 13.2515 12.4419Z" fill="url(#paint14_linear_2577_163779)"/>
<path d="M13.1621 13.3655C13.1984 13.4451 13.1633 13.5391 13.0837 13.5754C13.004 13.6118 12.91 13.5767 12.8737 13.497C12.8374 13.4174 12.8725 13.3234 12.9521 13.287C13.0318 13.2507 13.1258 13.2858 13.1621 13.3655Z" fill="url(#paint15_linear_2577_163779)"/>
<path fill-rule="evenodd" clip-rule="evenodd" d="M9.36113 6.25792C9.93267 6.05069 10.5573 6.08719 11.0708 6.19704C11.5696 6.30375 11.9918 6.45888 12.3544 6.70238C12.7231 6.9499 12.9783 7.25386 13.1887 7.57884C13.4389 7.96515 13.3285 8.48111 12.9422 8.73125C12.5558 8.98142 12.0399 8.87102 11.7897 8.48471C11.6599 8.28417 11.5516 8.17082 11.4254 8.08611C11.2933 7.99738 11.0892 7.90536 10.7222 7.82684C10.3698 7.75146 10.0939 7.76506 9.92926 7.82477C9.85669 7.85109 9.81636 7.88209 9.79057 7.91115C9.76578 7.93911 9.72732 7.99565 9.70188 8.11454C9.67644 8.23346 9.6884 8.30077 9.69959 8.33644C9.71121 8.3735 9.73534 8.41829 9.7908 8.47198C9.91661 8.59384 10.1628 8.71915 10.5151 8.79452C11.0286 8.90438 11.6135 9.12665 12.0503 9.54957C12.5299 10.0141 12.7761 10.6743 12.6095 11.4529C12.4429 12.2316 11.9482 12.7333 11.3204 12.9609C10.7489 13.1681 10.1243 13.1316 9.61076 13.0218C8.54009 12.7927 7.81744 12.2152 7.46749 11.5981C7.24044 11.1978 7.38094 10.6892 7.78128 10.4622C8.18163 10.2351 8.69021 10.3756 8.91726 10.776C9.00559 10.9318 9.29846 11.2506 9.95942 11.392C10.3118 11.4674 10.5877 11.4538 10.7523 11.3941C10.8249 11.3678 10.8652 11.3367 10.891 11.3077C10.9158 11.2797 10.9543 11.2232 10.9797 11.1043C11.0051 10.9854 10.9932 10.9181 10.982 10.8824C10.9704 10.8453 10.9462 10.8005 10.8908 10.7468C10.765 10.625 10.5188 10.4997 10.1665 10.4243C9.65294 10.3144 9.06805 10.0922 8.63134 9.66925C8.15165 9.20471 7.90551 8.54459 8.07209 7.76588C8.23869 6.98719 8.73338 6.48554 9.36113 6.25792Z" fill="#C37808"/>
<path fill-rule="evenodd" clip-rule="evenodd" d="M11.3485 4.89825C11.7985 4.99454 12.0853 5.43743 11.989 5.88748L11.7275 7.10981C11.6312 7.55987 11.1883 7.84666 10.7383 7.75037C10.2882 7.6541 10.0014 7.21121 10.0977 6.76114L10.3592 5.53881C10.4555 5.08875 10.8984 4.80198 11.3485 4.89825Z" fill="#C37808"/>
<path fill-rule="evenodd" clip-rule="evenodd" d="M9.95929 11.3919C10.4093 11.4882 10.6961 11.9311 10.5998 12.3811L10.3383 13.6035C10.2421 14.0535 9.79916 14.3403 9.34912 14.244C8.89906 14.1477 8.61226 13.7049 8.70856 13.2548L8.97006 12.0325C9.06635 11.5824 9.50922 11.2956 9.95929 11.3919Z" fill="#C37808"/>
<path fill-rule="evenodd" clip-rule="evenodd" d="M9.53825 6.74748C9.98264 6.58636 10.4983 6.60719 10.9614 6.70627C11.419 6.80417 11.773 6.93959 12.0637 7.13471C12.3566 7.33136 12.5658 7.57573 12.7511 7.86184C12.8449 8.00669 12.8035 8.20019 12.6586 8.294C12.5138 8.38779 12.3203 8.3464 12.2265 8.20155C12.0714 7.96211 11.9172 7.78919 11.7153 7.65361C11.5111 7.5165 11.2389 7.40477 10.8307 7.31744C10.428 7.23129 10.0431 7.22923 9.75129 7.33505C9.48056 7.43321 9.27294 7.62786 9.19214 8.0055C9.11135 8.38315 9.22116 8.64571 9.42804 8.84605C9.65102 9.06198 10.0031 9.21759 10.4057 9.30373C10.8689 9.40282 11.3479 9.5948 11.6875 9.92363C12.0432 10.2681 12.2274 10.7475 12.0997 11.3439C11.9722 11.9403 11.608 12.3024 11.1425 12.4712C10.6981 12.6323 10.1824 12.6115 9.71929 12.5124C8.77664 12.3107 8.18831 11.814 7.92012 11.3411C7.83498 11.191 7.88766 11.0003 8.03779 10.9151C8.18791 10.83 8.37864 10.8827 8.46377 11.0328C8.63387 11.3328 9.06104 11.7324 9.85004 11.9012C10.2527 11.9874 10.6376 11.9894 10.9294 11.8836C11.2002 11.7854 11.4078 11.5908 11.4886 11.2131C11.5694 10.8355 11.4596 10.5729 11.2527 10.3726C11.0297 10.1567 10.6777 10.0011 10.275 9.91492C9.81185 9.81584 9.33279 9.62386 8.99323 9.29502C8.63756 8.95059 8.45339 8.47115 8.58098 7.87475C8.70856 7.27836 9.07277 6.91625 9.53825 6.74748Z" fill="#FFB423"/>
<path fill-rule="evenodd" clip-rule="evenodd" d="M11.2396 5.40761C11.4083 5.44372 11.5159 5.60982 11.4798 5.77857L11.2182 7.00093C11.1821 7.1697 11.0161 7.27724 10.8473 7.24113C10.6785 7.20503 10.571 7.03895 10.6071 6.87018L10.8686 5.64782C10.9047 5.47905 11.0708 5.37151 11.2396 5.40761Z" fill="#FFB423"/>
<path fill-rule="evenodd" clip-rule="evenodd" d="M9.85037 11.9013C10.0191 11.9374 10.1267 12.1035 10.0906 12.2722L9.82908 13.4946C9.79298 13.6633 9.6269 13.7709 9.45812 13.7348C9.28935 13.6987 9.18181 13.5326 9.21792 13.3638L9.47942 12.1415C9.51552 11.9727 9.6816 11.8652 9.85037 11.9013Z" fill="#FFB423"/>
<path fill-rule="evenodd" clip-rule="evenodd" d="M4.51535 7.59097C4.40757 7.5507 4.35285 7.43068 4.39312 7.32288C5.11222 5.39851 6.72262 3.90918 8.72268 3.35718C8.8336 3.32655 8.94833 3.39165 8.97893 3.50257C9.00953 3.61349 8.94445 3.72822 8.83353 3.75882C6.96322 4.27503 5.45614 5.66853 4.78343 7.46874C4.74316 7.57653 4.62314 7.63124 4.51535 7.59097Z" fill="#FFCF72"/>
<path fill-rule="evenodd" clip-rule="evenodd" d="M15.4273 12.7405C15.5246 12.8019 15.5537 12.9306 15.4922 13.0279C15.0049 13.7993 14.3587 14.4604 13.5996 14.9651C13.5038 15.0288 13.3744 15.0028 13.3107 14.907C13.2471 14.8112 13.2731 14.6818 13.3689 14.6181C14.0792 14.1458 14.6839 13.5272 15.1399 12.8053C15.2014 12.7081 15.3301 12.679 15.4273 12.7405Z" fill="#FFCF72"/>
<path fill-rule="evenodd" clip-rule="evenodd" d="M6.8104 4.75661C6.81045 4.75659 6.81036 4.75665 6.8104 4.75661L6.69484 4.58328C6.8104 4.75661 6.81038 4.75663 6.8104 4.75661L6.80965 4.75713L6.80543 4.76001C6.80149 4.7627 6.79534 4.76697 6.78715 4.77272C6.77082 4.78422 6.74647 4.80174 6.71568 4.82482C6.65405 4.87103 6.56707 4.93936 6.46745 5.02653C6.26705 5.20186 6.02109 5.44865 5.82653 5.74051C5.7627 5.83624 5.63334 5.86211 5.53761 5.79828C5.44188 5.73447 5.41601 5.60511 5.47984 5.50938C5.70193 5.17624 5.9768 4.9022 6.19307 4.71295C6.30178 4.61782 6.39709 4.54293 6.46568 4.49149C6.50001 4.46574 6.52772 4.4458 6.54718 4.43209C6.55693 4.42524 6.56459 4.41992 6.57001 4.41622L6.57643 4.41186L6.5783 4.41059L6.5789 4.4102L6.57911 4.41005C6.57915 4.41001 6.57928 4.40993 6.69484 4.58328L6.57911 4.41005C6.67486 4.34622 6.80436 4.37199 6.8682 4.46772C6.93199 4.5634 6.90603 4.69278 6.8104 4.75661Z" fill="#FFE9AF"/>
<path fill-rule="evenodd" clip-rule="evenodd" d="M7.6439 5.79836C7.64394 5.79834 7.64386 5.7984 7.6439 5.79836L7.52834 5.62503C7.6439 5.79836 7.64388 5.79838 7.6439 5.79836L7.64315 5.79888L7.63892 5.80176C7.63498 5.80444 7.62884 5.80871 7.62065 5.81446C7.60432 5.82596 7.57996 5.84349 7.54917 5.86657C7.48755 5.91278 7.40057 5.98111 7.30094 6.06828C7.10055 6.24361 6.85459 6.4904 6.66003 6.78226C6.59619 6.87799 6.46684 6.90386 6.37111 6.84003C6.27538 6.77622 6.2495 6.64686 6.31334 6.55113C6.53542 6.21799 6.8103 5.94394 7.02657 5.75469C7.13528 5.65957 7.23059 5.58467 7.29917 5.53324C7.3335 5.50749 7.36121 5.48755 7.38067 5.47384C7.39042 5.46699 7.39809 5.46167 7.4035 5.45796L7.40992 5.45361L7.4118 5.45234L7.4124 5.45194L7.41261 5.4518C7.41265 5.45176 7.41278 5.45167 7.52834 5.62503L7.41261 5.4518C7.50836 5.38796 7.63786 5.41374 7.70169 5.50946C7.76548 5.60515 7.73952 5.73453 7.6439 5.79836Z" fill="white"/>
<defs>
<linearGradient id="paint0_linear_2577_163779" x1="13.9263" y1="12.3211" x2="13.2221" y2="12.1169" gradientUnits="userSpaceOnUse">
<stop stop-color="#F9DB43"/>
<stop offset="1" stop-color="#FD495E"/>
</linearGradient>
<linearGradient id="paint1_linear_2577_163779" x1="15.1182" y1="11.1272" x2="14.414" y2="10.9231" gradientUnits="userSpaceOnUse">
<stop stop-color="#F9DB43"/>
<stop offset="1" stop-color="#FD495E"/>
</linearGradient>
<linearGradient id="paint2_linear_2577_163779" x1="13.6753" y1="11.0071" x2="12.9711" y2="10.8029" gradientUnits="userSpaceOnUse">
<stop stop-color="#F9DB43"/>
<stop offset="1" stop-color="#FD495E"/>
</linearGradient>
<linearGradient id="paint3_linear_2577_163779" x1="14.2725" y1="11.3182" x2="13.7821" y2="11.176" gradientUnits="userSpaceOnUse">
<stop stop-color="#F9DB43"/>
<stop offset="1" stop-color="#FD495E"/>
</linearGradient>
<linearGradient id="paint4_linear_2577_163779" x1="14.1925" y1="10.4141" x2="13.702" y2="10.2719" gradientUnits="userSpaceOnUse">
<stop stop-color="#F9DB43"/>
<stop offset="1" stop-color="#FD495E"/>
</linearGradient>
<linearGradient id="paint5_linear_2577_163779" x1="15.1334" y1="10.2115" x2="14.6429" y2="10.0693" gradientUnits="userSpaceOnUse">
<stop stop-color="#F9DB43"/>
<stop offset="1" stop-color="#FD495E"/>
</linearGradient>
<linearGradient id="paint6_linear_2577_163779" x1="15.2549" y1="8.92487" x2="14.7645" y2="8.78267" gradientUnits="userSpaceOnUse">
<stop stop-color="#F9DB43"/>
<stop offset="1" stop-color="#FD495E"/>
</linearGradient>
<linearGradient id="paint7_linear_2577_163779" x1="14.6173" y1="9.76741" x2="14.1268" y2="9.62521" gradientUnits="userSpaceOnUse">
<stop stop-color="#F9DB43"/>
<stop offset="1" stop-color="#FD495E"/>
</linearGradient>
<linearGradient id="paint8_linear_2577_163779" x1="14.7857" y1="11.868" x2="14.2953" y2="11.7258" gradientUnits="userSpaceOnUse">
<stop stop-color="#F9DB43"/>
<stop offset="1" stop-color="#FD495E"/>
</linearGradient>
<linearGradient id="paint9_linear_2577_163779" x1="13.8472" y1="13.0618" x2="13.394" y2="12.9304" gradientUnits="userSpaceOnUse">
<stop stop-color="#F9DB43"/>
<stop offset="1" stop-color="#FD495E"/>
</linearGradient>
<linearGradient id="paint10_linear_2577_163779" x1="14.2887" y1="12.4401" x2="14.0114" y2="12.3597" gradientUnits="userSpaceOnUse">
<stop stop-color="#F9DB43"/>
<stop offset="1" stop-color="#FD495E"/>
</linearGradient>
<linearGradient id="paint11_linear_2577_163779" x1="13.4689" y1="11.5458" x2="13.0916" y2="11.4364" gradientUnits="userSpaceOnUse">
<stop stop-color="#F9DB43"/>
<stop offset="1" stop-color="#FD495E"/>
</linearGradient>
<linearGradient id="paint12_linear_2577_163779" x1="14.674" y1="9.04509" x2="14.2967" y2="8.93571" gradientUnits="userSpaceOnUse">
<stop stop-color="#F9DB43"/>
<stop offset="1" stop-color="#FD495E"/>
</linearGradient>
<linearGradient id="paint13_linear_2577_163779" x1="15.1496" y1="9.62955" x2="14.7723" y2="9.52016" gradientUnits="userSpaceOnUse">
<stop stop-color="#F9DB43"/>
<stop offset="1" stop-color="#FD495E"/>
</linearGradient>
<linearGradient id="paint14_linear_2577_163779" x1="13.2658" y1="12.6662" x2="12.8885" y2="12.5568" gradientUnits="userSpaceOnUse">
<stop stop-color="#F9DB43"/>
<stop offset="1" stop-color="#FD495E"/>
</linearGradient>
<linearGradient id="paint15_linear_2577_163779" x1="13.1764" y1="13.5898" x2="12.7992" y2="13.4804" gradientUnits="userSpaceOnUse">
<stop stop-color="#F9DB43"/>
<stop offset="1" stop-color="#FD495E"/>
</linearGradient>
</defs>
</svg>
