<svg width="24" height="24" viewBox="0 0 32 33" fill="none" xmlns="http://www.w3.org/2000/svg">
<path d="M26.3145 19.3452C24.7898 25.0355 19.085 28.451 13.5726 26.9739C8.06006 25.4969 4.82733 19.6866 6.35206 13.9963C7.87676 8.30598 13.5815 4.89047 19.094 6.36754C24.6065 7.84461 27.8392 13.6549 26.3145 19.3452Z" fill="#A56402"/>
<path fill-rule="evenodd" clip-rule="evenodd" d="M26.9585 19.5178C25.3438 25.5443 19.2873 29.1954 13.4001 27.6179C7.51282 26.0404 4.09338 19.8503 5.70818 13.8237C7.32298 7.79721 13.3794 4.14611 19.2667 5.72361C25.1539 7.30108 28.5734 13.4912 26.9585 19.5178ZM13.5726 26.974C19.0851 28.451 24.7899 25.0355 26.3146 19.3452C27.8393 13.6549 24.6066 7.84461 19.0941 6.36754C13.5816 4.89048 7.87685 8.30598 6.35212 13.9963C4.82742 19.6866 8.06015 25.4969 13.5726 26.974Z" fill="#5B3303"/>
<path d="M25.6478 18.6785C24.1231 24.3688 18.4183 27.7843 12.9059 26.3073C7.39338 24.8302 4.16064 19.0199 5.68538 13.3296C7.21008 7.63929 12.9148 4.22379 18.4273 5.70085C23.9398 7.17792 27.1725 12.9882 25.6478 18.6785Z" fill="#FFB423"/>
<path fill-rule="evenodd" clip-rule="evenodd" d="M26.2919 18.8511C24.6771 24.8776 18.6206 28.5287 12.7334 26.9512C6.84613 25.3738 3.4267 19.1836 5.0415 13.1571C6.6563 7.13052 12.7127 3.47943 18.6 5.05692C24.4872 6.63439 27.9067 12.8246 26.2919 18.8511ZM12.9059 26.3073C18.4184 27.7844 24.1232 24.3688 25.6479 18.6785C27.1726 12.9882 23.9399 7.17792 18.4274 5.70086C12.9149 4.22379 7.21016 7.63929 5.68543 13.3296C4.16073 19.0199 7.39346 24.8302 12.9059 26.3073Z" fill="#5B3303"/>
<path d="M23.7161 18.1609C22.4772 22.7843 17.8691 25.5666 13.4236 24.3754C8.97803 23.1843 6.37846 18.4706 7.61729 13.8473C8.85609 9.22385 13.4642 6.44152 17.9098 7.63272C22.3553 8.82389 24.9549 13.5375 23.7161 18.1609Z" fill="#FFCF23"/>
<path fill-rule="evenodd" clip-rule="evenodd" d="M24.36 18.3335C23.0323 23.2884 18.0758 26.3122 13.251 25.0194C8.42627 23.7266 5.64567 18.6297 6.97337 13.6747C8.30104 8.71972 13.2576 5.69599 18.0823 6.98875C22.9071 8.28155 25.6877 13.3785 24.36 18.3335ZM13.4236 24.3754C17.8691 25.5666 22.4772 22.7843 23.7161 18.1609C24.9549 13.5375 22.3553 8.82389 17.9098 7.63272C13.4642 6.44152 8.85614 9.22389 7.6173 13.8473C6.37847 18.4706 8.97804 23.1843 13.4236 24.3754Z" fill="#DF8D12"/>
<path fill-rule="evenodd" clip-rule="evenodd" d="M21.8546 10.0686C20.9388 9.25244 19.8311 8.63564 18.5764 8.29944C14.1308 7.10824 9.52272 9.89061 8.28389 14.514C7.48449 17.4974 8.28342 20.5184 10.1453 22.6063C7.81632 20.5307 6.72806 17.1657 7.61722 13.8473C8.85606 9.22394 13.4642 6.44158 17.9097 7.63278C19.4866 8.05528 20.8312 8.92098 21.8546 10.0686Z" fill="#FFDD65"/>
<path d="M21.5277 19.7148C21.6362 19.9526 21.5313 20.2334 21.2934 20.3419C21.0556 20.4504 20.7748 20.3455 20.6663 20.1077C20.5578 19.8698 20.6627 19.589 20.9006 19.4805C21.1384 19.3721 21.4192 19.4769 21.5277 19.7148Z" fill="#EEBE14"/>
<path d="M23.4343 17.8045C23.5427 18.0424 23.4379 18.3231 23.2 18.4316C22.9622 18.5401 22.6814 18.4352 22.5729 18.1974C22.4644 17.9595 22.5693 17.6788 22.8071 17.5703C23.045 17.4618 23.3258 17.5667 23.4343 17.8045Z" fill="#EEBE14"/>
<path d="M21.1261 17.6124C21.2346 17.8502 21.1298 18.131 20.8919 18.2395C20.6541 18.348 20.3733 18.2431 20.2648 18.0052C20.1563 17.7674 20.2612 17.4866 20.499 17.3781C20.7369 17.2696 21.0177 17.3745 21.1261 17.6124Z" fill="#EEBE14"/>
<path d="M22.0944 18.3133C22.1699 18.4789 22.0969 18.6745 21.9313 18.75C21.7656 18.8256 21.5701 18.7526 21.4945 18.5869C21.419 18.4213 21.492 18.2257 21.6576 18.1502C21.8233 18.0746 22.0188 18.1476 22.0944 18.3133Z" fill="#EEBE14"/>
<path d="M21.9662 16.867C22.0417 17.0326 21.9687 17.2281 21.803 17.3037C21.6374 17.3793 21.4419 17.3062 21.3663 17.1406C21.2907 16.9749 21.3638 16.7794 21.5294 16.7038C21.6951 16.6283 21.8906 16.7013 21.9662 16.867Z" fill="#EEBE14"/>
<path d="M23.4718 16.5425C23.5474 16.7081 23.4743 16.9037 23.3087 16.9792C23.1431 17.0548 22.9475 16.9818 22.872 16.8161C22.7964 16.6505 22.8694 16.4549 23.0351 16.3794C23.2007 16.3038 23.3963 16.3768 23.4718 16.5425Z" fill="#EEBE14"/>
<path d="M23.6664 14.4841C23.7419 14.6498 23.6689 14.8453 23.5032 14.9209C23.3376 14.9964 23.1421 14.9234 23.0665 14.7577C22.9909 14.5921 23.064 14.3965 23.2296 14.321C23.3953 14.2454 23.5908 14.3185 23.6664 14.4841Z" fill="#EEBE14"/>
<path d="M22.646 15.8321C22.7216 15.9977 22.6486 16.1933 22.4829 16.2688C22.3173 16.3444 22.1217 16.2714 22.0462 16.1057C21.9706 15.9401 22.0437 15.7445 22.2093 15.669C22.375 15.5934 22.5705 15.6664 22.646 15.8321Z" fill="#EEBE14"/>
<path d="M22.9157 19.1931C22.9912 19.3588 22.9182 19.5543 22.7525 19.6299C22.5869 19.7054 22.3914 19.6324 22.3158 19.4667C22.2403 19.3011 22.3133 19.1056 22.4789 19.03C22.6446 18.9544 22.8401 19.0275 22.9157 19.1931Z" fill="#EEBE14"/>
<path d="M21.4161 21.1385C21.486 21.2916 21.4185 21.4723 21.2654 21.5422C21.1123 21.612 20.9316 21.5445 20.8618 21.3914C20.7919 21.2383 20.8594 21.0576 21.0125 20.9878C21.1656 20.9179 21.3463 20.9854 21.4161 21.1385Z" fill="#EEBE14"/>
<path d="M22.1333 20.3113C22.1761 20.405 22.1348 20.5155 22.0411 20.5583C21.9474 20.601 21.8369 20.5597 21.7941 20.466C21.7514 20.3724 21.7927 20.2618 21.8864 20.2191C21.98 20.1763 22.0906 20.2176 22.1333 20.3113Z" fill="#EEBE14"/>
<path d="M20.8157 18.7853C20.8738 18.9127 20.8177 19.0631 20.6902 19.1212C20.5628 19.1793 20.4124 19.1231 20.3543 18.9957C20.2962 18.8683 20.3524 18.7179 20.4798 18.6598C20.6072 18.6016 20.7576 18.6578 20.8157 18.7853Z" fill="#EEBE14"/>
<path d="M22.7441 14.784C22.8022 14.9114 22.746 15.0618 22.6186 15.1199C22.4912 15.1781 22.3408 15.1219 22.2826 14.9945C22.2245 14.867 22.2807 14.7166 22.4081 14.6585C22.5355 14.6004 22.686 14.6566 22.7441 14.784Z" fill="#EEBE14"/>
<path d="M23.505 15.7191C23.5631 15.8465 23.5069 15.9969 23.3795 16.055C23.2521 16.1132 23.1017 16.057 23.0435 15.9296C22.9854 15.8021 23.0416 15.6517 23.169 15.5936C23.2965 15.5355 23.4469 15.5917 23.505 15.7191Z" fill="#EEBE14"/>
<path d="M20.4908 20.5779C20.5489 20.7053 20.4928 20.8558 20.3653 20.9139C20.2379 20.972 20.0875 20.9158 20.0294 20.7884C19.9713 20.661 20.0274 20.5106 20.1549 20.4524C20.2823 20.3943 20.4327 20.4505 20.4908 20.5779Z" fill="#EEBE14"/>
<path d="M20.3473 22.0556C20.4054 22.183 20.3492 22.3334 20.2218 22.3915C20.0944 22.4497 19.944 22.3935 19.8858 22.2661C19.8277 22.1386 19.8839 21.9882 20.0113 21.9301C20.1387 21.872 20.2891 21.9282 20.3473 22.0556Z" fill="#EEBE14"/>
<path fill-rule="evenodd" clip-rule="evenodd" d="M14.2659 10.6833C15.1804 10.3518 16.1798 10.4102 17.0014 10.5859C17.7994 10.7567 18.4749 11.0049 19.0552 11.3945C19.645 11.7905 20.0533 12.2768 20.39 12.7968C20.7903 13.4149 20.6136 14.2404 19.9955 14.6407C19.3774 15.0409 18.5519 14.8643 18.1516 14.2462C17.9439 13.9253 17.7706 13.744 17.5687 13.6084C17.3573 13.4665 17.0308 13.3192 16.4435 13.1936C15.8798 13.073 15.4384 13.0948 15.1749 13.1903C15.0588 13.2324 14.9943 13.282 14.953 13.3285C14.9133 13.3732 14.8518 13.4637 14.8111 13.6539C14.7704 13.8442 14.7895 13.9519 14.8074 14.009C14.826 14.0683 14.8646 14.1399 14.9534 14.2258C15.1547 14.4208 15.5486 14.6213 16.1123 14.7419C16.9339 14.9177 17.8697 15.2733 18.5685 15.95C19.336 16.6932 19.7298 17.7495 19.4633 18.9954C19.1967 20.2413 18.4052 21.0439 17.4008 21.4081C16.4863 21.7397 15.4869 21.6813 14.6653 21.5055C12.9522 21.139 11.796 20.215 11.2361 19.2277C10.8728 18.5871 11.0976 17.7734 11.7381 17.4101C12.3787 17.0469 13.1924 17.2717 13.5557 17.9122C13.697 18.1615 14.1656 18.6716 15.2232 18.8979C15.7869 19.0184 16.2284 18.9967 16.4918 18.9012C16.6079 18.8591 16.6725 18.8094 16.7137 18.763C16.7534 18.7182 16.8149 18.6278 16.8556 18.4375C16.8963 18.2473 16.8772 18.1396 16.8593 18.0825C16.8407 18.0232 16.8021 17.9515 16.7134 17.8656C16.512 17.6706 16.1181 17.4702 15.5544 17.3496C14.7328 17.1738 13.797 16.8182 13.0982 16.1415C12.3307 15.3982 11.9369 14.342 12.2034 13.0961C12.47 11.8502 13.2615 11.0475 14.2659 10.6833Z" fill="#C37808"/>
<path fill-rule="evenodd" clip-rule="evenodd" d="M17.4459 8.50798C18.166 8.66205 18.6249 9.37068 18.4708 10.0908L18.0524 12.0465C17.8984 12.7666 17.1898 13.2255 16.4697 13.0714C15.7496 12.9174 15.2907 12.2087 15.4448 11.4886L15.8632 9.53288C16.0172 8.81278 16.7258 8.35395 17.4459 8.50798Z" fill="#C37808"/>
<path fill-rule="evenodd" clip-rule="evenodd" d="M15.2231 18.8979C15.9432 19.0519 16.402 19.7606 16.248 20.4807L15.8296 22.4364C15.6755 23.1565 14.9669 23.6154 14.2468 23.4613C13.5267 23.3072 13.0679 22.5986 13.2219 21.8785L13.6403 19.9228C13.7944 19.2027 14.503 18.7438 15.2231 18.8979Z" fill="#C37808"/>
<path fill-rule="evenodd" clip-rule="evenodd" d="M14.5499 11.4668C15.2609 11.209 16.0859 11.2423 16.827 11.4009C17.5591 11.5575 18.1255 11.7742 18.5906 12.0864C19.0592 12.401 19.394 12.792 19.6904 13.2498C19.8405 13.4815 19.7743 13.7911 19.5425 13.9412C19.3107 14.0913 19.0011 14.0251 18.851 13.7933C18.603 13.4102 18.3563 13.1335 18.0332 12.9166C17.7064 12.6972 17.2709 12.5185 16.6178 12.3787C15.9735 12.2409 15.3576 12.2376 14.8907 12.4069C14.4576 12.564 14.1254 12.8754 13.9961 13.4796C13.8668 14.0839 14.0425 14.504 14.3735 14.8245C14.7303 15.17 15.2936 15.419 15.9379 15.5568C16.6789 15.7153 17.4454 16.0225 17.9887 16.5486C18.5577 17.0998 18.8524 17.8668 18.6483 18.8211C18.4441 19.7753 17.8614 20.3547 17.1166 20.6247C16.4056 20.8825 15.5806 20.8492 14.8395 20.6906C13.3313 20.368 12.39 19.5733 11.9609 18.8166C11.8246 18.5764 11.9089 18.2713 12.1491 18.1351C12.3893 17.9988 12.6945 18.0831 12.8307 18.3233C13.1029 18.8032 13.7863 19.4427 15.0487 19.7128C15.693 19.8506 16.3089 19.8539 16.7758 19.6846C17.2089 19.5275 17.5411 19.2161 17.6704 18.6119C17.7997 18.0076 17.624 17.5875 17.293 17.267C16.9362 16.9215 16.373 16.6725 15.7287 16.5347C14.9876 16.3762 14.2211 16.069 13.6778 15.5429C13.1088 14.9918 12.8141 14.2247 13.0182 13.2704C13.2224 12.3162 13.8051 11.7368 14.5499 11.4668Z" fill="#FFB423"/>
<path fill-rule="evenodd" clip-rule="evenodd" d="M17.2717 9.32281C17.5417 9.38058 17.7138 9.64635 17.656 9.91635L17.2376 11.8721C17.1798 12.1421 16.9141 12.3142 16.644 12.2564C16.374 12.1987 16.2019 11.9329 16.2597 11.6629L16.6781 9.70715C16.7359 9.43711 17.0016 9.26505 17.2717 9.32281Z" fill="#FFB423"/>
<path fill-rule="evenodd" clip-rule="evenodd" d="M15.0489 19.7127C15.3189 19.7705 15.491 20.0362 15.4332 20.3062L15.0148 22.262C14.957 22.532 14.6913 22.7041 14.4213 22.6463C14.1512 22.5886 13.9792 22.3228 14.0369 22.0528L14.4553 20.097C14.5131 19.827 14.7788 19.6549 15.0489 19.7127Z" fill="#FFB423"/>
<path fill-rule="evenodd" clip-rule="evenodd" d="M6.51301 12.8163C6.34057 12.7519 6.25301 12.5599 6.31744 12.3874C7.46801 9.30839 10.0446 6.92546 13.2447 6.04226C13.4222 5.99326 13.6058 6.09742 13.6547 6.27489C13.7037 6.45236 13.5996 6.63592 13.4221 6.68489C10.4296 7.51082 8.01827 9.74042 6.94194 12.6208C6.87751 12.7932 6.68547 12.8808 6.51301 12.8163Z" fill="#FFCF72"/>
<path fill-rule="evenodd" clip-rule="evenodd" d="M23.9719 21.0556C24.1275 21.1539 24.174 21.3598 24.0757 21.5154C23.296 22.7498 22.2621 23.8074 21.0475 24.615C20.8942 24.7169 20.6873 24.6753 20.5854 24.522C20.4835 24.3687 20.5251 24.1617 20.6784 24.0598C21.8149 23.3041 22.7825 22.3143 23.5121 21.1594C23.6104 21.0037 23.8163 20.9573 23.9719 21.0556Z" fill="#FFCF72"/>
<path fill-rule="evenodd" clip-rule="evenodd" d="M10.1849 8.28142C10.1849 8.28148 10.185 8.28138 10.1849 8.28142L10 8.00408C10.1849 8.28142 10.1849 8.28145 10.1849 8.28142L10.1837 8.28225L10.177 8.28685C10.1707 8.29115 10.1608 8.29798 10.1477 8.30718C10.1216 8.32558 10.0826 8.35362 10.0334 8.39055C9.93476 8.46448 9.79559 8.57382 9.63619 8.71328C9.31556 8.99382 8.92203 9.38868 8.61073 9.85565C8.50859 10.0088 8.30163 10.0502 8.14846 9.94808C7.99529 9.84598 7.9539 9.63902 8.05603 9.48585C8.41136 8.95282 8.85116 8.51435 9.19719 8.21155C9.37113 8.05935 9.52363 7.93952 9.63336 7.85722C9.68829 7.81602 9.73263 7.78412 9.76376 7.76218C9.77936 7.75122 9.79163 7.74272 9.80029 7.73678L9.81056 7.72982L9.81356 7.72778L9.81453 7.72715L9.81486 7.72692C9.81493 7.72685 9.81513 7.72672 10 8.00408L9.81486 7.72692C9.96806 7.62478 10.1753 7.66602 10.2774 7.81918C10.3795 7.97228 10.3379 8.17928 10.1849 8.28142Z" fill="#FFE9AF"/>
<path fill-rule="evenodd" clip-rule="evenodd" d="M11.5182 9.9481C11.5182 9.94817 11.5183 9.94807 11.5182 9.9481L11.3333 9.67077C11.5182 9.9481 11.5182 9.94814 11.5182 9.9481L11.517 9.94894L11.5103 9.95354C11.504 9.95784 11.4941 9.96467 11.481 9.97387C11.4549 9.99227 11.4159 10.0203 11.3667 10.0572C11.2681 10.1312 11.1289 10.2405 10.9695 10.38C10.6489 10.6605 10.2553 11.0554 9.94404 11.5223C9.84191 11.6755 9.63494 11.7169 9.48177 11.6148C9.32861 11.5127 9.28721 11.3057 9.38934 11.1525C9.74467 10.6195 10.1845 10.181 10.5305 9.87824C10.7044 9.72604 10.8569 9.6062 10.9667 9.5239C11.0216 9.4827 11.0659 9.4508 11.0971 9.42887C11.1127 9.4179 11.1249 9.4094 11.1336 9.40347L11.1439 9.3965L11.1469 9.39447L11.1478 9.39384L11.1482 9.3936C11.1482 9.39354 11.1484 9.3934 11.3333 9.67077L11.1482 9.3936C11.3014 9.29147 11.5086 9.3327 11.6107 9.48587C11.7128 9.63897 11.6712 9.84597 11.5182 9.9481Z" fill="white"/>
</svg>
