<svg width="28" height="28" viewBox="0 0 21 20" fill="none" xmlns="http://www.w3.org/2000/svg">
<path d="M18.5142 7.70825L10.3892 17.7083L2.26416 7.70825L6.63916 2.70825H14.1392L18.5142 7.70825Z" fill="#38ACFF"/>
<path fill-rule="evenodd" clip-rule="evenodd" d="M10.3893 18.1251C10.2638 18.1251 10.1451 18.0685 10.0659 17.9712L1.94094 7.97116C1.81295 7.81362 1.81709 7.58679 1.95075 7.43404L6.32574 2.43404C6.40486 2.34362 6.51918 2.29175 6.63932 2.29175H14.1393C14.2595 2.29175 14.3738 2.34362 14.4529 2.43404L18.8279 7.43404C18.9616 7.58679 18.9657 7.81362 18.8377 7.97116L10.7127 17.9712C10.6336 18.0685 10.5148 18.1251 10.3893 18.1251ZM6.63932 2.70841H14.1393L18.5143 7.70841L10.3893 17.7084L2.26432 7.70841L6.63932 2.70841Z" fill="#042360"/>
<path d="M14.1392 2.70825L18.5142 7.70825H2.26416L6.63916 2.70825H14.1392Z" fill="#63BDFF"/>
<path d="M18.5142 7.70825L10.3892 17.7083V2.70825H14.1392L18.5142 7.70825Z" fill="#2D88F3"/>
<path d="M18.5142 7.70825H10.3892V2.70825H14.1392L18.5142 7.70825Z" fill="#53A1FE"/>
<path d="M2.26416 7.70825L10.3892 17.7083L6.22249 7.70825L10.3892 2.70825H6.63916L2.26416 7.70825Z" fill="#46CAF3"/>
<path d="M6.84749 2.70825L2.26416 7.70825H6.22249L10.3892 2.70825H6.84749Z" fill="#68DBFF"/>
<path d="M2.26416 7.70825L10.3892 17.7083L3.72249 7.70825L8.09749 2.70825H6.63916L2.26416 7.70825Z" fill="#C1E9FF"/>
<path d="M6.63916 2.70825L2.26416 7.70825H3.72249L8.09749 2.70825H6.63916Z" fill="#D8F1FF"/>
<path d="M18.5142 7.70825L10.3892 17.7083L14.5558 7.70825L10.3892 2.70825H14.1392L18.5142 7.70825Z" fill="#4E5CDE"/>
<path d="M14.1392 2.70825L18.5142 7.70825H14.5558L10.3892 2.70825H14.1392Z" fill="#6A78F5"/>
<path d="M18.5142 7.70825L10.3892 17.7083L17.0558 7.70825L12.6808 2.70825H14.1392L18.5142 7.70825Z" fill="#2D88F3"/>
<path d="M14.139 2.70825L18.514 7.70825H17.0557L12.6807 2.70825H14.139Z" fill="#52A1FE"/>
<path fill-rule="evenodd" clip-rule="evenodd" d="M5.94227 4.00915C6.02923 4.08451 6.03862 4.21609 5.96327 4.30303L3.25494 7.42803C3.17958 7.51498 3.048 7.52438 2.96106 7.44903C2.8741 7.37367 2.86471 7.24209 2.94006 7.15515L5.64839 4.03015C5.72375 3.94319 5.85533 3.9338 5.94227 4.00915Z" fill="white"/>
<path fill-rule="evenodd" clip-rule="evenodd" d="M9.90076 4.00915C9.98772 4.08451 9.99712 4.21609 9.92176 4.30303L7.21343 7.42803C7.13808 7.51498 7.00649 7.52438 6.91956 7.44903C6.8326 7.37367 6.8232 7.24209 6.89856 7.15515L9.60689 4.03015C9.68224 3.94319 9.81383 3.9338 9.90076 4.00915Z" fill="#8FD0FF"/>
<path d="M12.2643 10.4166C12.2643 10.5316 12.1711 10.6249 12.056 10.6249C11.9409 10.6249 11.8477 10.5316 11.8477 10.4166C11.8477 10.3015 11.9409 10.2083 12.056 10.2083C12.1711 10.2083 12.2643 10.3015 12.2643 10.4166Z" fill="#2478DC"/>
<path d="M12.8893 11.2501C12.8893 11.3651 12.7961 11.4584 12.681 11.4584C12.5659 11.4584 12.4727 11.3651 12.4727 11.2501C12.4727 11.135 12.5659 11.0417 12.681 11.0417C12.7961 11.0417 12.8893 11.135 12.8893 11.2501Z" fill="#2478DC"/>
<path d="M12.0558 12.2916C12.0558 12.4066 11.9626 12.4999 11.8475 12.4999C11.7324 12.4999 11.6392 12.4066 11.6392 12.2916C11.6392 12.1765 11.7324 12.0833 11.8475 12.0833C11.9626 12.0833 12.0558 12.1765 12.0558 12.2916Z" fill="#2478DC"/>
<path d="M11.4308 12.7083C11.4308 12.8234 11.3376 12.9167 11.2225 12.9167C11.1074 12.9167 11.0142 12.8234 11.0142 12.7083C11.0142 12.5933 11.1074 12.5 11.2225 12.5C11.3376 12.5 11.4308 12.5933 11.4308 12.7083Z" fill="#2478DC"/>
<path d="M11.4308 13.9583C11.4308 14.0734 11.3376 14.1667 11.2225 14.1667C11.1074 14.1667 11.0142 14.0734 11.0142 13.9583C11.0142 13.8433 11.1074 13.75 11.2225 13.75C11.3376 13.75 11.4308 13.8433 11.4308 13.9583Z" fill="#2478DC"/>
<path d="M11.6393 9.79159C11.6393 9.90665 11.5461 9.99992 11.431 9.99992C11.3159 9.99992 11.2227 9.90665 11.2227 9.79159C11.2227 9.67652 11.3159 9.58325 11.431 9.58325C11.5461 9.58325 11.6393 9.67652 11.6393 9.79159Z" fill="#2478DC"/>
<path d="M13.3058 9.37508C13.3058 9.49014 13.2126 9.58341 13.0975 9.58341C12.9824 9.58341 12.8892 9.49014 12.8892 9.37508C12.8892 9.26002 12.9824 9.16675 13.0975 9.16675C13.2126 9.16675 13.3058 9.26002 13.3058 9.37508Z" fill="#2478DC"/>
<path d="M12.4727 9.27075C12.4727 9.44334 12.3327 9.58325 12.1602 9.58325C11.9876 9.58325 11.8477 9.44334 11.8477 9.27075C11.8477 9.09817 11.9876 8.95825 12.1602 8.95825C12.3327 8.95825 12.4727 9.09817 12.4727 9.27075Z" fill="#2478DC"/>
<path d="M12.0557 11.3542C12.0557 11.5268 11.9157 11.6667 11.7432 11.6667C11.5706 11.6667 11.4307 11.5268 11.4307 11.3542C11.4307 11.1817 11.5706 11.0417 11.7432 11.0417C11.9157 11.0417 12.0557 11.1817 12.0557 11.3542Z" fill="#2478DC"/>
</svg>
