<svg width="17" height="21" viewBox="0 0 17 21" fill="none" xmlns="http://www.w3.org/2000/svg">
<g clip-path="url(#clip0_12291_26769)">
<path d="M7.34 9.185C8.72312 7.49075 10 4 10 4C10 4 11.4384 7.47317 12.87 9.185C14.2476 10.8322 17 12.5 17 12.5C17 12.5 14.2159 14.1679 12.87 15.7111C11.3292 17.4778 10 21 10 21C10 21 8.72829 17.4714 7.2 15.7111C5.84321 14.1483 3 12.5 3 12.5C3 12.5 5.93035 10.9117 7.34 9.185Z" fill="url(#paint0_linear_12291_26769)"/>
<path d="M16.528 12.4984C16.4909 12.5219 16.4511 12.5472 16.409 12.5741C16.1246 12.7562 15.7313 13.015 15.2954 13.3226C14.4282 13.9345 13.375 14.7514 12.6814 15.5468C11.8873 16.4573 11.1578 17.8058 10.6313 18.9105C10.369 19.461 10.1544 19.9566 10.0047 20.3166C9.86052 19.9562 9.65381 19.4608 9.39987 18.9109C8.8893 17.8052 8.17724 16.4556 7.38857 15.5472C6.68839 14.7407 5.61638 13.9232 4.73297 13.3137C4.28878 13.0073 3.88754 12.7502 3.59727 12.5697C3.56132 12.5473 3.52706 12.5261 3.49463 12.5062C3.53005 12.4855 3.56761 12.4634 3.60715 12.4399C3.90706 12.2622 4.32166 12.0071 4.78096 11.6973C5.69442 11.0812 6.80461 10.2359 7.53345 9.34308C8.247 8.46902 8.92302 7.1471 9.41612 6.06044C9.66412 5.51392 9.86846 5.02099 10.0108 4.66463C10.0116 4.66273 10.0124 4.66083 10.0131 4.65894C10.0149 4.66303 10.0168 4.66714 10.0186 4.67128C10.1769 5.02601 10.4029 5.51693 10.6741 6.06192C11.2137 7.14628 11.942 8.4653 12.678 9.34536C13.3874 10.1937 14.4407 11.0371 15.3048 11.6627C15.739 11.9771 16.1296 12.2394 16.4118 12.4232C16.4529 12.4499 16.4917 12.475 16.528 12.4984Z" stroke="#757575" stroke-opacity="0.45" stroke-width="0.5"/>
<path d="M4.14 8.865C3.54723 9.56263 3 11 3 11C3 11 2.38355 9.56987 1.77 8.865C1.17961 8.18673 0 7.5 0 7.5C0 7.5 1.18777 6.75893 1.77 6.1C2.4008 5.38611 3 4 3 4C3 4 3.5263 5.39382 4.14 6.1C4.73475 6.78438 6 7.5 6 7.5C6 7.5 4.74413 8.15399 4.14 8.865Z" fill="url(#paint1_linear_12291_26769)"/>
<path d="M2.98731 10.3807C2.94208 10.2883 2.89161 10.1875 2.83687 10.0819C2.60488 9.63395 2.28606 9.07736 1.95837 8.70089C1.64207 8.33751 1.1785 7.98194 0.80616 7.72295C0.68113 7.63598 0.564469 7.55859 0.464355 7.49398C0.566086 7.42493 0.685271 7.34214 0.813056 7.24964C1.18532 6.98016 1.64675 6.61684 1.95714 6.26557C2.29354 5.88486 2.61244 5.33736 2.84273 4.89848C2.89498 4.79888 2.94318 4.7039 2.98652 4.61646C3.02488 4.70242 3.06757 4.79546 3.11401 4.89283C3.32397 5.33306 3.62082 5.88397 3.9511 6.26402C4.27107 6.6322 4.75906 6.99723 5.15269 7.2637C5.28034 7.35011 5.40015 7.42753 5.50407 7.49288C5.40204 7.55351 5.28503 7.62534 5.1604 7.7061C4.76649 7.96134 4.27595 8.3187 3.94929 8.70315C3.63007 9.07884 3.33351 9.63841 3.12146 10.0873C3.07257 10.1909 3.02761 10.2897 2.98731 10.3807Z" stroke="#757575" stroke-opacity="0.45" stroke-width="0.5"/>
<path d="M6.93 1.22C7.22638 0.821354 7.5 0 7.5 0C7.5 0 7.80823 0.817216 8.115 1.22C8.4102 1.60759 9 2 9 2C9 2 8.40612 2.42347 8.115 2.8C7.7996 3.20794 7.5 4 7.5 4C7.5 4 7.23685 3.20353 6.93 2.8C6.63262 2.40893 6 2 6 2C6 2 6.62793 1.62629 6.93 1.22Z" fill="url(#paint2_linear_12291_26769)"/>
<path d="M6.44189 2.00618C6.46104 1.99241 6.48068 1.97809 6.50072 1.96326C6.70064 1.8152 6.95729 1.60258 7.13084 1.36915C7.27625 1.17357 7.40977 0.900255 7.51186 0.663818C7.62313 0.900701 7.76653 1.17479 7.91633 1.37147C8.08326 1.59065 8.32437 1.8012 8.51285 1.95103C8.53662 1.96993 8.55978 1.98804 8.58214 2.00529C8.55814 2.02461 8.53317 2.04494 8.50752 2.06617C8.31973 2.22152 8.08068 2.43593 7.91743 2.64707C7.76539 2.84373 7.62283 3.11049 7.51242 3.34149C7.41116 3.1107 7.27805 2.8444 7.12921 2.64867C6.95979 2.42586 6.70557 2.20949 6.50667 2.0556C6.48456 2.0385 6.46291 2.022 6.44189 2.00618Z" stroke="#757575" stroke-opacity="0.45" stroke-width="0.5"/>
</g>
<defs>
<linearGradient id="paint0_linear_12291_26769" x1="17.9333" y1="4" x2="2.80229" y2="20.8222" gradientUnits="userSpaceOnUse">
<stop stop-color="#701210"/>
<stop offset="1" stop-color="#E75D5B"/>
</linearGradient>
<linearGradient id="paint1_linear_12291_26769" x1="3" y1="11" x2="3" y2="4" gradientUnits="userSpaceOnUse">
<stop stop-color="#701210"/>
<stop offset="1" stop-color="#E75D5B"/>
</linearGradient>
<linearGradient id="paint2_linear_12291_26769" x1="7.5" y1="0" x2="7.5" y2="4" gradientUnits="userSpaceOnUse">
<stop stop-color="#701210"/>
<stop offset="1" stop-color="#E75D5B"/>
</linearGradient>
<clipPath id="clip0_12291_26769">
<rect width="17" height="21" fill="white"/>
</clipPath>
</defs>
</svg>
