<svg width="24" height="24" viewBox="0 0 24 24" fill="none" xmlns="http://www.w3.org/2000/svg">
<g clip-path="url(#clip0_3265_152893)">
<path d="M12.0001 0C5.3735 0 0 5.3725 0 12.0001C0 17.3021 3.43839 21.8002 8.2064 23.387C8.80613 23.498 9.02631 23.1266 9.02631 22.8097C9.02631 22.5235 9.01518 21.5782 9.01001 20.5755C5.67157 21.3014 4.96712 19.1597 4.96712 19.1597C4.42125 17.7726 3.63473 17.4038 3.63473 17.4038C2.54596 16.659 3.7168 16.6743 3.7168 16.6743C4.92181 16.759 5.55632 17.9109 5.55632 17.9109C6.6266 19.7455 8.36359 19.2151 9.04836 18.9085C9.15607 18.1329 9.46706 17.6035 9.81024 17.3038C7.14486 17.0004 4.34295 15.9715 4.34295 11.3733C4.34295 10.0632 4.81172 8.99272 5.57937 8.15235C5.45477 7.8501 5.04402 6.62958 5.69562 4.97666C5.69562 4.97666 6.70331 4.65414 8.9965 6.20671C9.95372 5.94083 10.9803 5.80749 12.0001 5.80292C13.0199 5.80749 14.0473 5.94083 15.0063 6.20671C17.2967 4.65414 18.303 4.97666 18.303 4.97666C18.9562 6.62958 18.5452 7.8501 18.4206 8.15235C19.1901 8.99272 19.6557 10.0632 19.6557 11.3733C19.6557 15.9824 16.8484 16.9972 14.1762 17.2943C14.6067 17.6667 14.9902 18.397 14.9902 19.5166C14.9902 21.1222 14.9763 22.4144 14.9763 22.8097C14.9763 23.129 15.1923 23.5032 15.8006 23.3854C20.566 21.7968 24 17.3003 24 12.0001C24 5.3725 18.6273 0 12.0001 0ZM4.49443 17.0944C4.468 17.154 4.3742 17.1719 4.28876 17.131C4.20172 17.0918 4.15283 17.0105 4.18105 16.9507C4.20688 16.8893 4.30088 16.8722 4.38772 16.9134C4.47495 16.9525 4.52463 17.0346 4.49443 17.0944ZM5.0847 17.6211C5.02747 17.6741 4.91559 17.6495 4.83968 17.5656C4.76119 17.482 4.74648 17.3701 4.80451 17.3163C4.86353 17.2632 4.97203 17.288 5.05072 17.3717C5.12921 17.4564 5.14451 17.5674 5.0847 17.6211ZM5.48965 18.295C5.41612 18.346 5.2959 18.2981 5.22158 18.1914C5.14805 18.0847 5.14805 17.9568 5.22317 17.9055C5.29769 17.8542 5.41612 17.9003 5.49144 18.0062C5.56476 18.1147 5.56476 18.2427 5.48965 18.295ZM6.1745 19.0754C6.10873 19.148 5.96863 19.1285 5.86609 19.0295C5.76117 18.9327 5.73196 18.7954 5.79793 18.7229C5.8645 18.6502 6.00539 18.6706 6.10873 18.7688C6.21285 18.8654 6.24465 19.0037 6.1745 19.0754ZM7.05961 19.3389C7.0306 19.4329 6.89567 19.4756 6.75975 19.4357C6.62402 19.3945 6.5352 19.2844 6.56262 19.1895C6.59084 19.0949 6.72636 19.0504 6.86328 19.0931C6.9988 19.134 7.08783 19.2433 7.05961 19.3389ZM8.0669 19.4507C8.07028 19.5496 7.95502 19.6317 7.81235 19.6335C7.66887 19.6367 7.55282 19.5566 7.55123 19.4592C7.55123 19.3592 7.6639 19.278 7.80738 19.2756C7.95006 19.2728 8.0669 19.3523 8.0669 19.4507ZM9.05645 19.4127C9.07354 19.5093 8.97438 19.6085 8.8327 19.6349C8.6934 19.6603 8.56443 19.6007 8.54674 19.5049C8.52946 19.406 8.6304 19.3068 8.7695 19.2812C8.91139 19.2565 9.03837 19.3146 9.05645 19.4127Z" fill="#161614"/>
</g>
<defs>
<clipPath id="clip0_3265_152893">
<rect width="24" height="23.4375" fill="white"/>
</clipPath>
</defs>
</svg>
