<svg width="26" height="26" viewBox="0 0 26 26" fill="none" xmlns="http://www.w3.org/2000/svg">
<g clip-path="url(#clip0_3121_61313)">
<path fill-rule="evenodd" clip-rule="evenodd" d="M14.0846 1.0835C7.50324 1.0835 2.16797 6.41877 2.16797 13.0002C2.16797 19.5816 7.50324 24.9168 14.0846 24.9168C20.666 24.9168 26.0013 19.5816 26.0013 13.0002C26.0013 6.41877 20.666 1.0835 14.0846 1.0835ZM19.7257 10.5162C20.1487 10.0931 20.1487 9.4072 19.7257 8.98413C19.3026 8.56106 18.6167 8.56106 18.1936 8.98413L12.4596 14.7181L9.97567 12.2341C9.5526 11.8111 8.86667 11.8111 8.4436 12.2341C8.02054 12.6572 8.02054 13.3431 8.4436 13.7662L11.6936 17.0162C12.1167 17.4393 12.8026 17.4393 13.2257 17.0162L19.7257 10.5162Z" fill="url(#paint0_linear_3121_61313)"/>
</g>
<defs>
<linearGradient id="paint0_linear_3121_61313" x1="26.0013" y1="24.9168" x2="-2.35822" y2="16.6942" gradientUnits="userSpaceOnUse">
<stop stop-color="#00F5A0"/>
<stop offset="1" stop-color="#00D9F5"/>
</linearGradient>
<clipPath id="clip0_3121_61313">
<rect width="26" height="26" fill="white"/>
</clipPath>
</defs>
</svg>
