<svg width="20" height="20" viewBox="0 0 20 20" fill="none" xmlns="http://www.w3.org/2000/svg">
<path fill-rule="evenodd" clip-rule="evenodd" d="M14.6026 6.16317V7.44096C16.0379 7.88897 17.0837 9.18828 17.0837 10.7402V14.8543C17.0837 16.7755 15.4909 18.3332 13.5272 18.3332H6.47432C4.50979 18.3332 2.91699 16.7755 2.91699 14.8543V10.7402C2.91699 9.18828 3.96362 7.88897 5.39806 7.44096V6.16317C5.40653 3.67883 7.46421 1.6665 9.98762 1.6665C12.5449 1.6665 14.6026 3.67883 14.6026 6.16317ZM10.0047 3.11543C11.7237 3.11543 13.1209 4.48182 13.1209 6.1629V7.26098H6.88008V6.14634C6.88855 4.47354 8.28574 3.11543 10.0047 3.11543ZM10.7409 13.7122C10.7409 14.118 10.4106 14.4409 9.99569 14.4409C9.58923 14.4409 9.25898 14.118 9.25898 13.7122V11.8738C9.25898 11.4763 9.58923 11.1533 9.99569 11.1533C10.4106 11.1533 10.7409 11.4763 10.7409 11.8738V13.7122Z" fill="#9E9E9E"/>
</svg>
