<svg width="100%" height="100%" viewBox="0 0 31 35" fill="none" xmlns="http://www.w3.org/2000/svg">
<path fill-rule="evenodd" clip-rule="evenodd" d="M15.5 0C19.8345 0 23.4112 2.41071 23.9342 5.52612H24V6.31579V9.99981V10C27.866 10 31 13.134 31 17V28C31 31.866 27.866 35 24 35H7C3.13401 35 0 31.866 0 28V17C0 13.134 3.13401 10 7 10V9.99981V6.31579V5.52612H7.06579C7.58876 2.41071 11.1655 0 15.5 0ZM18.3899 5.76629C18.8352 6.06057 18.9676 6.29008 19 6.35993V9.99981H12V6.35993C12.0324 6.29008 12.1648 6.06057 12.6101 5.76629C13.229 5.35731 14.2324 5 15.5 5C16.7676 5 17.771 5.35731 18.3899 5.76629ZM17.1953 23.5627C18.2716 22.9657 19 21.8179 19 20.5C19 18.567 17.433 17 15.5 17C13.567 17 12 18.567 12 20.5C12 21.8179 12.7284 22.9657 13.8047 23.5627L13 30H18L17.1953 23.5627Z" fill="#575757"/>
</svg>
