<svg width="22" height="22" viewBox="0 0 22 22" fill="none" xmlns="http://www.w3.org/2000/svg">
<g clip-path="url(#clip0_16670_3570)">
<path d="M19.2513 4.58333C18.2338 4.2625 17.1155 4.125 16.043 4.125C14.2555 4.125 12.3305 4.49167 11.0013 5.5C9.67214 4.49167 7.74714 4.125 5.95964 4.125C4.17214 4.125 2.24714 4.49167 0.917969 5.5V18.9292C0.917969 19.1583 1.14714 19.3875 1.3763 19.3875C1.46797 19.3875 1.5138 19.3417 1.60547 19.3417C2.84297 18.7458 4.63047 18.3333 5.95964 18.3333C7.74714 18.3333 9.67214 18.7 11.0013 19.7083C12.2388 18.9292 14.4846 18.3333 16.043 18.3333C17.5555 18.3333 19.1138 18.6083 20.3971 19.2958C20.4888 19.3417 20.5346 19.3417 20.6263 19.3417C20.8555 19.3417 21.0846 19.1125 21.0846 18.8833V5.5C20.5346 5.0875 19.9388 4.8125 19.2513 4.58333ZM19.2513 16.9583C18.243 16.6375 17.143 16.5 16.043 16.5C14.4846 16.5 12.2388 17.0958 11.0013 17.875V7.33333C12.2388 6.55417 14.4846 5.95833 16.043 5.95833C17.143 5.95833 18.243 6.09583 19.2513 6.41667V16.9583Z" fill="#9E94A5"/>
<path d="M16.043 9.625C16.8496 9.625 17.6288 9.7075 18.3346 9.86333V8.47C17.6105 8.3325 16.8313 8.25 16.043 8.25C14.4846 8.25 13.073 8.51583 11.918 9.01083V10.5325C12.9538 9.94583 14.393 9.625 16.043 9.625Z" fill="#ffffff"/>
<path d="M11.918 11.4493V12.971C12.9538 12.3843 14.393 12.0635 16.043 12.0635C16.8496 12.0635 17.6288 12.146 18.3346 12.3018V10.9085C17.6105 10.771 16.8313 10.6885 16.043 10.6885C14.4846 10.6885 13.073 10.9635 11.918 11.4493Z" fill="#ffffff"/>
<path d="M16.043 13.1357C14.4846 13.1357 13.073 13.4016 11.918 13.8966V15.4182C12.9538 14.8316 14.393 14.5107 16.043 14.5107C16.8496 14.5107 17.6288 14.5932 18.3346 14.7491V13.3557C17.6105 13.2091 16.8313 13.1357 16.043 13.1357Z" fill="#ffffff"/>
</g>
<defs>
<clipPath id="clip0_16670_3570">
<rect width="22" height="22" fill="white"/>
</clipPath>
</defs>
</svg>
