<svg width="530" height="438" viewBox="0 0 530 438" fill="none" xmlns="http://www.w3.org/2000/svg">
<g filter="url(#filter0_d_14472_728)">
<circle cx="242.5" cy="175.5" r="76.5" fill="url(#paint0_linear_14472_728)"/>
</g>
<path d="M205.973 178.945L230.784 203.756L279.027 148.621" stroke="white" stroke-width="13.7838" stroke-linecap="round" stroke-linejoin="round"/>
<path d="M97.4626 221C79.4626 216.5 69.4626 235 79.4626 247M109.462 172.62C109.462 172.62 90.9623 174.62 97.4623 147.867C105.423 134.281 120.688 130.101 122.962 142.12C126.841 162.62 84.9623 152.12 90.9623 131.12C96.9623 110.12 112.462 117.12 112.462 117.12" stroke="url(#paint1_linear_14472_728)" stroke-width="10" stroke-linecap="round" stroke-linejoin="round"/>
<path d="M495.397 229.797C513.949 229.486 518.82 209.028 506.055 200.025M405.333 247.201C405.333 247.201 422.685 240.481 423.33 268.005C419.157 283.188 405.494 291.177 400.187 280.156C391.135 261.358 434.304 260.661 433.943 282.499C433.583 304.336 416.799 301.586 416.799 301.586" stroke="url(#paint2_linear_14472_728)" stroke-width="10" stroke-linecap="round" stroke-linejoin="round"/>
<path d="M271.583 27.2723C258.942 13.6909 240.476 23.7543 242.323 39.2654M344.765 82.5803C344.765 82.5803 328.812 64.8518 348.19 55.2863" stroke="url(#paint3_linear_14472_728)" stroke-width="10" stroke-linecap="round" stroke-linejoin="round"/>
<path d="M28.1465 400.557C10.308 405.66 10.8977 426.681 25.558 432.073M110.638 360.436C110.638 360.436 87.6009 366.608 87.8692 344.999" stroke="url(#paint4_linear_14472_728)" stroke-width="10" stroke-linecap="round" stroke-linejoin="round"/>
<defs>
<filter id="filter0_d_14472_728" x="112.519" y="51.0324" width="259.962" height="259.962" filterUnits="userSpaceOnUse" color-interpolation-filters="sRGB">
<feFlood flood-opacity="0" result="BackgroundImageFix"/>
<feColorMatrix in="SourceAlpha" type="matrix" values="0 0 0 0 0 0 0 0 0 0 0 0 0 0 0 0 0 0 127 0" result="hardAlpha"/>
<feOffset dy="5.51351"/>
<feGaussianBlur stdDeviation="26.7405"/>
<feComposite in2="hardAlpha" operator="out"/>
<feColorMatrix type="matrix" values="0 0 0 0 0 0 0 0 0 0 0 0 0 0 0 0 0 0 0.61 0"/>
<feBlend mode="normal" in2="BackgroundImageFix" result="effect1_dropShadow_14472_728"/>
<feBlend mode="normal" in="SourceGraphic" in2="effect1_dropShadow_14472_728" result="shape"/>
</filter>
<linearGradient id="paint0_linear_14472_728" x1="319" y1="252" x2="136.944" y2="199.214" gradientUnits="userSpaceOnUse">
<stop stop-color="#00F5A0"/>
<stop offset="1" stop-color="#00D9F5"/>
</linearGradient>
<linearGradient id="paint1_linear_14472_728" x1="123.216" y1="247" x2="62.344" y2="240.571" gradientUnits="userSpaceOnUse">
<stop stop-color="#00F5A0"/>
<stop offset="1" stop-color="#00D9F5"/>
</linearGradient>
<linearGradient id="paint2_linear_14472_728" x1="387" y1="231.925" x2="532.036" y2="259.732" gradientUnits="userSpaceOnUse">
<stop stop-color="#00F5A0"/>
<stop offset="1" stop-color="#00D9F5"/>
</linearGradient>
<linearGradient id="paint3_linear_14472_728" x1="334.139" y1="98.9313" x2="293.281" y2="-11.1929" gradientUnits="userSpaceOnUse">
<stop stop-color="#00F5A0"/>
<stop offset="1" stop-color="#00D9F5"/>
</linearGradient>
<linearGradient id="paint4_linear_14472_728" x1="120.388" y1="377.323" x2="3.71345" y2="363.768" gradientUnits="userSpaceOnUse">
<stop stop-color="#00F5A0"/>
<stop offset="1" stop-color="#00D9F5"/>
</linearGradient>
</defs>
</svg>
