<svg width="100%" height="100%" viewBox="0 0 2971 1000" fill="none" xmlns="http://www.w3.org/2000/svg">
<g clip-path="url(#clip0_13999_4576)">
<path d="M146.799 608.031V0H0V615.679C0 847.036 162.051 1000 371.764 1000C474.714 1000 564.318 959.847 631.045 891.013V982.792H775.938V0H629.139V608.031C629.139 764.818 524.282 869.981 388.922 869.981C251.655 868.069 146.799 766.73 146.799 608.031ZM920.83 984.704H1060V894.837C1124.82 961.759 1216.33 1001.91 1315.47 1001.91C1525.18 1001.91 1691.05 835.564 1691.05 627.151C1691.05 418.738 1525.18 252.39 1315.47 252.39C1216.33 252.39 1126.73 292.543 1061.91 359.465V0H920.83V984.704ZM1060 627.151C1060 487.572 1170.58 378.585 1305.94 378.585C1441.3 378.585 1551.88 487.572 1551.88 627.151C1551.88 764.818 1441.3 875.717 1305.94 875.717C1168.67 875.717 1060 764.818 1060 627.151ZM1774.93 625.239C1774.93 839.388 1940.8 1000 2154.32 1000C2283.96 1000 2390.73 942.639 2463.17 847.036L2360.22 770.554C2306.84 841.3 2236.3 875.717 2154.32 875.717C2034.21 875.717 1936.98 787.763 1917.92 671.128H2499.4V625.239C2499.4 411.09 2348.78 252.39 2142.88 252.39C1933.17 252.39 1774.93 422.562 1774.93 625.239ZM2139.07 376.673C2243.93 376.673 2331.63 449.331 2356.41 560.229H1919.83C1946.52 449.331 2034.21 376.673 2139.07 376.673ZM2970.3 393.881V261.95H2920.73C2842.56 261.95 2785.37 298.279 2749.15 355.641V267.686H2611.88V984.704H2752.96V575.526C2752.96 464.627 2819.69 391.969 2913.1 391.969H2970.3V393.881Z" fill="white"/>
</g>
<defs>
<clipPath id="clip0_13999_4576">
<rect width="2970.3" height="1000" fill="white"/>
</clipPath>
</defs>
</svg>
