<?xml version="1.0" standalone="no"?>
<!DOCTYPE svg PUBLIC "-//W3C//DTD SVG 20010904//EN"
 "http://www.w3.org/TR/2001/REC-SVG-20010904/DTD/svg10.dtd">
<svg version="1.0" xmlns="http://www.w3.org/2000/svg"
 width="453.000000pt" height="453.000000pt" viewBox="0 0 453.000000 453.000000"
 preserveAspectRatio="xMidYMid meet">
<metadata>
Created by potrace 1.14, written by Peter Selinger 2001-2017
</metadata>
<g transform="translate(0.000000,453.000000) scale(0.100000,-0.100000)"
fill="#000000" stroke="none">
<path d="M2088 4526 c-1 -2 -32 -6 -68 -10 -154 -14 -362 -62 -510 -116 -47
-17 -98 -36 -115 -42 -16 -6 -40 -18 -52 -26 -13 -8 -23 -12 -23 -9 0 10 -204
-104 -300 -167 -338 -222 -609 -531 -790 -900 -55 -114 -118 -275 -146 -376
-19 -68 -65 -310 -71 -370 -15 -148 -8 -481 12 -593 6 -29 43 -211 49 -237 8
-34 76 -230 101 -290 129 -312 390 -665 640 -865 28 -22 52 -43 55 -47 20 -26
288 -192 395 -244 192 -94 430 -173 600 -199 303 -47 572 -44 855 10 228 44
518 158 729 288 167 103 419 317 532 452 308 369 484 776 536 1238 9 81 9 404
1 487 -47 431 -232 866 -513 1207 -69 83 -216 227 -310 302 -49 40 -98 79
-109 88 -36 29 -224 142 -304 182 -201 101 -480 190 -677 215 -27 4 -66 9 -85
12 -38 6 -426 15 -432 10z"/>
</g>
</svg>
